<svg width="37" height="37" viewBox="0 0 37 37" fill="none" xmlns="http://www.w3.org/2000/svg">
<path d="M17.958 27.4304H19.042V28.5144H17.958V27.4304Z" fill="url(#paint0_linear_9_50)"/>
<path d="M37 22.5525C37 21.6559 36.2705 20.9265 35.374 20.9265H35.288C35.3442 20.7317 35.3734 20.5275 35.3734 20.3187C35.3734 19.7384 35.1486 19.194 34.7404 18.7858L28.2252 12.2706C27.715 11.7604 27.0345 11.4795 26.309 11.4795C25.5834 11.4795 24.9029 11.7605 24.3927 12.2706L19.9627 16.7006H18.2437L13.4395 11.8963C13.3152 11.7721 13.1817 11.663 13.0413 11.568C13.8579 10.763 14.3262 9.66367 14.3262 8.4856C14.3262 6.09476 12.3811 4.14966 9.99022 4.14966C7.99821 4.14966 6.31681 5.50038 5.81081 7.33361L5.03359 6.55639C4.18837 5.71117 2.81294 5.71103 1.96758 6.55639C1.12236 7.40161 1.12236 8.77704 1.96758 9.62233L2.4566 10.1113C2.29198 10.1897 2.14029 10.2965 2.00776 10.429L0.474857 11.962C0.168668 12.2682 0 12.6765 0 13.1117C0 13.5469 0.168668 13.9552 0.474785 14.2614L2.09158 15.8783L2.85811 15.1118L1.24123 13.495C1.13985 13.3935 1.08391 13.2574 1.08391 13.1118C1.08391 12.9661 1.13977 12.8301 1.24131 12.7285L2.77428 11.1955C2.87567 11.094 3.01181 11.0382 3.1575 11.0382C3.30319 11.0382 3.43919 11.094 3.54073 11.1955L14.3558 22.0105H35.374C35.6729 22.0105 35.916 22.2536 35.916 22.5525V25.2625H13.0088L3.62463 15.8783L2.85811 16.6448L11.4759 25.2625H0V28.5144H2.16797V32.8504H5.41992V28.5144H16.874V27.4305H1.08398V26.3465H35.916V27.4305H20.126V28.5144H31.5801V32.8504H34.832V28.5144H37V22.5525ZM9.99022 5.23364C11.7833 5.23364 13.2422 6.69247 13.2422 8.4856C13.2422 9.54349 12.7386 10.5168 11.8855 11.1281C11.2475 11.0428 10.5847 11.1838 10.0288 11.5515L6.74636 8.26909C6.85822 6.57663 8.26993 5.23364 9.99022 5.23364ZM2.73417 8.85581C2.31149 8.43313 2.31149 7.74545 2.73417 7.32284C3.15685 6.90023 3.84453 6.90038 4.26707 7.32284L9.99022 13.046L10.3734 12.6628C11.0075 12.0289 12.0392 12.0289 12.6729 12.6628L17.2901 17.2799L14.5389 20.6606L2.73417 8.85581ZM15.7202 20.9265L18.277 17.7845H20.4116L24.0094 14.1868L26.3122 16.4895L21.9518 20.9264H15.7202V20.9265ZM23.4717 20.9265L27.0787 17.2561L30.7492 20.9265H23.4717ZM34.105 20.9265H32.2821L24.776 13.4203L25.1593 13.037C25.4647 12.7316 25.873 12.5634 26.309 12.5634C26.7449 12.5634 27.1533 12.7316 27.4586 13.037L33.9738 19.5522C34.1773 19.7557 34.2894 20.0279 34.2894 20.3187C34.2894 20.5394 34.2249 20.7492 34.105 20.9265ZM4.33594 31.7663H3.25195V28.5143H4.33594V31.7663ZM33.748 31.7663H32.6641V28.5143H33.748V31.7663Z" fill="url(#paint1_linear_9_50)"/>
<path d="M11.4835 14.5435L12.2498 13.7771L13.0162 14.5435L12.2498 15.3098L11.4835 14.5435Z" fill="url(#paint2_linear_9_50)"/>
<path d="M13.0164 16.0737L13.7827 15.3074L14.5491 16.0737L13.7827 16.8401L13.0164 16.0737Z" fill="url(#paint3_linear_9_50)"/>
<defs>
<linearGradient id="paint0_linear_9_50" x1="18.5" y1="27.4304" x2="18.5" y2="28.5144" gradientUnits="userSpaceOnUse">
<stop stop-color="#27C8DA"/>
<stop offset="1" stop-color="#24BFD0"/>
</linearGradient>
<linearGradient id="paint1_linear_9_50" x1="18.5" y1="4.14966" x2="18.5" y2="32.8504" gradientUnits="userSpaceOnUse">
<stop stop-color="#27C8DA"/>
<stop offset="1" stop-color="#24BFD0"/>
</linearGradient>
<linearGradient id="paint2_linear_9_50" x1="11.8666" y1="14.1603" x2="12.633" y2="14.9266" gradientUnits="userSpaceOnUse">
<stop stop-color="#27C8DA"/>
<stop offset="1" stop-color="#24BFD0"/>
</linearGradient>
<linearGradient id="paint3_linear_9_50" x1="13.3995" y1="15.6905" x2="14.1659" y2="16.4569" gradientUnits="userSpaceOnUse">
<stop stop-color="#27C8DA"/>
<stop offset="1" stop-color="#24BFD0"/>
</linearGradient>
</defs>
</svg>
