<svg width="391" height="342" viewBox="0 0 391 342" fill="none" xmlns="http://www.w3.org/2000/svg">
<path d="M149.743 305.09H45.3276V274.911H124.854L124.865 274.913L125.171 274.997C125.677 276.663 133.641 302.105 149.743 305.09Z" fill="#BDE2FC"/>
<path d="M348.961 170.711C348.961 176.492 348.633 182.198 347.992 187.813C347.313 193.758 346.285 199.601 344.926 205.318C344.788 205.904 344.646 206.489 344.5 207.072C327.897 273.411 266.894 322.622 194.182 322.622C108.697 322.622 39.4002 254.608 39.4002 170.711C39.4002 86.8132 108.697 18.8013 194.182 18.8013C225.895 18.8013 255.379 28.1602 279.924 44.2211C280.804 44.7955 281.679 45.3808 282.545 45.9749C292.617 52.8588 301.815 60.8914 309.946 69.8755C312.764 72.9863 315.451 76.2134 318.003 79.5457C318.154 79.743 318.305 79.9403 318.453 80.1398C325.987 90.0798 332.312 100.956 337.214 112.557C339.443 117.83 341.38 123.258 343.001 128.816C343.034 128.925 343.064 129.035 343.097 129.144C343.966 132.144 344.74 135.182 345.421 138.256C345.594 139.032 345.76 139.81 345.92 140.591C346.335 142.621 346.71 144.664 347.042 146.722C348.305 154.536 348.961 162.549 348.961 170.711Z" fill="#7CC8FC"/>
<path d="M348.961 171.561C348.961 177.342 348.644 183.049 348.025 188.663C347.37 194.609 346.377 200.451 345.066 206.169C344.933 206.754 344.795 207.34 344.655 207.923C328.63 274.262 269.752 323.473 199.569 323.473C117.06 323.473 50.1741 255.459 50.1741 171.561C50.1741 87.6638 117.06 19.6519 199.569 19.6519C230.179 19.6519 258.637 29.0108 282.327 45.0717C283.176 45.646 284.02 46.2314 284.856 46.8255C294.577 53.7094 303.454 61.742 311.303 70.726C314.023 73.8369 316.615 77.064 319.079 80.3963C319.226 80.5936 319.37 80.7909 319.515 80.9904C326.785 90.9303 332.892 101.806 337.623 113.408C339.776 118.681 341.644 124.109 343.209 129.666C343.239 129.776 343.27 129.885 343.301 129.995C344.139 132.994 344.887 136.033 345.543 139.106C345.71 139.882 345.872 140.661 346.025 141.441C346.425 143.471 346.786 145.514 347.108 147.573C348.327 155.386 348.961 163.399 348.961 171.561Z" fill="#BDE2FC"/>
<path d="M348.961 171.561C348.961 177.342 348.644 183.049 348.025 188.663C347.37 194.609 346.377 200.451 345.066 206.169C344.933 206.754 344.795 207.34 344.655 207.923C328.63 274.262 269.752 323.473 199.569 323.473C117.06 323.473 50.1741 255.459 50.1741 171.561C50.1741 87.6638 117.06 19.6519 199.569 19.6519C230.179 19.6519 258.637 29.0108 282.327 45.0717C283.176 45.646 284.02 46.2314 284.856 46.8255C294.577 53.7094 303.454 61.742 311.303 70.726C314.023 73.8369 316.615 77.064 319.079 80.3963C319.226 80.5936 319.37 80.7909 319.515 80.9904C326.785 90.9303 332.892 101.806 337.623 113.408C339.776 118.681 341.644 124.109 343.209 129.666C343.239 129.776 343.27 129.885 343.301 129.995C344.139 132.994 344.887 136.033 345.543 139.106C345.71 139.882 345.872 140.661 346.025 141.441C346.425 143.471 346.786 145.514 347.108 147.573C348.327 155.386 348.961 163.399 348.961 171.561Z" fill="#BDE2FC"/>
<path d="M125.412 76.4565V190.623C125.412 204.044 136.31 214.964 149.706 214.964H333.56C333.706 214.381 333.848 213.796 333.986 213.21H149.706C137.275 213.21 127.162 203.078 127.162 190.623V76.4565" fill="white"/>
<path d="M160.646 205.319C148.216 205.319 138.102 195.186 138.102 182.731V68.5646C138.102 56.1079 148.216 45.975 160.646 45.975H282.546C281.679 45.3809 280.804 44.7956 279.924 44.2212H160.646C147.251 44.2212 136.352 55.1411 136.352 68.5646V182.731C136.352 196.153 147.251 207.072 160.646 207.072H344.5C344.646 206.489 344.789 205.904 344.926 205.319H160.646Z" fill="white"/>
<path d="M230.302 90.4721C230.276 90.4721 230.247 90.4699 230.221 90.4655C229.895 90.4216 229.665 90.1191 229.709 89.7924C229.713 89.7639 229.777 89.0405 227.138 86.5829C225.724 85.2653 224.258 84.1297 224.243 84.1188L224.195 84.0771C222.582 82.5271 221.856 80.8478 222.033 79.083C222.377 75.6806 226.005 73.2318 226.427 72.9555C230.86 69.2571 230.024 64.9755 230.015 64.9339C229.947 64.6094 230.155 64.2937 230.477 64.2258C230.798 64.1578 231.116 64.3661 231.184 64.6883C231.227 64.8922 232.173 69.7416 227.162 73.9004L227.131 73.9245L227.099 73.9443C227.064 73.9662 223.517 76.2506 223.221 79.2058C223.083 80.576 223.683 81.9155 224.998 83.1892C225.21 83.3536 226.578 84.4279 227.943 85.6994C230.718 88.2819 230.974 89.3277 230.89 89.9503C230.853 90.255 230.597 90.4721 230.302 90.4721Z" fill="white"/>
<path d="M222.606 90.4723C222.287 90.4723 222.022 90.218 222.009 89.8957C221.926 87.6946 222.469 85.7369 223.624 84.0773C224.593 82.683 225.797 81.7951 226.632 81.2953C227.775 80.6157 228.7 79.6927 229.311 78.6294C230.19 77.0948 230.343 75.5755 229.766 74.1177C229.363 73.1026 228.731 72.4669 228.654 72.3901C223.867 68.4155 221.954 65.7211 221.876 65.6093C221.685 65.3397 221.751 64.9648 222.02 64.7762C222.289 64.5855 222.663 64.6513 222.852 64.9209C222.882 64.9648 224.788 67.6284 229.431 71.4825L229.455 71.5022C229.49 71.5351 230.343 72.3309 230.877 73.677C231.372 74.9244 231.68 76.9019 230.348 79.2257C229.634 80.4688 228.562 81.5408 227.245 82.3257C225.665 83.2662 223.04 85.4935 223.204 89.8519C223.217 90.1829 222.959 90.4591 222.631 90.4723C222.622 90.4723 222.615 90.4723 222.606 90.4723Z" fill="white"/>
<path d="M229.05 66.5123H224.76C224.65 66.5123 224.56 66.4224 224.56 66.3128C224.56 66.2032 224.65 66.1133 224.76 66.1133H229.05C229.16 66.1133 229.249 66.2032 229.249 66.3128C229.249 66.4224 229.16 66.5123 229.05 66.5123Z" fill="white"/>
<path d="M228.998 67.9483H226.048C225.939 67.9483 225.849 67.8584 225.849 67.7488C225.849 67.6392 225.939 67.5493 226.048 67.5493H228.998C229.107 67.5493 229.197 67.6392 229.197 67.7488C229.195 67.8584 229.107 67.9483 228.998 67.9483Z" fill="white"/>
<path d="M228.943 69.3843H227.521C227.411 69.3843 227.322 69.2945 227.322 69.1848C227.322 69.0752 227.411 68.9854 227.521 68.9854H228.943C229.052 68.9854 229.142 69.0752 229.142 69.1848C229.142 69.2945 229.052 69.3843 228.943 69.3843Z" fill="white"/>
<path d="M229.298 75.1261H226.368C226.258 75.1261 226.169 75.0362 226.169 74.9266C226.169 74.8169 226.258 74.7271 226.368 74.7271H229.298C229.407 74.7271 229.497 74.8169 229.497 74.9266C229.497 75.0362 229.407 75.1261 229.298 75.1261Z" fill="white"/>
<path d="M229.468 76.5616H224.939C224.83 76.5616 224.74 76.4717 224.74 76.3621C224.74 76.2525 224.83 76.1626 224.939 76.1626H229.468C229.578 76.1626 229.667 76.2525 229.667 76.3621C229.667 76.4717 229.58 76.5616 229.468 76.5616Z" fill="white"/>
<path d="M228.621 77.9976H224.331C224.221 77.9976 224.132 77.9077 224.132 77.7981C224.132 77.6885 224.221 77.5986 224.331 77.5986H228.621C228.731 77.5986 228.82 77.6885 228.82 77.7981C228.82 77.9077 228.731 77.9976 228.621 77.9976Z" fill="white"/>
<path d="M228.19 79.4317H223.615C223.506 79.4317 223.416 79.3418 223.416 79.2322C223.416 79.1226 223.506 79.0327 223.615 79.0327H228.19C228.3 79.0327 228.389 79.1226 228.389 79.2322C228.389 79.3418 228.302 79.4317 228.19 79.4317Z" fill="white"/>
<path d="M226.475 80.8678H224.223C224.114 80.8678 224.024 80.7779 224.024 80.6683C224.024 80.5586 224.114 80.4688 224.223 80.4688H226.475C226.584 80.4688 226.674 80.5586 226.674 80.6683C226.674 80.7779 226.587 80.8678 226.475 80.8678Z" fill="white"/>
<path d="M226.475 86.609H224.007C223.897 86.609 223.808 86.5191 223.808 86.4095C223.808 86.2998 223.897 86.21 224.007 86.21H226.475C226.584 86.21 226.674 86.2998 226.674 86.4095C226.674 86.5191 226.587 86.609 226.475 86.609Z" fill="white"/>
<path d="M227.521 88.045H223.954C223.845 88.045 223.755 87.9551 223.755 87.8455C223.755 87.7359 223.845 87.646 223.954 87.646H227.521C227.63 87.646 227.72 87.7359 227.72 87.8455C227.72 87.9551 227.632 88.045 227.521 88.045Z" fill="white"/>
<path d="M228.621 89.481H223.902C223.792 89.481 223.703 89.3911 223.703 89.2815C223.703 89.1719 223.792 89.082 223.902 89.082H228.621C228.731 89.082 228.821 89.1719 228.821 89.2815C228.821 89.3911 228.731 89.481 228.621 89.481Z" fill="white"/>
<path d="M199.109 124.181C201.151 112.816 197.899 105.621 197.899 105.621C198.127 103.955 196.917 93.6509 196.917 93.6509C196.993 77.5133 188.825 79.5588 188.825 79.5588C188.068 78.877 185.012 78.3464 185.012 78.3464C182.18 77.5879 184.062 70.6185 184.062 70.6185C187.012 68.4218 185.646 66.0717 185.646 66.0717L185.55 66.0563C185.622 65.5872 185.662 65.1049 185.662 64.6138C185.662 59.7951 182.053 55.8862 177.605 55.8862C173.155 55.8862 169.549 59.7929 169.549 64.6138C169.549 65.1093 169.588 65.596 169.663 66.0673L169.643 66.0695C169.643 66.0695 168.28 68.4175 171.227 70.6163C171.227 70.6163 173.109 77.5857 170.277 78.3442C170.277 78.3442 167.221 78.8748 166.464 79.5566C166.464 79.5566 158.298 77.5112 158.372 93.6487C158.372 93.6487 157.162 103.953 157.39 105.619C157.39 105.619 154.139 112.816 156.18 124.179C156.18 124.179 149.603 135.239 152.854 133.422L155.576 130.466C155.576 130.466 153.156 141.603 155.955 138.043L156.786 136.226C156.786 136.226 157.088 141.191 158.147 138.747L158.978 134.257C158.978 134.257 159.582 141 160.49 137.135L160.718 133.347C160.718 133.347 161.7 139.181 162.759 135.469L161.895 129.863C161.895 129.863 161.549 126.378 160.869 125.319L164.348 110.242C164.348 110.242 164.197 104.106 165.481 103.424C165.481 103.424 165.709 118.652 163.818 122.138C163.818 122.138 162.987 127.364 163.742 129.41C163.742 129.41 164.044 147.137 166.464 151.758C166.464 151.758 166.464 156.607 166.993 157.666C166.993 157.666 164.875 163.728 168.278 175.167C168.278 175.167 170.772 183.728 169.411 187.819C169.411 187.819 166.851 192.669 168.888 191.456C168.888 191.456 170.168 192.754 170.923 191.651C170.923 191.651 171.982 193.493 173.041 192.096C173.041 192.096 173.949 193.655 174.931 191.836C174.931 191.836 175.763 193.958 177.275 191.533C177.275 191.533 177.351 189.716 176.065 188.201L175.461 182.898C175.461 182.898 174.857 172.368 175.082 170.928C175.082 170.928 176.065 162.974 175.159 159.867C175.159 159.867 175.688 156.382 176.369 155.095C176.369 155.095 176.822 142.559 176.822 139.034C176.822 138.655 177.621 130.745 177.621 130.745L177.896 73.3414L177.621 130.938C177.621 130.938 178.467 138.652 178.467 139.032C178.467 142.557 178.92 155.093 178.92 155.093C179.601 156.379 180.13 159.865 180.13 159.865C179.222 162.972 180.207 170.925 180.207 170.925C180.434 172.366 179.828 182.895 179.828 182.895L179.224 188.199C177.94 189.713 178.014 191.531 178.014 191.531C179.526 193.956 180.358 191.833 180.358 191.833C181.34 193.651 182.248 192.094 182.248 192.094C183.307 193.491 184.366 191.649 184.366 191.649C185.123 192.752 186.401 191.454 186.401 191.454C188.436 192.666 185.878 187.817 185.878 187.817C184.517 183.726 187.012 175.165 187.012 175.165C190.414 163.726 188.296 157.664 188.296 157.664C188.825 156.603 188.825 151.756 188.825 151.756C191.245 147.134 191.547 129.407 191.547 129.407C192.304 127.362 191.471 122.136 191.471 122.136C189.58 118.65 189.808 103.422 189.808 103.422C191.092 104.104 190.941 110.24 190.941 110.24L194.42 125.317C193.74 126.378 193.394 129.861 193.394 129.861L192.53 135.467C193.589 139.179 194.571 133.345 194.571 133.345L194.799 137.133C195.707 140.996 196.311 134.255 196.311 134.255L197.142 138.744C198.201 141.189 198.503 136.223 198.503 136.223L199.335 138.041C202.133 141.601 199.713 130.464 199.713 130.464L202.435 133.419C205.689 135.241 199.109 124.181 199.109 124.181Z" fill="white"/>
<path d="M235.433 107.107C235.382 106.733 235.258 106.371 235.067 106.046C231.647 100.228 226.534 105.996 226.534 105.996C226.534 105.996 221.421 100.228 218.001 106.046C217.808 106.373 217.683 106.733 217.635 107.107C217.392 108.956 217.497 114.585 226.536 119.093C235.571 114.588 235.678 108.956 235.433 107.107Z" fill="white"/>
<path d="M234.728 140.76H233.916L234.304 140.062L234.111 139.869H233.415C233.724 139.598 233.415 138.436 233.415 138.436L230.978 138.817C230.556 136.982 229.052 136.842 229.052 136.842C229.192 135.29 230.884 134.772 230.884 134.772C230.602 134.301 231.072 133.972 231.072 133.972C228.772 133.455 227.551 136.09 227.551 136.09C227.175 136.796 226.989 136.184 226.989 136.184V133.832L225.722 133.878L225.628 136.699C225.628 137.5 225.114 137.076 225.114 137.076L224.313 135.43C224.313 134.772 223.092 133.22 223.092 133.22C223.092 133.409 222.2 133.549 222.2 133.549L222.482 134.678C221.871 133.972 220.088 133.549 220.088 133.549C220.464 133.643 220.088 134.584 220.088 134.584C222.059 135.147 222.858 137.265 222.858 137.265C220.37 138.065 220.228 142.156 220.228 142.156C218.114 143.097 218.491 145.401 218.491 145.401C218.114 147.942 218.491 148.74 218.491 148.74C218.819 149.163 219.007 150.432 219.007 150.432C218.913 150.903 220.696 152.699 220.696 152.699C221.401 153.271 223.09 155.514 223.09 155.514C223.841 156.972 226.188 157.16 226.188 157.16C228.254 157.395 229.381 155.034 229.381 155.034C229.615 154.223 230.131 153.21 230.131 153.21C231.07 152.129 231.398 150.388 231.398 150.388C232.525 149.542 231.398 148.224 231.398 148.224C232.385 148.647 232.175 146.813 232.175 146.813C232.247 146.341 231.899 145.199 231.899 145.199C232.208 144.298 232.225 143.327 232.109 142.419L232.369 142.31L233.221 143.046C233.608 143.086 233.8 142.465 233.8 142.465L233.529 142.04L234.728 141.744C234.768 141.448 234.728 140.76 234.728 140.76Z" fill="white"/>
<path d="M219.854 181.464C219.854 181.464 217.01 181.464 215.891 178.855C215.294 177.463 215.509 175.852 216.406 174.633C218.548 171.719 224.307 166.111 233.678 172.769C233.678 172.769 241.737 182.023 234.483 183.886C234.483 183.886 234.172 186.682 229.958 186.434L230.641 187.677C230.641 187.677 231.51 188.361 229.836 188.609L227.418 186.061C227.418 186.061 225.869 185.377 225.744 184.695C225.744 184.695 221.342 187.302 219.854 181.464Z" fill="white"/>
<path d="M298.875 67.9526H243.054V70.1121H298.875V67.9526Z" fill="#BDE2FC"/>
<path d="M298.875 75.6499H243.054V77.8093H298.875V75.6499Z" fill="#BDE2FC"/>
<path d="M298.875 83.3472H243.054V85.5066H298.875V83.3472Z" fill="#BDE2FC"/>
<path d="M298.875 101.769H243.054V103.928H298.875V101.769Z" fill="#BDE2FC"/>
<path d="M298.875 109.466H243.054V111.626H298.875V109.466Z" fill="#BDE2FC"/>
<path d="M298.875 117.164H243.054V119.323H298.875V117.164Z" fill="#BDE2FC"/>
<path d="M298.875 135.585H243.054V137.745H298.875V135.585Z" fill="#BDE2FC"/>
<path d="M298.875 143.283H243.054V145.442H298.875V143.283Z" fill="#BDE2FC"/>
<path d="M298.875 150.98H243.054V153.139H298.875V150.98Z" fill="#BDE2FC"/>
<path d="M298.875 169.402H243.054V171.561H298.875V169.402Z" fill="#BDE2FC"/>
<path d="M298.875 177.099H243.054V179.259H298.875V177.099Z" fill="#BDE2FC"/>
<path d="M298.875 184.794H243.054V186.953H298.875V184.794Z" fill="#BDE2FC"/>
<path d="M345.421 138.256V187.328H340.036V128.815H343.001C343.034 128.925 343.064 129.035 343.097 129.144C343.966 132.143 344.74 135.182 345.421 138.256Z" fill="#BDE2FC"/>
<path d="M333.325 138.311H327.938V187.326H333.325V138.311Z" fill="#BDE2FC"/>
<path d="M321.523 147.323H316.136V187.328H321.523V147.323Z" fill="#BDE2FC"/>
<path d="M337.214 112.558C336.765 112.577 336.312 112.588 335.857 112.588C319.738 112.588 306.671 99.4958 306.671 83.3472C306.671 78.4891 307.852 73.9071 309.946 69.8755C312.764 72.9864 315.451 76.2134 318.003 79.5458C318.154 79.7431 318.305 79.9404 318.453 80.1399C325.987 90.0798 332.312 100.956 337.214 112.558Z" fill="#BDE2FC"/>
<path d="M315.09 305.09C338.084 305.09 356.724 299.999 356.724 293.719C356.724 287.438 338.084 282.347 315.09 282.347C292.097 282.347 273.456 287.438 273.456 293.719C273.456 299.999 292.097 305.09 315.09 305.09Z" fill="#BDE2FC"/>
<path d="M102.457 152.091V117.164H119.213" stroke="white" stroke-width="7" stroke-miterlimit="10" stroke-linecap="round"/>
<path d="M180.964 175.314V278.41H57.0708C45.2072 278.41 35.5886 268.772 35.5886 256.884V216.909C35.5886 182.406 63.5036 154.437 97.9389 154.437H160.127C171.634 154.437 180.964 163.785 180.964 175.314Z" fill="#FFAA03"/>
<path d="M168.321 274.911L165.418 305.09H45.3276V274.911H168.321Z" fill="#FFBA55"/>
<path d="M112.06 274.909H58.1363V305.088H112.06V274.909Z" fill="#7CC8FC"/>
<path d="M180.964 175.314V278.41H65.6041C53.7406 278.41 44.122 268.772 44.122 256.884V216.909C44.122 182.406 72.0369 154.437 106.472 154.437H160.127C171.634 154.437 180.964 163.785 180.964 175.314Z" fill="#FFBA55"/>
<path d="M246.211 259.602H147.555V305.088H246.211V259.602Z" fill="#FFBA55"/>
<path d="M239.61 262.516H163.801V298.586H239.61V262.516Z" fill="white"/>
<path d="M233.628 292.982H170.457V295.251H233.628V292.982Z" fill="#4BADB6"/>
<path d="M233.628 287.728H170.457V289.997H233.628V287.728Z" fill="#59B3BB"/>
<path d="M233.628 282.47H170.457V284.739H233.628V282.47Z" fill="#67B8C0"/>
<path d="M233.628 277.215H170.457V279.484H233.628V277.215Z" fill="#76BEC4"/>
<path d="M233.628 271.958H170.457V274.227H233.628V271.958Z" fill="#84C3C9"/>
<path d="M233.628 266.703H170.457V268.972H233.628V266.703Z" fill="#92C9CE"/>
<path d="M171.816 264.645C179.104 264.645 185.012 249.867 185.012 231.637C185.012 213.408 179.104 198.63 171.816 198.63C164.528 198.63 158.62 213.408 158.62 231.637C158.62 249.867 164.528 264.645 171.816 264.645Z" fill="url(#paint0_linear_14_233)" stroke="#00F451" stroke-width="1.5768" stroke-miterlimit="10"/>
<path d="M348.961 240.352H340.979V259.602H348.961V240.352Z" fill="#FFAA03"/>
<path d="M184.747 259.602H158.882V240.352H169.555L170.452 241.842C173.549 246.985 178.806 250.443 184.747 251.245V259.602V259.602Z" stroke="#00F451" stroke-width="1.5768" stroke-miterlimit="10"/>
<path d="M163.801 298.465C182.53 298.465 197.713 267.577 197.713 229.473C197.713 191.37 182.53 160.481 163.801 160.481C145.072 160.481 129.889 191.37 129.889 229.473C129.889 267.577 145.072 298.465 163.801 298.465Z" fill="white"/>
<path d="M168.321 285.208C181.743 285.208 192.624 260.255 192.624 229.473C192.624 198.692 181.743 173.738 168.321 173.738C154.899 173.738 144.019 198.692 144.019 229.473C144.019 260.255 154.899 285.208 168.321 285.208Z" fill="#92C9CE"/>
<path d="M125.189 278.41H92.1099C78.9008 278.41 69.5469 275.746 69.8905 262.516L69.9474 203.637C69.9474 182.9 84.7866 152.17 105.483 152.17L149.743 153.424C149.434 153.714 147.684 154.148 147.38 154.437C122.955 177.709 118.649 198.11 120.021 224.677L125.189 278.41Z" fill="#4BADB6"/>
<path d="M113.445 294.118H80.3646C67.1554 294.118 57.8016 291.112 58.1451 276.185L58.202 209.745C58.202 186.344 73.0412 151.668 93.7378 151.668L136.702 153.056C111.505 179.719 106.888 203.135 108.275 233.485L113.445 294.118Z" fill="#7CC8FC"/>
<path d="M149.743 305.09H112.063V275.06L124.865 274.913C124.865 274.913 133.641 302.104 149.743 305.09Z" fill="#4BADB6"/>
<path d="M181.121 230.03C181.121 251.537 175.682 268.972 168.971 268.972C162.261 268.972 156.819 251.537 156.819 230.03C156.819 208.524 162.261 191.09 168.971 191.09C175.682 191.09 181.121 208.524 181.121 230.03Z" fill="white"/>
<path d="M180.338 229.39C180.338 248.847 175.417 264.623 169.345 264.623C163.274 264.623 158.351 248.849 158.351 229.39C158.351 209.933 163.274 194.16 169.345 194.16C175.417 194.16 180.338 209.931 180.338 229.39Z" fill="url(#paint1_linear_14_233)" stroke="#00F451" stroke-width="0.8432" stroke-miterlimit="10"/>
<path d="M192.624 229.473L181.121 230.03C181.121 208.524 175.682 191.09 168.971 191.09L168.321 173.738L172.49 174.556C183.924 179.088 192.624 201.951 192.624 229.473Z" fill="#4BADB6"/>
<path d="M168.971 268.972L168.321 285.208C154.9 285.208 144.019 260.253 144.019 229.473C144.019 228.513 144.03 227.557 144.049 226.61H156.819L156.865 226.632C156.834 227.752 156.819 228.885 156.819 230.03C156.819 251.536 162.26 268.972 168.971 268.972Z" fill="#4BADB6"/>
<path d="M340.981 251.247H170.457V259.604H340.981V251.247Z" fill="#123A53"/>
<path d="M219.909 237.662L316.086 244.848C316.086 244.848 326.814 235.607 327.002 242.384V252.236L219.909 253.264V237.662Z" fill="white"/>
<path d="M204.956 238.556L203.363 247.244L198.61 249.323L190.121 246.793L190.469 241.983L196.718 241.237L199.12 240.95L198.766 239.836L200.302 239.225L200.345 239.205L204.956 238.556Z" fill="#FF936D"/>
<path d="M200.643 239.247L197.464 244.523L195.35 245.87L196.718 241.237L197.995 241.084L198.766 239.836L200.302 239.225L200.643 239.247Z" fill="#F55C2B"/>
<path d="M219.909 249.774L248.189 252.238L246.55 255.522C246.55 255.522 216.355 256.904 207.001 254.556C205.673 254.222 203.988 254.014 203.352 252.8C202.761 251.671 202.299 249.851 198.612 249.323L204.336 240.74L199.829 239.302C199.829 239.302 207.822 232.525 219.911 237.66V249.774H219.909Z" fill="#FFBA55"/>
<path d="M248.189 252.238C248.189 252.238 260.074 252.019 260.074 255.928L246.55 255.524L248.189 252.238Z" fill="#FF936D"/>
<path d="M313.246 154.505C313.246 154.505 304.115 166.398 304.065 166.55C304.014 166.701 300.732 166.55 300.732 164.929C300.732 163.311 299.087 158.725 299.087 158.725L301.387 155.312L301.811 154.825L307.41 148.408L308.938 146.659L311.692 152.58L313.246 154.505Z" fill="#FF936D"/>
<path d="M307.929 294.197C307.933 294.363 307.931 294.521 307.918 294.67C307.581 298.993 300.505 297.395 300.505 297.395C298.584 296.665 298.006 295.464 297.989 294.3C297.962 292.642 299.08 291.066 299.08 291.066V289.148C303.769 282.943 307.283 288.608 307.283 288.608L307.347 291.61C308.439 292.427 307.929 294.197 307.929 294.197Z" fill="#1A1A1A"/>
<path d="M320.681 278.25C320.681 278.25 320.751 283.467 318.867 286.153C318.867 286.153 320.132 293.271 314.18 293.328C314.18 293.328 312.452 293.072 311.874 291.649C311.71 291.248 311.64 290.755 311.723 290.145L312.517 283.921L311.456 282.007L316.228 275.702C316.228 275.702 316.946 275.588 317.806 275.672C319.062 275.79 320.622 276.325 320.681 278.25Z" fill="#1A1A1A"/>
<path d="M318.865 286.153C318.865 286.153 320.129 293.271 314.178 293.328C314.178 293.328 312.449 293.072 311.872 291.649C317.512 294.199 318.865 286.153 318.865 286.153Z" fill="#8F9E99"/>
<path d="M320.681 278.25C320.681 278.25 320.751 283.467 318.867 286.153C320.132 281.426 318.609 277.355 317.806 275.671C319.062 275.79 320.622 276.325 320.681 278.25Z" fill="#8F9E99"/>
<path d="M291.921 223.74C291.921 223.74 292.661 245.24 293.733 247.492L311.062 284.255C311.062 284.255 318.541 278.989 316.751 272.8L313.664 265.208L305.726 238.674L302.875 204.676L294.687 202.938L291.921 223.74Z" fill="#245770"/>
<path d="M302.875 204.678L321.195 201.188L312.349 250.493L307.461 288.758C307.461 288.758 301.205 290.82 297.516 291.965L299.179 268.597L299.91 249.756L302.875 204.678Z" fill="#376F92"/>
<path d="M300.155 157.52C300.155 157.52 300.164 160.644 300.155 161.189L302.594 167.31C302.594 167.31 310.395 157.901 311.062 157.644L309.59 204.488C309.59 204.488 302.117 208.032 294.687 204.488L297.153 163.757L300.155 157.52Z" fill="#1C4154"/>
<path d="M300.999 155.312C300.999 155.312 300.161 156.967 300.153 157.552L302.592 164.132C302.592 164.132 310.393 154.018 311.06 153.742L311.48 156.627L309.587 204.091C309.587 204.091 302.115 207.901 294.685 204.091L297.151 160.313L300.999 155.312Z" fill="#376F92"/>
<path d="M320.884 196.738L321.836 235.995C321.836 235.995 316.204 237.013 309.815 238.639L306.268 210.367L304.507 197.126C304.327 195.797 304.292 194.451 304.397 193.114L305.415 180.109V180.107L305.662 176.946C305.662 176.946 307.268 165.684 309.697 159.262C309.725 159.19 309.752 159.122 309.78 159.052C309.808 158.98 309.835 158.912 309.863 158.844C309.889 158.774 309.918 158.706 309.946 158.64C310.067 158.342 310.191 158.057 310.314 157.787C310.338 157.739 310.358 157.693 310.382 157.647C310.463 157.478 310.544 157.316 310.627 157.158C310.655 157.103 310.684 157.048 310.712 156.996C310.83 156.781 310.948 156.577 311.069 156.393L310.983 153.88L311.253 151.813L313.263 154.22L321.84 158.304L320.884 196.738Z" fill="white"/>
<path d="M299.908 159.118C299.713 160.451 299.474 161.623 299.474 161.623L298.645 195.124C298.783 204.255 288.696 237.911 288.696 237.911C287.589 238.742 285.795 236.666 285.795 236.666L290.217 196.374L288.696 159.821L297.402 156.5L298.275 156.068L301.002 155.314C301.551 155.307 300.164 157.355 299.908 159.118Z" fill="white"/>
<path d="M315.591 161.369C315.591 161.369 313.08 161.794 312.824 162.263L310.117 159.683C310.145 159.611 310.172 159.543 310.2 159.473C310.229 159.4 310.255 159.332 310.283 159.264C310.309 159.194 310.338 159.126 310.366 159.06C310.487 158.762 310.611 158.477 310.734 158.208C310.758 158.159 310.778 158.113 310.802 158.067C310.883 157.898 310.964 157.736 311.047 157.578C311.075 157.524 311.104 157.469 311.132 157.416C311.25 157.201 311.368 156.997 311.489 156.813L311.404 154.301L311.673 152.234L311.692 152.093L313.683 154.639C314.014 154.796 315.591 161.369 315.591 161.369Z" fill="#E4E9ED"/>
<path d="M314.187 163.586C314.187 163.586 306.257 178.263 305.833 180.528L306.08 177.367C306.08 177.367 307.686 166.105 310.115 159.683C310.126 159.657 310.137 159.631 310.143 159.604L312.821 162.262L314.187 163.586Z" fill="#E4E9ED"/>
<path d="M315.169 160.946C315.169 160.946 312.657 161.371 312.401 161.841L309.695 159.26C309.723 159.188 309.749 159.12 309.778 159.05C309.806 158.977 309.832 158.909 309.861 158.841C309.887 158.771 309.916 158.703 309.944 158.638C310.064 158.339 310.189 158.054 310.312 157.785C310.336 157.737 310.355 157.69 310.379 157.644C310.46 157.476 310.541 157.313 310.625 157.156C310.653 157.101 310.681 157.046 310.71 156.993C310.828 156.778 310.946 156.575 311.067 156.39L310.981 153.878L311.25 151.811L311.27 151.67L313.261 154.216C313.594 154.374 315.169 160.946 315.169 160.946Z" fill="white"/>
<path d="M299.485 159.751L295.669 162.774L294.265 161.323L297.853 156.701L300.579 155.947C301.128 155.941 299.743 157.986 299.485 159.751Z" fill="#E4E9ED"/>
<path d="M299.485 159.751C299.485 159.751 294.195 163.875 293.534 163.875L298.415 187.955L299.052 162.257L299.485 159.751Z" fill="#E4E9ED"/>
<path d="M299.908 159.118L296.092 162.141L294.687 160.69L298.275 156.068L301.002 155.314C301.551 155.307 300.164 157.355 299.908 159.118Z" fill="white"/>
<path d="M313.767 163.162C313.767 163.162 305.837 177.84 305.413 180.105L305.66 176.943C305.66 176.943 307.266 165.681 309.695 159.26C309.706 159.234 309.717 159.207 309.723 159.181L312.401 161.838L313.767 163.162Z" fill="white"/>
<path d="M299.908 159.118C299.908 159.118 294.617 163.241 293.956 163.241L298.838 187.322L299.474 161.623L299.908 159.118Z" fill="white"/>
<path d="M307.461 181.83L306.17 184.005C306.17 184.005 305.855 192.579 309.717 192.259L313.355 188.131L312.683 182.628L307.461 181.83Z" fill="#B3B7BA"/>
<path d="M308.855 181.753L308.469 181.79C308.469 181.79 308.48 181.782 308.498 181.771C308.55 181.744 308.678 181.696 308.855 181.753Z" fill="#E4E9ED"/>
<path d="M328.109 190.553L309.717 192.261L310.944 190.457L310.67 184.424C310.434 183.711 310.117 183.192 309.773 182.817C309.773 182.814 309.773 182.814 309.773 182.814C309.412 182.091 309.091 181.83 308.859 181.751L308.887 181.749L320.062 180.675C321.676 180.409 320.267 177.088 319.361 175.264C318.898 174.335 318.677 173.298 318.744 172.261C318.747 172.25 318.747 172.239 318.747 172.23C319.079 167.278 321.751 158.574 321.834 158.304C321.836 158.3 321.836 158.298 321.836 158.298C321.899 158.311 321.963 158.326 322.024 158.34C322.212 158.383 322.394 158.434 322.573 158.493C322.692 158.532 322.81 158.576 322.926 158.622C323.042 158.668 323.155 158.717 323.267 158.769C323.324 158.796 323.379 158.822 323.433 158.85C323.654 158.958 323.867 159.081 324.072 159.216C324.278 159.348 324.481 159.493 324.672 159.651C324.72 159.69 324.766 159.732 324.814 159.771C324.954 159.887 325.092 160.014 325.225 160.144C325.352 160.267 325.475 160.394 325.593 160.525C330.553 166.041 329.912 179.25 329.912 179.25C331.719 189.558 328.109 190.553 328.109 190.553Z" fill="#E4E9ED"/>
<path d="M313.018 186.87C312.999 187.206 312.946 187.548 312.85 187.894C312.85 187.894 311.439 187.756 310.102 187.55C309.095 187.394 308.13 187.201 307.839 187.002C307.839 187.002 306.098 187.383 304.907 186.364C304.907 186.364 302.487 187.17 298.879 184.575C298.879 184.575 293.91 182.575 295.82 181.81L300.28 182.619L300.238 181.554L298.835 180.661C298.835 180.661 293.654 182.363 293.144 181.214C293.144 181.214 292.849 180.789 297.562 179.554L297.264 178.875C297.264 178.875 293.308 180.065 293.142 178.875L295.481 177.726C295.481 177.726 294.291 176.066 295.311 176.066C295.311 176.066 300.365 176.448 303.678 179.427L307.71 182.49L308.662 182.521L311.659 182.619C311.659 182.619 311.819 182.825 312.031 183.183V183.185C312.465 183.924 313.11 185.305 313.018 186.87Z" fill="#FF936D"/>
<path d="M313.018 186.87C312.999 187.205 312.946 187.547 312.85 187.894C312.85 187.894 311.439 187.756 310.102 187.55C310.334 184.198 308.662 182.521 308.662 182.521L311.659 182.619C311.659 182.619 311.819 182.825 312.031 183.183V183.185C312.366 184.434 312.749 185.868 313.018 186.87Z" fill="#FF936D"/>
<path d="M328.529 190.976L309.714 192.263L310.942 190.459L310.668 184.426C310.432 183.713 310.115 183.193 309.771 182.819C309.771 182.816 309.771 182.816 309.771 182.816C308.889 181.847 307.839 181.815 307.542 181.828L308.498 181.773L308.854 181.753H308.859L308.887 181.751L320.484 181.1C322.099 180.835 320.69 177.513 319.784 175.689C319.32 174.76 319.099 173.723 319.167 172.686C319.169 172.675 319.169 172.664 319.169 172.655C319.501 167.703 321.766 158.591 321.836 158.306C321.838 158.302 321.838 158.3 321.838 158.3C321.902 158.313 321.965 158.328 322.026 158.341C322.215 158.385 322.396 158.436 322.576 158.495C322.694 158.534 322.812 158.578 322.928 158.624C323.044 158.67 323.158 158.719 323.269 158.771C323.326 158.797 323.381 158.824 323.436 158.852C323.657 158.964 323.869 159.087 324.074 159.218C324.28 159.354 324.481 159.499 324.674 159.652C324.722 159.692 324.768 159.734 324.816 159.773C324.956 159.891 325.092 160.016 325.227 160.146C325.354 160.268 325.477 160.396 325.595 160.527C330.687 166.122 330.337 179.675 330.337 179.675C332.139 189.979 328.529 190.976 328.529 190.976Z" fill="white"/>
<path d="M322.762 198.057C322.762 198.057 314.563 197.494 313.664 197.213L314.449 212.91L322.254 212.684L322.762 198.057Z" fill="white"/>
<path d="M290.615 195.845L281.985 199.883L281.036 200.326L279.069 193.541L279.605 191.107L282.454 178.219C286.456 159.361 289.114 159.823 289.114 159.823L290.615 195.845Z" fill="#E4E9ED"/>
<path d="M290.193 195.845L281.563 199.883L280.613 200.326L278.646 193.541L279.183 191.107L282.031 178.219C286.033 159.361 288.692 159.823 288.692 159.823L290.193 195.845Z" fill="white"/>
<path d="M284.611 193.968C284.611 193.968 284.038 196.275 281.985 199.671L281.036 200.114L278.745 193.105L279.272 190.717C279.27 190.717 281.535 194.517 284.611 193.968Z" fill="#E4E9ED"/>
<path d="M270.894 176.571L276.034 181.536L284.327 189.545L298.593 188.832L287.046 175.762L270.894 176.571Z" fill="#1A1A1A"/>
<path d="M273.15 176.424C273.15 176.424 269.422 178.079 273.216 180.946C277.01 183.816 282.209 184.882 283.003 186.958C283.797 189.034 282.502 190.465 282.502 190.465L293.435 189.985C293.435 189.985 296.678 187.181 294.26 184.676C291.84 182.17 285.488 178.559 284.749 177.586C284.009 176.612 285.784 175.825 285.784 175.825L273.15 176.424Z" fill="#E0E0E0"/>
<path d="M276.607 176.259L276.181 175.755L282.077 175.391V176.001L276.607 176.259Z" fill="#376F92"/>
<path d="M283.786 177.93C283.795 177.971 283.23 178.057 282.32 178.153C281.41 178.25 280.147 178.357 278.754 178.434C277.358 178.511 276.091 178.539 275.174 178.519C274.257 178.502 273.691 178.43 273.693 178.394C273.695 178.357 274.259 178.364 275.172 178.335C276.084 178.309 277.345 178.252 278.738 178.173C280.088 178.096 281.309 178.026 282.305 177.969C283.219 177.921 283.788 177.899 283.786 177.93Z" fill="#FAFAFA"/>
<path d="M284.948 179.59C284.952 179.662 282.812 179.822 280.171 179.947C277.528 180.072 275.384 180.116 275.382 180.043C275.378 179.971 277.517 179.811 280.161 179.686C282.799 179.561 284.944 179.517 284.948 179.59Z" fill="#FAFAFA"/>
<path d="M287.477 180.957C287.482 180.993 286.959 181.087 286.108 181.201C285.256 181.315 284.079 181.442 282.773 181.543C281.467 181.644 280.283 181.701 279.425 181.72C278.568 181.74 278.036 181.727 278.036 181.692C278.034 181.655 278.563 181.604 279.417 181.536C280.357 181.466 281.495 181.378 282.753 181.284C284.011 181.183 285.147 181.093 286.088 181.019C286.943 180.951 287.473 180.92 287.477 180.957Z" fill="#FAFAFA"/>
<path d="M289.195 182.83C289.202 182.902 287.37 183.106 285.108 183.286C282.843 183.465 281.005 183.553 280.999 183.483C280.992 183.411 282.823 183.207 285.086 183.027C287.35 182.845 289.188 182.757 289.195 182.83Z" fill="#FAFAFA"/>
<path d="M291.764 184.513C291.77 184.586 290 184.829 287.81 185.061C285.617 185.292 283.836 185.421 283.83 185.349C283.823 185.276 285.591 185.033 287.784 184.801C289.974 184.57 291.757 184.443 291.764 184.513Z" fill="#FAFAFA"/>
<path d="M292.967 186.894C292.972 186.929 292.519 187.008 291.783 187.092C291.048 187.177 290.031 187.265 288.902 187.322C287.775 187.379 286.751 187.392 286.011 187.381C285.272 187.37 284.815 187.337 284.815 187.302C284.815 187.265 285.272 187.232 286.009 187.197C286.843 187.157 287.816 187.111 288.889 187.061C289.961 187.004 290.932 186.951 291.768 186.907C292.505 186.87 292.963 186.857 292.967 186.894Z" fill="#FAFAFA"/>
<path d="M285.09 191.704C285.09 191.998 284.685 193.458 284.541 193.971C284.539 193.984 284.534 193.993 284.532 194.004C284.506 194.096 284.491 194.151 284.491 194.151H281.156L279.231 191.882C279.292 191.509 279.292 191.104 279.257 190.7C279.145 189.42 278.675 188.177 278.675 188.177C278.292 187.008 278.675 186.5 278.675 186.5L279.053 184.45L280.257 185.566L281.314 186.574L283.377 182.628C283.484 182.424 283.664 182.264 283.882 182.218C284.204 182.15 284.368 182.339 284.453 182.578C284.572 182.913 284.515 183.295 284.322 183.593C283.32 185.145 282.609 188.414 282.609 188.414C283.635 188.414 286.287 183.698 286.287 183.698C287.055 183.61 287.484 184.233 287.484 184.233C288.51 185.923 285.09 191.704 285.09 191.704Z" fill="#FF936D"/>
<path d="M287.151 183.908C287.184 184.461 287.029 184.998 286.856 185.513C286.67 186.028 286.442 186.528 286.182 187.008C286.057 187.251 285.915 187.486 285.782 187.725C285.637 187.955 285.488 188.188 285.331 188.409C285.162 188.624 285.005 188.847 284.83 189.056C284.653 189.264 284.473 189.47 284.285 189.667L284.267 189.654C284.408 189.42 284.558 189.194 284.712 188.968L285.158 188.288C285.309 188.063 285.451 187.835 285.607 187.613C285.749 187.385 285.902 187.159 286.035 186.927C286.311 186.462 286.554 185.978 286.757 185.478C286.954 184.978 287.136 184.454 287.132 183.913L287.151 183.908Z" fill="#FF936D"/>
<path d="M280.266 185.572C280.126 185.794 279.981 186.013 279.83 186.228C279.756 186.335 279.694 186.454 279.6 186.546C279.509 186.638 279.408 186.725 279.281 186.791L279.266 186.778C279.303 186.64 279.366 186.524 279.438 186.414C279.509 186.302 279.611 186.219 279.701 186.123C279.88 185.932 280.062 185.743 280.25 185.559L280.266 185.572Z" fill="#FF936D"/>
<path d="M281.918 191.741C282.239 191.413 282.556 191.077 282.858 190.733C283.009 190.56 283.141 190.373 283.289 190.205C283.364 190.119 283.434 190.034 283.502 189.946C283.561 189.856 283.64 189.768 283.626 189.661L283.644 189.65C283.69 189.703 283.685 189.775 283.681 189.836C283.672 189.9 283.653 189.959 283.631 190.016C283.585 190.13 283.521 190.233 283.456 190.33C283.324 190.527 283.147 190.682 282.981 190.845C282.648 191.167 282.296 191.467 281.933 191.752L281.918 191.741Z" fill="#FF936D"/>
<path d="M281.104 190.141C281.259 189.913 281.41 189.683 281.57 189.459L281.806 189.12C281.88 189.003 281.961 188.892 282.058 188.793L282.036 188.857C282.051 188.694 282.073 188.53 282.125 188.368H282.147C282.2 188.53 282.224 188.694 282.237 188.857L282.239 188.883L282.215 188.92C282.141 189.036 282.051 189.139 281.955 189.24L281.677 189.547C281.495 189.753 281.305 189.953 281.117 190.154L281.104 190.141Z" fill="#FF936D"/>
<path d="M284.611 193.968L284.532 194.004L284.2 194.15H281.156L279.231 191.881C279.292 191.509 279.292 191.103 279.257 190.7C280.005 191.783 281.907 194.071 284.541 193.971C284.563 193.971 284.587 193.971 284.611 193.968Z" fill="#FF936D"/>
<path d="M284.611 193.969C284.611 193.969 283.615 196.485 281.563 199.881L280.613 200.324L278.646 193.539L279.183 191.105C279.185 191.105 281.535 194.517 284.611 193.969Z" fill="white"/>
<path d="M307.918 294.67C307.581 298.994 300.505 297.395 300.505 297.395C298.584 296.665 298.006 295.464 297.989 294.3C299.466 295.773 302.87 298.035 307.918 294.67Z" fill="#8F9E99"/>
<path d="M301.811 154.825L307.41 148.408L308.316 148.882C308.316 148.884 309.329 151.964 301.811 154.825Z" fill="#F55C2B"/>
<path d="M308.938 145.937C308.938 150.019 305.181 154.049 301.791 154.049C300.435 154.049 299.35 153.082 298.533 151.661C298.151 150.993 297.825 150.225 297.56 149.406C296.98 147.619 296.691 145.606 296.691 143.925C296.691 139.845 299.439 139.271 302.829 139.271C306.216 139.271 308.938 141.86 308.938 145.937Z" fill="#FF936D"/>
<path d="M310.931 142.456C310.931 142.456 311.347 150.206 310.268 149.52L309.865 148.862L308.828 147.163L308.693 146.942L307.819 145.514L307.119 144.366L306.837 143.907L306.78 143.813C306.78 143.813 306.655 144.153 306.459 144.499C306.347 144.697 306.211 144.896 306.062 145.034C305.793 145.286 305.483 145.337 305.189 144.813C304.85 144.21 304.535 142.846 304.336 140.15C304.336 140.15 304.03 140.305 303.511 140.536C303.492 140.343 303.476 140.141 303.461 139.931C303.461 139.931 299.518 141.928 295.954 142.274C295.192 142.349 294.448 142.349 293.764 142.237C292.674 141.855 291.825 141.086 291.442 139.738C291.026 138.275 291.322 136.686 292.214 135.458C293.361 133.884 295.742 132.159 300.527 133.231C300.94 133.323 301.369 133.437 301.818 133.571C302.067 133.647 302.321 133.728 302.581 133.818C302.581 133.818 303.336 133.601 304.334 133.75C305.354 133.899 306.627 134.432 307.603 135.973C307.714 136.149 307.822 136.335 307.925 136.537C307.925 136.537 309.563 136.684 310.474 138.308C310.964 139.187 311.244 140.5 310.931 142.456Z" fill="#440C0C"/>
<path d="M322.762 198.057L320.895 197.213L320.915 198.057H322.762Z" fill="#BBBBBC"/>
<path d="M287.329 200.524L289.897 199.263L289.812 200.326L287.329 200.524Z" fill="#BBBBBC"/>
<path d="M292.179 199.263C292.179 199.263 288.118 200.631 287.329 200.524C287.329 200.524 286.722 213.568 288.512 214.186C288.569 214.206 288.63 214.213 288.694 214.206C290.707 213.989 292.396 214.208 292.396 214.208L292.179 199.263Z" fill="white"/>
<path d="M297.264 178.864C297.702 178.875 298.135 178.93 298.566 179C298.997 179.072 299.424 179.164 299.846 179.276C300.266 179.392 300.686 179.517 301.098 179.668C301.511 179.815 301.912 179.988 302.312 180.168H302.314L302.317 180.17L303.481 180.819L303.419 180.946C302.629 180.653 301.815 180.392 300.986 180.271C300.781 180.243 300.571 180.225 300.369 180.236C300.17 180.245 299.962 180.284 299.835 180.398C299.776 180.451 299.73 180.547 299.75 180.554C299.752 180.561 299.757 180.563 299.761 180.565C299.763 180.565 299.765 180.567 299.768 180.567L299.803 180.574L299.962 180.604C300.172 180.648 300.382 180.699 300.588 180.758C301.413 180.995 302.205 181.352 302.929 181.812C303.651 182.275 304.299 182.86 304.804 183.549L304.787 183.562C304.231 182.92 303.568 182.38 302.842 181.955C302.12 181.523 301.334 181.203 300.527 180.971C300.325 180.916 300.122 180.861 299.916 180.817L299.763 180.786L299.722 180.778C299.698 180.773 299.676 180.764 299.654 180.751C299.612 180.727 299.577 180.69 299.557 180.648C299.538 180.607 299.529 180.558 299.536 180.512C299.538 180.49 299.544 180.466 299.553 180.449L299.573 180.403C299.603 180.344 299.645 180.291 299.693 180.247C299.897 180.078 300.139 180.054 300.356 180.045C300.577 180.039 300.794 180.063 301.008 180.096C301.859 180.241 302.671 180.512 303.467 180.821L303.406 180.949L302.251 180.282L302.255 180.284C301.861 180.1 301.465 179.923 301.058 179.769C300.654 179.609 300.24 179.478 299.822 179.353C299.404 179.232 298.98 179.133 298.553 179.052C298.126 178.973 297.693 178.91 297.258 178.89L297.264 178.864Z" fill="#FF936D"/>
<path d="M295.477 177.715C295.952 177.542 296.448 177.441 296.949 177.371C297.45 177.307 297.958 177.281 298.463 177.288C298.969 177.303 299.479 177.323 299.975 177.428C300.225 177.474 300.47 177.544 300.713 177.61C300.956 177.682 301.194 177.772 301.428 177.864L301.422 177.884C301.17 177.849 300.925 177.794 300.68 177.752C300.43 177.717 300.19 177.658 299.94 177.636C299.448 177.559 298.954 177.494 298.457 177.456C297.958 177.428 297.459 177.432 296.96 177.476C296.464 177.518 295.963 177.59 295.483 177.735L295.477 177.715Z" fill="#FF936D"/>
<path d="M299.485 145.574L298.93 148.222C298.822 148.735 299.035 149.261 299.468 149.553L299.905 149.833L299.485 145.574Z" fill="#F55C2B"/>
<path d="M303.36 151.017C304.314 151.017 305.087 150.243 305.087 149.287C305.087 148.332 304.314 147.558 303.36 147.558C302.407 147.558 301.634 148.332 301.634 149.287C301.634 150.243 302.407 151.017 303.36 151.017Z" fill="#F55C2B"/>
<path d="M298.656 151.015C298.656 151.243 298.612 151.46 298.531 151.659C298.148 150.991 297.822 150.223 297.558 149.403C298.201 149.655 298.656 150.282 298.656 151.015Z" fill="#F55C2B"/>
<path d="M317.029 174.376H310.815V175.069H317.029V174.376Z" fill="#E4E9ED"/>
<path d="M310.056 142.237C310.056 142.237 310.325 147.264 309.865 148.862L308.828 147.163L308.693 146.942L307.819 145.514L307.119 144.366L306.837 143.907L306.78 143.813C306.78 143.813 306.655 144.153 306.459 144.499L306.244 144.146L305.962 143.688L305.905 143.594C305.905 143.594 305.596 144.433 305.189 144.813C304.85 144.21 304.535 142.846 304.336 140.15C304.336 140.15 304.03 140.305 303.511 140.536C303.492 140.343 303.476 140.141 303.461 139.931C303.461 139.931 299.518 141.928 295.954 142.274C295.192 142.349 294.448 142.349 293.764 142.237C292.674 141.855 291.825 141.086 291.442 139.738C291.026 138.275 291.322 136.686 292.214 135.458C293.361 133.884 295.742 132.159 300.527 133.231C300.905 133.336 301.299 133.459 301.706 133.599C301.706 133.599 301.745 133.588 301.818 133.571C302.152 133.5 303.187 133.334 304.334 133.75C305.148 134.044 306.017 134.632 306.728 135.754C306.839 135.93 306.946 136.116 307.049 136.318C307.049 136.318 308.688 136.464 309.598 138.089C310.088 138.968 310.369 140.281 310.056 142.237Z" fill="#5E1212"/>
<path d="M151.323 154.437H147.38L147.749 154.082C148.798 153.078 150.491 153.247 151.323 154.437Z" fill="#376F92"/>
<path d="M193.374 236.355C197.875 236.484 198.947 237.068 198.941 240.569C198.934 244.07 195.28 246.804 190.779 246.674C186.279 246.545 182.633 243.603 182.64 240.102C182.646 236.598 188.874 236.226 193.374 236.355Z" fill="#FF936D"/>
<path d="M194.094 254.534C194.094 254.534 174.995 254.904 176.041 245.55C176.041 245.55 178.17 236.52 181.08 234.272C181.08 234.272 181.095 234.29 181.121 234.325C181.176 234.257 181.231 234.189 181.285 234.128C181.485 234.025 181.832 233.882 182.336 233.816C182.87 234.487 183.994 235.93 185.077 237.526C186.405 239.481 187.67 241.667 187.71 242.934C187.71 242.934 186.878 246.547 191.648 244.083C191.648 244.083 199.514 239.339 196.319 244.71C196.319 244.71 193.753 251.217 194.974 253.242C194.974 253.242 194.525 253.251 193.773 253.236C193.799 253.751 193.897 254.203 194.094 254.534Z" fill="#5E1212"/>
<path d="M192.808 240.968C193.718 240.968 194.455 240.229 194.455 239.317C194.455 238.405 193.718 237.666 192.808 237.666C191.898 237.666 191.16 238.405 191.16 239.317C191.16 240.229 191.898 240.968 192.808 240.968Z" fill="#F55C2B"/>
<path d="M189.915 236.388L192.302 235.594C192.302 235.594 193.757 235.5 193.377 236.355L189.915 236.388Z" fill="#F55C2B"/>
<path d="M189.342 246.703C190.589 246.532 191.158 244.78 190.987 243.531C190.817 242.281 189.668 241.404 188.418 241.575C187.171 241.746 185.692 244.432 185.863 245.681C186.033 246.931 188.095 246.872 189.342 246.703Z" fill="#FF936D"/>
<path d="M189.598 243.04C189.598 243.04 187.587 242.855 188.051 244.625L189.598 243.04Z" fill="#F55C2B"/>
<path opacity="0.5" d="M297.785 135.232C299.239 135.232 300.417 134.893 300.417 134.474C300.417 134.055 299.239 133.715 297.785 133.715C296.331 133.715 295.153 134.055 295.153 134.474C295.153 134.893 296.331 135.232 297.785 135.232Z" fill="white"/>
<path d="M309.408 143.875C309.609 144.874 308.428 145.773 307.43 145.977C306.432 146.179 305.461 145.534 305.257 144.535C305.056 143.535 306.706 141.691 307.703 141.487C308.701 141.286 309.204 142.875 309.408 143.875Z" fill="#FF936D"/>
<path d="M306.592 145.387C306.592 145.387 306.181 142.897 307.542 142.978L306.592 145.387Z" fill="#F55C2B"/>
<path opacity="0.3" d="M293.37 135.697C293.37 135.697 290.164 140.737 295.654 141.231" stroke="#F55C2B" stroke-miterlimit="10" stroke-linecap="round"/>
<path d="M53.8587 274.911H45.3276V305.09H53.8587V274.911Z" fill="#FFAA03"/>
<path d="M292.017 226.275C292.044 226.571 292.628 238.109 292.628 238.109L288.694 237.912L292.017 226.275Z" fill="#B3B7BA"/>
<path d="M96.6085 192.715H67.4596C67.011 192.715 66.6478 192.351 66.6478 191.901C66.6478 191.452 67.011 191.088 67.4596 191.088H96.6085C97.0571 191.088 97.4203 191.452 97.4203 191.901C97.4203 192.353 97.0571 192.715 96.6085 192.715Z" fill="#4BADB6"/>
<path d="M96.1294 196.659H66.9804C66.5318 196.659 66.1686 196.295 66.1686 195.846C66.1686 195.396 66.5318 195.032 66.9804 195.032H96.1294C96.5779 195.032 96.9411 195.396 96.9411 195.846C96.9411 196.295 96.5779 196.659 96.1294 196.659Z" fill="#4BADB6"/>
<path d="M95.6502 200.603H66.5012C66.0527 200.603 65.6894 200.239 65.6894 199.789C65.6894 199.34 66.0527 198.976 66.5012 198.976H95.6502C96.0987 198.976 96.462 199.34 96.462 199.789C96.462 200.239 96.0987 200.603 95.6502 200.603Z" fill="#4BADB6"/>
<path d="M93.0355 214.965H68.1575C66.5296 214.965 65.2103 213.643 65.2103 212.012C65.2103 210.381 66.5296 209.059 68.1575 209.059H93.0355C94.6634 209.059 95.9828 210.381 95.9828 212.012C95.9828 213.643 94.6634 214.965 93.0355 214.965Z" fill="#BDE2FC"/>
<path d="M95.171 204.547H66.0242C65.5756 204.547 65.2124 204.183 65.2124 203.733C65.2124 203.284 65.5756 202.92 66.0242 202.92H95.1732C95.6217 202.92 95.9849 203.284 95.9849 203.733C95.9828 204.183 95.6195 204.547 95.171 204.547Z" fill="#4BADB6"/>
<path d="M70.1093 224.567C71.9002 224.567 73.3519 223.112 73.3519 221.318C73.3519 219.523 71.9002 218.069 70.1093 218.069C68.3184 218.069 66.8666 219.523 66.8666 221.318C66.8666 223.112 68.3184 224.567 70.1093 224.567Z" fill="#7CC8FC"/>
<path d="M69.8905 224.567C71.6813 224.567 73.1331 223.112 73.1331 221.318C73.1331 219.523 71.6813 218.069 69.8905 218.069C68.0996 218.069 66.6478 219.523 66.6478 221.318C66.6478 223.112 68.0996 224.567 69.8905 224.567Z" fill="#FFBA55"/>
<path d="M127.162 153.139C127.162 153.139 99.3939 166.563 99.4333 236.388L101.333 305.09" stroke="white" stroke-miterlimit="10"/>
<path d="M95.171 204.547H66.0242C65.5756 204.547 65.2124 204.183 65.2124 203.733C65.2124 203.284 65.5756 202.92 66.0242 202.92H95.1732C95.6217 202.92 95.9849 203.284 95.9849 203.733C95.9828 204.183 95.6195 204.547 95.171 204.547Z" fill="#4BADB6"/>
<defs>
<linearGradient id="paint0_linear_14_233" x1="158.619" y1="231.637" x2="185.012" y2="231.637" gradientUnits="userSpaceOnUse">
<stop stop-color="white"/>
<stop offset="0.1353" stop-color="#CBCBCB"/>
<stop offset="0.3112" stop-color="#8E8E8E"/>
<stop offset="0.4804" stop-color="#5B5B5B"/>
<stop offset="0.6383" stop-color="#343434"/>
<stop offset="0.7822" stop-color="#171717"/>
<stop offset="0.9074" stop-color="#060606"/>
<stop offset="1"/>
</linearGradient>
<linearGradient id="paint1_linear_14_233" x1="194.398" y1="228.469" x2="146.489" y2="230.224" gradientUnits="userSpaceOnUse">
<stop stop-color="#92C9CE"/>
<stop offset="0.00220531" stop-color="#92C9CE"/>
<stop offset="0.3036" stop-color="#6BA2B4"/>
<stop offset="0.5804" stop-color="#4E86A1"/>
<stop offset="0.8215" stop-color="#3D7596"/>
<stop offset="1" stop-color="#376F92"/>
</linearGradient>
</defs>
</svg>
