<svg width="36" height="37" viewBox="0 0 36 37" fill="none" xmlns="http://www.w3.org/2000/svg">
<path d="M34.177 0H16.2191C15.721 0 15.3158 0.405193 15.3158 0.90332V4.51118C15.3158 4.81058 15.5584 5.05317 15.8578 5.05317C16.1571 5.05317 16.3997 4.81058 16.3997 4.51118V1.08398H33.9963V14.0429H16.3997V7.04048C16.3997 6.74108 16.1571 6.49849 15.8578 6.49849C15.5584 6.49849 15.3158 6.74108 15.3158 7.04048V14.2236C15.3158 14.7217 15.721 15.1269 16.2191 15.1269H17.0061V20.7677H14.6387C14.3399 20.7677 14.0967 20.5246 14.0967 20.2257V12.5627C14.0967 11.6661 13.3673 10.9367 12.4707 10.9367H6.17712V10.6736C6.17712 10.0667 5.68369 9.57303 5.07724 9.57303H3.41946C2.81258 9.57303 2.31886 10.0667 2.31886 10.6736V14.8175C0.848904 16.1723 0 18.0673 0 20.0932C0 22.5568 1.25453 24.8277 3.35573 26.1677C3.62679 26.3406 3.93739 26.427 4.24814 26.427C4.55873 26.427 4.86947 26.3406 5.1404 26.1677C7.24174 24.8276 8.49627 22.5568 8.49627 20.0932C8.49627 18.0673 7.64722 16.1721 6.17712 14.8173V14.2334H9.99781C10.2967 14.2334 10.5398 14.4765 10.5398 14.7754V23.3259C10.5398 24.2224 11.2692 24.9519 12.1658 24.9519H17.0061V33.1125C17.0061 33.6106 17.4112 34.0158 17.9094 34.0158H19.292C19.1414 34.2996 19.0557 34.6228 19.0557 34.9659C19.0557 36.0875 19.9682 36.9999 21.0898 36.9999C22.2113 36.9999 23.1238 36.0874 23.1238 34.9659C23.1238 34.6228 23.0381 34.2996 22.8875 34.0158H27.5084C27.3578 34.2996 27.2721 34.6228 27.2721 34.9659C27.2721 36.0875 28.1846 36.9999 29.3062 36.9999C30.4278 36.9999 31.3403 36.0874 31.3403 34.9659C31.3403 34.6228 31.2546 34.2996 31.104 34.0158H32.4866C32.9847 34.0158 33.3899 33.6106 33.3899 33.1125V27.7473C33.3899 27.4479 33.1473 27.2053 32.8479 27.2053C32.5485 27.2053 32.3059 27.4479 32.3059 27.7473V32.9318H18.09V24.9519H22.9001V25.8313H21.7376C21.2396 25.8313 20.8344 26.2365 20.8344 26.7346V30.8587C20.8344 31.3568 21.2396 31.762 21.7376 31.762H28.6584C29.1566 31.762 29.5618 31.3568 29.5618 30.8587V26.7346C29.5618 26.2365 29.1566 25.8313 28.6584 25.8313H27.496V24.9519H28.69C29.1882 24.9519 29.5934 24.5467 29.5934 24.0486V19.906C30.35 19.6737 30.9017 18.9686 30.9017 18.1368C30.9017 17.1165 30.0717 16.2865 29.0514 16.2865C28.0312 16.2865 27.2011 17.1165 27.2011 18.1368C27.2011 18.9686 27.7528 19.6737 28.5094 19.906V23.8679H27.4961V22.8065C27.4961 22.3088 27.0912 21.904 26.5935 21.904H23.8027C23.305 21.904 22.9001 22.3089 22.9001 22.8065V23.8679H18.09V21.8517H20.9836C21.4817 21.8517 21.8868 21.4465 21.8868 20.9484V19.906C22.6433 19.6737 23.195 18.9686 23.195 18.1368C23.195 17.1165 22.3649 16.2865 21.3447 16.2865C20.3244 16.2865 19.4944 17.1165 19.4944 18.1368C19.4944 18.9686 20.0462 19.6738 20.8029 19.9061V20.7678H18.0901V15.127H32.3061V25.218C32.3061 25.5174 32.5487 25.76 32.8481 25.76C33.1475 25.76 33.3901 25.5174 33.3901 25.218V15.1269H34.1771C34.6752 15.1269 35.0804 14.7217 35.0804 14.2236V0.90332C35.0803 0.405193 34.6751 0 34.177 0V0ZM22.0399 34.9659C22.0399 35.4899 21.6138 35.916 21.0899 35.916C20.5659 35.916 20.1398 35.4899 20.1398 34.9659C20.1398 34.442 20.5659 34.0159 21.0899 34.0159C21.6138 34.0159 22.0399 34.442 22.0399 34.9659ZM30.2565 34.9659C30.2565 35.4899 29.8302 35.916 29.3063 35.916C28.7824 35.916 28.3562 35.4899 28.3562 34.9659C28.3562 34.442 28.7824 34.0159 29.3063 34.0159C29.8302 34.0159 30.2565 34.442 30.2565 34.9659ZM29.0514 17.3704C29.474 17.3704 29.8177 17.7142 29.8177 18.1367C29.8177 18.5593 29.4739 18.9031 29.0514 18.9031C28.6288 18.9031 28.2851 18.5593 28.2851 18.1367C28.2851 17.7142 28.6288 17.3704 29.0514 17.3704ZM28.4778 30.6781H21.9184V26.9153H28.4778V30.6781ZM23.9841 22.988H26.412V25.8313H23.9841V22.988ZM21.3447 17.3704C21.7673 17.3704 22.111 17.7142 22.111 18.1367C22.111 18.5593 21.7673 18.9031 21.3448 18.9031C20.9221 18.9031 20.5783 18.5593 20.5783 18.1367C20.5783 17.7142 20.9221 17.3704 21.3447 17.3704ZM3.41946 10.657H5.07724C5.08584 10.657 5.09314 10.6646 5.09314 10.6736V13.9909C4.57369 13.6836 3.92229 13.6836 3.40284 13.9911V10.6736C3.40284 10.6643 3.41014 10.657 3.41946 10.657ZM7.41229 20.0932C7.41229 22.1846 6.34507 24.1137 4.5575 25.2537C4.36954 25.3737 4.12673 25.3735 3.93869 25.2537C2.1512 24.1138 1.08406 22.1846 1.08406 20.0932C1.08406 18.0545 2.04721 16.1389 3.93869 14.9326C4.03271 14.8727 4.14046 14.8427 4.24814 14.8427C4.35588 14.8427 4.46356 14.8727 4.55758 14.9326C6.46206 16.1472 7.41229 18.0592 7.41229 20.0932ZM17.0061 23.8679H12.1658C11.867 23.8679 11.6238 23.6248 11.6238 23.3259V14.7754C11.6238 13.8789 10.8944 13.1495 9.99781 13.1495H6.17712V12.0207H12.4707C12.7696 12.0207 13.0127 12.2638 13.0127 12.5627V20.2257C13.0127 21.1222 13.7421 21.8517 14.6387 21.8517H17.0061V23.8679Z" fill="url(#paint0_linear_9_13)"/>
<path d="M27.3199 12.7231C27.8521 12.7231 28.285 12.2901 28.285 11.7579V3.36923C28.285 2.837 27.8521 2.40405 27.3199 2.40405H18.6849C18.1527 2.40405 17.7197 2.837 17.7197 3.36923V11.7578C17.7197 12.2901 18.1527 12.723 18.6849 12.723H27.3199V12.7231ZM18.8036 3.48804H27.201V11.6391H18.8036V3.48804Z" fill="url(#paint1_linear_9_13)"/>
<path d="M31.1407 6.84923C32.1281 6.84923 32.9314 6.04593 32.9314 5.05856C32.9314 4.07113 32.1281 3.26782 31.1407 3.26782C30.1533 3.26782 29.35 4.07113 29.35 5.05856C29.35 6.04593 30.1533 6.84923 31.1407 6.84923ZM31.1407 4.35181C31.5304 4.35181 31.8475 4.66891 31.8475 5.05856C31.8475 5.44822 31.5304 5.76525 31.1407 5.76525C30.751 5.76525 30.434 5.44822 30.434 5.05856C30.434 4.66891 30.751 4.35181 31.1407 4.35181Z" fill="url(#paint2_linear_9_13)"/>
<path d="M31.1407 11.8592C32.1281 11.8592 32.9314 11.0559 32.9314 10.0686C32.9314 9.08114 32.1281 8.27783 31.1407 8.27783C30.1533 8.27783 29.35 9.08114 29.35 10.0686C29.35 11.0559 30.1533 11.8592 31.1407 11.8592ZM31.1407 9.36182C31.5304 9.36182 31.8475 9.67892 31.8475 10.0686C31.8475 10.4582 31.5304 10.7753 31.1407 10.7753C30.751 10.7753 30.434 10.4582 30.434 10.0686C30.434 9.67892 30.751 9.36182 31.1407 9.36182Z" fill="url(#paint3_linear_9_13)"/>
<path d="M23.5702 9.82317C23.3393 9.82317 23.1336 9.6769 23.058 9.45851L22.2855 7.22753L22.2101 7.37553C22.1177 7.55728 21.931 7.67167 21.7271 7.67167H20.3801C20.0807 7.67167 19.8381 7.42908 19.8381 7.12968C19.8381 6.83028 20.0807 6.58769 20.3801 6.58769H21.3948L21.8976 5.60003C21.9961 5.40629 22.2 5.29059 22.4178 5.30519C22.6346 5.32015 22.8216 5.46324 22.8927 5.66854L23.5589 7.5924L23.7687 6.95913C23.8423 6.73735 24.0496 6.58762 24.2832 6.58762H25.6246C25.924 6.58762 26.1666 6.83021 26.1666 7.12961C26.1666 7.42901 25.924 7.6716 25.6246 7.6716H24.6746L24.0846 9.45165C24.0115 9.6722 23.8061 9.82158 23.5738 9.82317C23.5726 9.82317 23.5714 9.82317 23.5702 9.82317Z" fill="url(#paint4_linear_9_13)"/>
<defs>
<linearGradient id="paint0_linear_9_13" x1="17.5402" y1="0" x2="17.5402" y2="36.9999" gradientUnits="userSpaceOnUse">
<stop stop-color="#27C8DA"/>
<stop offset="1" stop-color="#24BFD0"/>
</linearGradient>
<linearGradient id="paint1_linear_9_13" x1="23.0024" y1="2.40405" x2="23.0024" y2="12.7231" gradientUnits="userSpaceOnUse">
<stop stop-color="#27C8DA"/>
<stop offset="1" stop-color="#24BFD0"/>
</linearGradient>
<linearGradient id="paint2_linear_9_13" x1="31.1407" y1="3.26782" x2="31.1407" y2="6.84923" gradientUnits="userSpaceOnUse">
<stop stop-color="#27C8DA"/>
<stop offset="1" stop-color="#24BFD0"/>
</linearGradient>
<linearGradient id="paint3_linear_9_13" x1="31.1407" y1="8.27783" x2="31.1407" y2="11.8592" gradientUnits="userSpaceOnUse">
<stop stop-color="#27C8DA"/>
<stop offset="1" stop-color="#24BFD0"/>
</linearGradient>
<linearGradient id="paint4_linear_9_13" x1="23.0023" y1="5.30396" x2="23.0023" y2="9.82317" gradientUnits="userSpaceOnUse">
<stop stop-color="#27C8DA"/>
<stop offset="1" stop-color="#24BFD0"/>
</linearGradient>
</defs>
</svg>
