<svg width="37" height="37" viewBox="0 0 37 37" fill="none" xmlns="http://www.w3.org/2000/svg">
<path d="M12.8943 14.1919C13.2542 14.1561 13.5169 13.8353 13.4811 13.4754C13.4453 13.1155 13.1245 12.8527 12.7646 12.8885C12.4047 12.9243 12.1419 13.2451 12.1778 13.605C12.2136 13.9649 12.5344 14.2277 12.8943 14.1919Z" fill="url(#paint0_linear_9_62)"/>
<path d="M17.3525 14.1899C17.7124 14.1541 17.9752 13.8333 17.9393 13.4734C17.9035 13.1135 17.5827 12.8508 17.2228 12.8866C16.8629 12.9224 16.6002 13.2432 16.636 13.6031C16.6718 13.963 16.9926 14.2257 17.3525 14.1899Z" fill="url(#paint1_linear_9_62)"/>
<path d="M15.9534 15.8672H13.9858C13.6839 15.8672 13.4392 16.1119 13.4392 16.4137C13.4392 16.7157 13.6839 16.9603 13.9858 16.9603H15.9534C16.2553 16.9603 16.5 16.7156 16.5 16.4137C16.5 16.1119 16.2553 15.8672 15.9534 15.8672Z" fill="url(#paint2_linear_9_62)"/>
<path d="M35.9712 5.84615H34.3201V4.46833H36.4529C36.7547 4.46833 36.9994 4.22364 36.9994 3.92179C36.9994 3.61994 36.7547 3.37524 36.4529 3.37524H8.3607C8.05885 3.37524 7.81415 3.61994 7.81415 3.92179C7.81415 4.22364 8.05885 4.46833 8.3607 4.46833H33.227V5.84615H31.576C31.009 5.84615 30.5478 6.30749 30.5478 6.87442V11.6301C30.5602 12.1609 30.6621 12.7125 31.0155 13.3016C31.3103 13.7863 31.7295 14.1874 32.2281 14.4608L31.8711 15.0347C31.3387 15.8906 31.2892 16.9818 31.7419 17.8824L33.2264 20.8356C33.5854 21.55 33.4299 22.4305 32.8481 22.9785L30.1312 25.4366V14.8977C30.1312 14.056 29.4464 13.3712 28.6047 13.3712H27.0248C26.9838 13.1039 26.9226 12.8402 26.8415 12.582C26.7709 12.3576 26.7599 12.117 26.8097 11.8862L27.2126 10.017C27.2892 9.66156 27.1816 9.29597 26.9245 9.03885C26.6675 8.7818 26.3017 8.67376 25.9463 8.75065C25.3798 8.8253 23.9929 9.31692 23.4154 9.10497C23.1999 9.03343 22.9778 8.97525 22.7555 8.93189C22.4594 8.87466 22.1723 9.06775 22.1146 9.36404C22.0569 9.66033 22.2504 9.9473 22.5467 10.005C22.7233 10.0394 22.8997 10.0856 23.0712 10.1425C23.485 10.2798 23.9304 10.3036 24.3594 10.211L26.1351 9.8282L25.7411 11.6559C25.5361 12.4395 26.0094 13.2839 25.994 14.1894V19.8424C25.994 20.2826 25.927 20.7166 25.795 21.1326C25.7529 21.2652 25.7236 21.401 25.7047 21.5382C24.4731 20.448 22.8551 19.785 21.0848 19.785H18.7396V19.2479C19.4998 18.5137 20.0437 17.5521 20.2572 16.4627C21.0471 16.1976 21.7181 15.3891 21.967 14.6237C22.3431 13.4674 21.8122 12.2544 20.7837 11.9199C20.7837 11.9198 20.7837 11.9198 20.7837 11.9198C20.6715 11.8834 20.5238 11.8512 20.3582 11.8536V9.24957C20.3582 7.66233 19.0669 6.37094 17.4795 6.37094H12.6291C11.1832 6.37094 9.98328 7.44271 9.78101 8.83339H8.37754C7.60444 8.75484 6.82332 9.22305 5.97962 9.14247L4.16221 8.75058C3.80681 8.6739 3.44107 8.7818 3.1841 9.03885C2.92705 9.29597 2.81937 9.66156 2.89597 10.017L3.29893 11.8863C3.34872 12.1171 3.33773 12.3576 3.26713 12.5821C3.18597 12.8402 3.12484 13.1039 3.08379 13.3712H1.69694V5.64612C1.69694 4.99674 2.22528 4.46833 2.87465 4.46833H5.84651C6.14836 4.46833 6.39305 4.22364 6.39305 3.92179C6.39305 3.61994 6.14836 3.37524 5.84651 3.37524H2.87465C1.62251 3.37524 0.603779 4.39397 0.603779 5.64612V13.6845C0.237682 13.9636 0 14.4028 0 14.8977L0.0135859 32.6691C0.0135859 33.1961 0.44241 33.625 0.969443 33.625H29.1669C29.694 33.625 30.1228 33.1962 30.1228 32.6691L30.1312 26.9107L33.5853 23.7856C33.5877 23.7834 33.5901 23.7812 33.5924 23.779C34.5276 22.9023 34.7786 21.49 34.203 20.3446L32.7185 17.3914C32.4356 16.8286 32.4666 16.1469 32.7992 15.6121L33.292 14.8199C33.4492 14.8435 33.6099 14.8559 33.7736 14.8559C33.7736 14.8559 33.9372 14.8559 33.7736 14.8559C34.9409 14.8559 35.9653 14.2327 36.5317 13.3016C36.7399 12.9943 37.0134 12.2516 36.9994 11.6301V6.87449C36.9995 6.30749 36.5382 5.84615 35.9712 5.84615ZM29.0381 14.8977V26.4255L28.4407 26.966C28.3161 26.8534 28.1897 26.7433 28.061 26.6365C28.0376 25.3259 27.6512 24.1026 26.9981 23.0627C26.9176 22.5868 26.6744 21.993 26.8369 21.4633C27.0029 20.9403 27.0871 20.3949 27.0871 19.8423V14.4643H28.6047C28.8437 14.4643 29.0381 14.6587 29.0381 14.8977ZM12.4623 20.0609C13.2319 20.4929 14.1173 20.7384 15.0543 20.7384C15.9914 20.7384 16.8767 20.4929 17.6463 20.0609V21.0534C17.6463 21.3007 17.4451 21.502 17.1978 21.502H12.9108C12.6635 21.502 12.4623 21.3007 12.4623 21.0534V20.0609ZM20.4455 12.9593C20.9009 13.1073 21.117 13.7024 20.9274 14.2856C20.7415 14.857 20.1578 15.4381 19.7489 15.4588C19.4829 15.4721 19.2652 15.6754 19.2336 15.9398C18.9812 18.0522 17.1845 19.6453 15.0544 19.6453C12.9242 19.6453 11.1275 18.0522 10.8751 15.9398C10.8435 15.6753 10.6259 15.4721 10.3599 15.4588C9.9509 15.4381 9.36714 14.8571 9.18135 14.2856C8.99165 13.7024 9.20787 13.1073 9.66314 12.9593C9.68605 12.9519 9.70404 12.946 9.7211 12.946C9.75673 12.946 9.78823 12.9715 9.85204 13.061C9.99 13.2548 10.2371 13.3373 10.4636 13.2646C10.7458 13.1844 10.8976 12.7865 10.8438 12.4066C10.8438 11.2487 11.7859 10.3066 12.9439 10.3066H17.165C18.3229 10.3066 19.2651 11.2487 19.2651 12.4066C19.2527 12.6976 19.231 13.0861 19.6453 13.2646C19.8717 13.3373 20.119 13.2548 20.2568 13.061C20.351 12.9287 20.3749 12.9364 20.4455 12.9593ZM10.8437 9.2495C10.8437 8.26495 11.6447 7.46403 12.6291 7.46403H17.4795C18.4639 7.46403 19.2649 8.26495 19.2649 9.2495V10.004C18.7031 9.51233 17.9683 9.21351 17.1648 9.21351H12.9438C12.1403 9.21351 11.4055 9.51233 10.8437 10.004V9.2495ZM5.74924 10.211C6.17821 10.3033 6.62365 10.2796 7.03759 10.1424C7.46916 9.99918 7.92002 9.92648 8.37761 9.92648H9.75058V11.8534C9.5851 11.851 9.43717 11.8832 9.32501 11.9198C8.29653 12.2543 7.76566 13.4672 8.14173 14.6237C8.39062 15.3892 9.06153 16.1976 9.85154 16.4626C10.0651 17.552 10.609 18.5136 11.3692 19.2478V19.785H9.02395C7.25373 19.785 5.63563 20.4479 4.40408 21.5382C4.38515 21.401 4.35581 21.2651 4.31375 21.1326C4.18172 20.7167 4.11473 20.2825 4.11473 19.8424V14.1894C4.06841 13.4077 4.57015 12.5554 4.36766 11.6559L3.97367 9.8282L5.74924 10.211ZM1.09316 14.8977C1.09316 14.6587 1.28756 14.4643 1.52661 14.4643H3.0215V19.8424C3.0215 20.395 3.10569 20.9403 3.27175 21.4633C3.43695 21.7966 3.18583 22.7019 3.11038 23.0628C2.45653 24.1041 2.06998 25.3291 2.0475 26.6415C1.82912 26.8231 1.61644 27.0127 1.40997 27.2104C1.29825 27.3174 1.1926 27.4299 1.09309 27.5472V14.8977H1.09316ZM29.0297 32.5318H1.10675V30.485C1.10675 29.5505 1.49294 28.6447 2.16616 27.9998C3.67716 26.5524 5.55463 25.5751 7.59548 25.1732C7.89162 25.1149 8.0845 24.8276 8.02618 24.5314C7.96786 24.2351 7.68039 24.0421 7.38432 24.1007C5.89586 24.3937 4.48755 24.9663 3.22247 25.7814C3.69118 23.0023 6.11346 20.8781 9.02381 20.8781H11.369V21.0534C11.369 21.9036 12.0606 22.5952 12.9108 22.5952H17.1977C18.0478 22.5952 18.7393 21.9036 18.7393 21.0534V20.8781H21.0846C23.9925 20.8781 26.4129 22.9986 26.8846 25.7743C24.9644 24.5382 22.7268 23.8743 20.397 23.8743H10.0391C9.73729 23.8743 9.4926 24.1189 9.4926 24.4208C9.4926 24.7227 9.73729 24.9673 10.0391 24.9673H20.3972C22.878 24.9673 25.2439 25.7951 27.1655 27.3174C27.1706 27.3216 27.1759 27.3255 27.1811 27.3296C27.4557 27.5479 27.7211 27.7804 27.9764 28.0266C28.6459 28.6723 29.0298 29.576 29.0298 30.5061V32.5318H29.0297ZM35.9063 6.93931V8.44699H31.6409V6.93931H35.9063ZM35.7385 12.4595C35.527 13.083 34.6045 13.8084 33.7736 13.7628C32.5976 13.7628 31.6409 12.8061 31.6409 11.6301V9.54008H35.9063V11.6301C35.8754 11.9227 35.9208 11.968 35.7385 12.4595Z" fill="url(#paint3_linear_9_62)"/>
<defs>
<linearGradient id="paint0_linear_9_62" x1="12.7646" y1="12.8885" x2="12.8943" y2="14.1919" gradientUnits="userSpaceOnUse">
<stop stop-color="#27C8DA"/>
<stop offset="1" stop-color="#24BFD0"/>
</linearGradient>
<linearGradient id="paint1_linear_9_62" x1="17.2228" y1="12.8866" x2="17.3525" y2="14.1899" gradientUnits="userSpaceOnUse">
<stop stop-color="#27C8DA"/>
<stop offset="1" stop-color="#24BFD0"/>
</linearGradient>
<linearGradient id="paint2_linear_9_62" x1="14.9696" y1="15.8672" x2="14.9696" y2="16.9603" gradientUnits="userSpaceOnUse">
<stop stop-color="#27C8DA"/>
<stop offset="1" stop-color="#24BFD0"/>
</linearGradient>
<linearGradient id="paint3_linear_9_62" x1="18.5" y1="3.37524" x2="18.5" y2="33.625" gradientUnits="userSpaceOnUse">
<stop stop-color="#27C8DA"/>
<stop offset="1" stop-color="#24BFD0"/>
</linearGradient>
</defs>
</svg>
