<svg width="580" height="569" viewBox="0 0 580 569" fill="none" xmlns="http://www.w3.org/2000/svg">
<path d="M393.663 177.429C367.83 164.567 339.178 141.365 336.906 101.323C332.694 27.2644 437.961 66.3389 455.643 123.398C455.82 123.974 455.992 124.54 456.158 125.095C467.154 162.334 428.453 194.76 393.663 177.429Z" fill="#DCF4FE"/>
<path d="M396.581 441.825C392.486 444.602 388.162 447.289 383.609 449.884C382.544 450.489 381.463 451.089 380.366 451.685C379.657 452.074 378.942 452.459 378.221 452.841C358.503 463.306 334.657 472.032 306.109 478.353C301.624 479.345 297.022 480.281 292.304 481.161C290.798 481.437 289.28 481.709 287.751 481.975C287.425 482.031 287.102 482.089 286.767 482.143C268.617 485.249 251.484 486.65 235.357 486.542C235.07 486.542 234.787 486.542 234.493 486.542C233.803 486.542 233.113 486.527 232.43 486.512L231.565 486.495C230.832 486.48 230.103 486.46 229.375 486.439C228.646 486.417 227.926 486.391 227.213 486.363L226.367 486.329C226.108 486.329 225.851 486.305 225.593 486.294L224.698 486.253L223.978 486.216L223.085 486.167C222.668 486.145 222.255 486.121 221.84 486.095L220.376 486L219.358 485.929C217.356 485.785 215.37 485.617 213.399 485.426L212.474 485.335C210.286 485.115 208.119 484.864 205.973 484.582C205.592 484.532 205.209 484.482 204.829 484.428C204.36 484.366 203.895 484.301 203.432 484.234C203.11 484.188 202.783 484.143 202.466 484.093C202.148 484.044 201.785 483.994 201.447 483.942C200.193 483.752 198.948 483.552 197.711 483.342L196.749 483.178L195.417 482.942L194.336 482.742C193.19 482.527 192.05 482.305 190.916 482.076L189.783 481.841C189.482 481.781 189.18 481.716 188.879 481.651C187.409 481.339 185.949 481.01 184.501 480.666L183.636 480.45C181.715 479.985 179.813 479.497 177.93 478.984C177.673 478.917 177.418 478.846 177.161 478.768C176.594 478.613 176.03 478.451 175.468 478.291C175.109 478.19 174.748 478.086 174.387 477.98L173.319 477.665L172.404 477.39C171.797 477.205 171.192 477.017 170.588 476.827C170.088 476.671 169.587 476.511 169.087 476.349L169.02 476.328C168.804 476.257 168.588 476.19 168.372 476.112C167.911 475.963 167.451 475.809 166.992 475.656C166.534 475.503 166.067 475.343 165.604 475.181C165.377 475.105 165.15 475.026 164.923 474.946C164.835 474.918 164.75 474.887 164.662 474.853C164.281 474.723 163.905 474.589 163.527 474.453C163.47 474.436 163.412 474.412 163.356 474.391C162.85 474.211 162.348 474.03 161.842 473.844C161.209 473.611 160.58 473.378 159.953 473.138C159.376 472.922 158.808 472.703 158.249 472.479L157.799 472.302C157.367 472.134 156.945 471.966 156.519 471.793L156.491 471.782C155.929 471.555 155.368 471.326 154.809 471.095C154.333 470.899 153.858 470.698 153.384 470.497L152.855 470.281C152.523 470.137 152.192 469.993 151.862 469.849L151.214 469.571C150.781 469.378 150.349 469.186 149.916 468.99C148.718 468.454 147.53 467.906 146.351 467.344C145.94 467.154 145.532 466.958 145.125 466.759L144.476 466.45L143.231 465.837C142.76 465.601 142.286 465.364 141.819 465.124C141.657 465.044 141.495 464.96 141.335 464.878L140.916 464.662L140.183 464.282C139.259 463.803 138.338 463.312 137.428 462.816L136.767 462.453C136.706 462.42 136.645 462.388 136.585 462.351C136.168 462.125 135.75 461.893 135.337 461.66C134.834 461.377 134.332 461.094 133.824 460.807C132.959 460.316 132.106 459.817 131.264 459.311C131.015 459.164 130.769 459.017 130.52 458.866L130.488 458.846C130.066 458.593 129.647 458.338 129.232 458.082C128.886 457.87 128.542 457.654 128.2 457.434L127.867 457.218L127.746 457.143L127.115 456.745C126.296 456.227 125.483 455.701 124.674 455.169C124.35 454.961 124.026 454.745 123.703 454.521L123.58 454.439C123.338 454.277 123.094 454.115 122.854 453.951C122.752 453.886 122.652 453.817 122.551 453.748C122.082 453.435 121.617 453.115 121.15 452.791L120.988 452.679L120.255 452.169L119.39 451.564L118.821 451.161C118.529 450.945 118.242 450.746 117.956 450.534C117.74 450.379 117.524 450.226 117.308 450.066C116.958 449.811 116.608 449.554 116.259 449.295C115.87 449.007 115.483 448.719 115.098 448.431L114.581 448.038C114.214 447.757 113.844 447.476 113.477 447.191C113.067 446.876 112.66 446.559 112.255 446.241C111.92 445.976 111.585 445.712 111.252 445.444C111.016 445.259 110.787 445.075 110.556 444.887C110.123 444.546 109.699 444.2 109.284 443.851C108.945 443.576 108.61 443.298 108.277 443.021L107.948 442.745C107.568 442.425 107.187 442.097 106.811 441.782C106.435 441.467 106.056 441.134 105.68 440.812C105.464 440.618 105.226 440.421 105.001 440.218C104.776 440.015 104.526 439.804 104.29 439.594C103.412 438.818 102.542 438.034 101.68 437.242C101.417 437.001 101.154 436.757 100.893 436.513C100.677 436.316 100.461 436.113 100.245 435.91C100.028 435.707 99.8274 435.521 99.622 435.323C99.4166 435.124 99.2069 434.932 98.9993 434.731L98.195 433.958C98.0329 433.802 97.8729 433.647 97.7107 433.485C97.408 433.189 97.1032 432.891 96.8005 432.591C96.7745 432.565 96.7443 432.537 96.7162 432.507C96.3356 432.131 95.9551 431.749 95.5768 431.368C94.7797 430.565 93.9927 429.756 93.2158 428.941C92.8374 428.544 92.4569 428.142 92.0807 427.741C92.0673 427.729 92.055 427.716 92.0439 427.702C91.7441 427.381 91.4443 427.058 91.1445 426.734C91.004 426.587 90.8656 426.436 90.7337 426.289C90.4267 425.959 90.1261 425.626 89.8234 425.292C89.7824 425.246 89.7391 425.201 89.7024 425.156C89.3449 424.762 88.9911 424.368 88.6408 423.972C87.8942 423.134 87.1576 422.29 86.4312 421.439C86.0614 421.007 85.6982 420.575 85.335 420.143C84.9717 419.711 84.615 419.279 84.2539 418.848C83.9793 418.517 83.7091 418.185 83.4367 417.852C83.2659 417.636 83.0951 417.431 82.9286 417.221C82.7621 417.012 82.5718 416.79 82.3967 416.558C82.2216 416.327 82.0313 416.109 81.8584 415.88C81.6335 415.6 81.4108 415.317 81.1903 415.034C81.0908 414.913 80.9957 414.788 80.9049 414.667C80.6216 414.308 80.3449 413.948 80.066 413.587C79.3828 412.699 78.7096 411.805 78.0466 410.907C77.7136 410.458 77.3829 410.004 77.0542 409.553C76.7796 409.179 76.5094 408.801 76.2391 408.426C76.1375 408.287 76.0402 408.149 75.9472 408.013C75.6791 407.64 75.4154 407.264 75.1516 406.888C75.1105 406.832 75.0737 406.78 75.0391 406.726C74.7667 406.342 74.4965 405.953 74.2305 405.564C74.1073 405.389 73.9884 405.214 73.8738 405.042L73.2403 404.115L73.05 403.832C72.6724 403.272 72.2984 402.71 71.9279 402.146C71.5575 401.581 71.1892 401.017 70.8231 400.453C70.2739 399.602 69.7421 398.747 69.1994 397.889C69.0192 397.601 68.8419 397.313 68.6675 397.026C68.0809 396.075 67.5043 395.121 66.9378 394.162C66.8946 394.091 66.8535 394.017 66.8124 393.946C66.0038 392.574 65.2111 391.195 64.4342 389.811C63.8893 388.837 63.3524 387.86 62.8234 386.878C62.5596 386.386 62.2959 385.895 62.0364 385.401C61.2566 383.924 60.4934 382.436 59.7468 380.937C59.4974 380.437 59.2509 379.934 59.0073 379.425C58.7638 378.917 58.5209 378.413 58.2787 377.914C58.0387 377.41 57.8009 376.905 57.5652 376.402L56.8777 374.925C56.8602 374.893 56.8457 374.86 56.8344 374.826C56.17 373.379 55.5213 371.923 54.8886 370.459C54.6464 369.895 54.4043 369.33 54.1664 368.762C54.0216 368.42 53.8789 368.077 53.734 367.736C53.5892 367.395 53.4465 367.049 53.3016 366.706C53.1568 366.362 53.0357 366.058 52.9038 365.73L52.8346 365.559C52.6083 364.996 52.3834 364.43 52.16 363.862C52.1017 363.715 52.0433 363.57 51.9892 363.43C51.8768 363.147 51.773 362.86 51.6563 362.566C51.5071 362.184 51.3601 361.801 51.2239 361.421C51.1093 361.121 50.9947 360.821 50.8822 360.523C50.6833 359.99 50.4844 359.443 50.2898 358.918C50.0952 358.394 49.9115 357.873 49.7234 357.353C49.5936 356.99 49.4646 356.63 49.3363 356.273C49.239 355.992 49.1396 355.709 49.0445 355.431C48.9003 355.019 48.7562 354.606 48.6121 354.191C48.5558 354.029 48.4996 353.861 48.4434 353.697C48.4434 353.669 48.424 353.641 48.4153 353.612C48.2164 353.025 48.0196 352.433 47.8251 351.844L47.8056 351.779C47.4078 350.561 47.02 349.337 46.6424 348.108C46.4507 347.486 46.2612 346.863 46.0738 346.24C45.9138 345.704 45.7538 345.16 45.6003 344.633C45.5993 344.627 45.5993 344.622 45.6003 344.616C45.5419 344.426 45.4879 344.231 45.4316 344.037C45.2825 343.523 45.1376 343.009 44.9992 342.495C44.8479 341.949 44.6987 341.415 44.5495 340.858C44.4955 340.66 44.4393 340.461 44.3895 340.262C44.2771 339.85 44.1733 339.433 44.0566 339.018C43.9831 338.744 43.9117 338.47 43.8404 338.193C43.6977 337.654 43.5614 337.114 43.4274 336.578C43.2933 336.043 43.155 335.498 43.0231 334.956C42.8912 334.414 42.7701 333.902 42.6447 333.371L42.5734 333.08C42.574 333.072 42.574 333.065 42.5734 333.058C41.7359 329.492 40.9842 325.91 40.3183 322.312L40.0848 321.034C29.2398 260.66 42.3074 196.705 78.105 153.642C171.995 40.7247 267.776 70.3707 295.145 113.261C316.146 146.17 351.219 182.042 351.219 182.042C367.13 198.919 395.007 210.764 395.007 210.764C421.303 222.067 445.343 253.672 455.189 291.746C467.911 340.932 456.949 400.895 396.581 441.825Z" fill="#DCF4FE"/>
<path d="M416.2 209.503C416.2 209.503 524.241 296.964 448.372 413.688C434.876 434.527 417.252 452.386 396.586 466.165C392.354 469 388.03 471.653 383.613 474.125C381.835 475.12 380.041 476.087 378.234 477.028C355.748 488.732 331.217 496.116 306.122 499.96C301.534 500.664 296.933 501.249 292.317 501.717C290.801 501.873 289.283 502.017 287.764 502.149C235.031 506.684 181.491 496.627 140.916 479.077C136.358 477.107 131.972 475.045 127.757 472.89C125.993 471.991 124.263 471.077 122.568 470.145C102.338 459.071 86.8657 445.995 78.5806 432.168" stroke="#DCF4FE" stroke-width="12" stroke-miterlimit="10" stroke-linecap="round"/>
<path d="M257.707 68.5848C257.707 68.5848 113.02 25.3424 36.3898 195.798" stroke="#DCF4FE" stroke-width="12" stroke-miterlimit="10" stroke-linecap="round"/>
<path d="M396.581 441.825C392.486 444.602 388.162 447.289 383.609 449.884C382.544 450.489 381.463 451.089 380.366 451.685C379.657 452.074 378.942 452.459 378.221 452.841C358.503 463.306 334.657 472.033 306.109 478.353C301.624 479.345 297.022 480.281 292.304 481.161C290.798 481.437 289.28 481.709 287.751 481.975C287.425 482.031 287.102 482.089 286.767 482.143C268.617 485.249 251.484 486.65 235.357 486.542C235.07 486.542 234.787 486.542 234.493 486.542C233.803 486.542 233.113 486.527 232.43 486.512L231.565 486.495C230.832 486.48 230.104 486.46 229.375 486.439C228.646 486.417 227.926 486.391 227.213 486.363L226.367 486.329C226.108 486.329 225.851 486.305 225.593 486.294L224.698 486.253L223.978 486.216L223.085 486.167C222.668 486.145 222.255 486.121 221.84 486.095L220.376 486L219.358 485.929C217.356 485.785 215.37 485.617 213.399 485.426L212.474 485.335C210.286 485.115 208.119 484.864 205.973 484.582C205.592 484.532 205.209 484.482 204.829 484.428C204.36 484.366 203.895 484.302 203.432 484.234C203.11 484.189 202.783 484.143 202.466 484.094C202.148 484.044 201.785 483.994 201.447 483.942C200.193 483.752 198.948 483.552 197.711 483.342L196.749 483.178L195.417 482.942L194.336 482.742C193.19 482.527 192.05 482.305 190.916 482.076L189.783 481.841C189.482 481.781 189.18 481.716 188.879 481.651C187.409 481.339 185.95 481.01 184.501 480.666L183.636 480.45C181.715 479.985 179.813 479.497 177.93 478.984C177.673 478.917 177.418 478.846 177.161 478.768C176.594 478.613 176.03 478.451 175.468 478.291C175.109 478.19 174.748 478.086 174.387 477.98L173.319 477.665L172.404 477.39C171.797 477.205 171.192 477.017 170.588 476.827C170.089 476.671 169.587 476.511 169.087 476.349L169.02 476.328C168.804 476.257 168.588 476.19 168.372 476.112C167.911 475.963 167.451 475.81 166.992 475.656C166.534 475.503 166.067 475.343 165.604 475.181C165.377 475.106 165.15 475.026 164.923 474.946C164.835 474.918 164.75 474.887 164.662 474.853C164.281 474.723 163.905 474.589 163.527 474.453C163.47 474.436 163.412 474.412 163.356 474.391C162.85 474.212 162.348 474.03 161.842 473.844C161.209 473.611 160.58 473.378 159.953 473.138C159.376 472.922 158.808 472.703 158.249 472.48L157.799 472.302C157.367 472.134 156.945 471.966 156.519 471.793L156.491 471.782C155.929 471.555 155.368 471.326 154.809 471.095C154.333 470.899 153.858 470.698 153.384 470.497L152.855 470.281C152.523 470.137 152.192 469.993 151.862 469.849L151.214 469.571C150.781 469.378 150.349 469.186 149.916 468.99C148.719 468.454 147.53 467.906 146.351 467.344C145.94 467.154 145.532 466.958 145.125 466.759L144.476 466.45L143.231 465.837C142.76 465.601 142.286 465.364 141.819 465.124C141.657 465.044 141.495 464.96 141.335 464.878L140.916 464.662L140.183 464.282C139.259 463.803 138.338 463.312 137.428 462.816L136.767 462.453C136.706 462.42 136.645 462.388 136.585 462.351C136.168 462.125 135.75 461.894 135.337 461.66C134.834 461.377 134.332 461.095 133.824 460.807C132.959 460.316 132.106 459.818 131.264 459.311C131.015 459.164 130.769 459.017 130.52 458.866L130.488 458.846C130.066 458.593 129.647 458.338 129.232 458.082C128.886 457.87 128.542 457.654 128.2 457.434L127.867 457.218L127.746 457.143L127.115 456.745C126.296 456.227 125.483 455.701 124.674 455.169C124.35 454.961 124.026 454.746 123.703 454.521L123.58 454.439C123.338 454.277 123.094 454.115 122.854 453.951C122.752 453.886 122.652 453.817 122.551 453.748C122.082 453.435 121.617 453.115 121.15 452.791L120.988 452.679L120.255 452.169L119.39 451.564L118.821 451.161C118.529 450.945 118.242 450.746 117.956 450.534C117.74 450.379 117.524 450.226 117.308 450.066C116.958 449.811 116.608 449.554 116.259 449.295C115.87 449.007 115.483 448.719 115.098 448.431L114.581 448.038C114.214 447.757 113.844 447.477 113.477 447.191C113.067 446.876 112.66 446.559 112.255 446.241C111.92 445.976 111.585 445.712 111.252 445.444C111.016 445.259 110.787 445.075 110.556 444.887C110.123 444.546 109.699 444.201 109.284 443.851C108.945 443.576 108.61 443.298 108.277 443.021L107.948 442.745C107.568 442.425 107.187 442.097 106.811 441.782C106.435 441.467 106.056 441.134 105.68 440.812C105.464 440.618 105.226 440.421 105.001 440.218C104.776 440.015 104.526 439.804 104.29 439.594C103.412 438.818 102.542 438.034 101.68 437.243C101.417 437.001 101.154 436.757 100.893 436.513C100.677 436.316 100.461 436.113 100.245 435.91C100.028 435.707 99.8274 435.521 99.622 435.323C99.4166 435.124 99.2069 434.932 98.9993 434.731L98.195 433.958C98.0329 433.802 97.8729 433.647 97.7107 433.485C97.408 433.189 97.1032 432.891 96.8005 432.591C96.7745 432.565 96.7443 432.537 96.7162 432.507C96.3356 432.131 95.9551 431.749 95.5768 431.369C94.7797 430.565 93.9927 429.756 93.2158 428.941C92.8374 428.544 92.4569 428.142 92.0807 427.741C92.0673 427.729 92.055 427.716 92.0439 427.702C91.7441 427.381 91.4443 427.058 91.1445 426.734C91.004 426.587 90.8656 426.436 90.7337 426.289C90.4267 425.959 90.1261 425.626 89.8234 425.292C89.7824 425.246 89.7391 425.201 89.7024 425.156C89.3449 424.763 88.9911 424.368 88.6408 423.972C87.8942 423.134 87.1576 422.29 86.4312 421.439C86.0614 421.007 85.6982 420.575 85.335 420.143C84.9717 419.711 84.615 419.28 84.2539 418.848C83.9793 418.517 83.7091 418.185 83.4367 417.852C83.2659 417.636 83.0951 417.431 82.9286 417.221C82.7621 417.012 82.5718 416.79 82.3967 416.559C82.2216 416.327 82.0313 416.109 81.8584 415.88C81.6335 415.6 81.4108 415.318 81.1903 415.034C81.0908 414.913 80.9957 414.788 80.9049 414.667C80.6216 414.308 80.3449 413.948 80.066 413.587C79.3828 412.699 78.7096 411.805 78.0466 410.907C77.7136 410.458 77.3829 410.004 77.0542 409.553C76.7796 409.179 76.5094 408.801 76.2391 408.426C76.1375 408.288 76.0402 408.149 75.9472 408.013C75.6791 407.64 75.4154 407.264 75.1516 406.888C75.1105 406.832 75.0737 406.78 75.0391 406.726C74.7667 406.342 74.4965 405.953 74.2305 405.564C74.1073 405.389 73.9884 405.215 73.8738 405.042L73.2403 404.115L73.05 403.832C72.6724 403.272 72.2984 402.71 71.9279 402.146C71.5575 401.581 71.1892 401.017 70.8231 400.453C70.2739 399.602 69.7421 398.747 69.1994 397.889C69.0192 397.601 68.8419 397.314 68.6675 397.026C68.0809 396.075 67.5043 395.121 66.9378 394.162C66.8946 394.091 66.8535 394.017 66.8125 393.946C66.0038 392.574 65.2111 391.196 64.4342 389.811C63.8893 388.837 63.3524 387.86 62.8234 386.878C62.5596 386.386 62.2959 385.895 62.0364 385.401C61.2566 383.924 60.4934 382.436 59.7468 380.937C59.4974 380.438 59.2509 379.934 59.0073 379.425C58.7638 378.917 58.5209 378.413 58.2787 377.914C58.0387 377.411 57.8009 376.905 57.5652 376.402L56.8777 374.925C56.8602 374.893 56.8457 374.86 56.8344 374.826C56.17 373.379 55.5213 371.923 54.8886 370.459C54.6464 369.895 54.4043 369.33 54.1664 368.762C54.0216 368.42 53.8789 368.077 53.734 367.736C53.5892 367.395 53.4465 367.049 53.3016 366.706C53.1568 366.362 53.0357 366.058 52.9038 365.73L52.8346 365.559C52.6083 364.996 52.3834 364.43 52.16 363.862C52.1017 363.715 52.0433 363.57 51.9892 363.43C51.8768 363.147 51.773 362.86 51.6563 362.566C51.5071 362.184 51.3601 361.801 51.2239 361.421C51.1093 361.121 50.9947 360.821 50.8822 360.523C50.6833 359.99 50.4844 359.443 50.2898 358.919C50.0952 358.394 49.9115 357.873 49.7234 357.353C49.5936 356.99 49.4646 356.63 49.3363 356.273C49.239 355.992 49.1396 355.709 49.0445 355.431C48.9003 355.019 48.7562 354.606 48.6121 354.191C48.5558 354.029 48.4996 353.861 48.4434 353.697C48.4434 353.669 48.424 353.641 48.4153 353.613C48.2164 353.025 48.0196 352.433 47.8251 351.844L47.8056 351.779C47.4078 350.561 47.02 349.337 46.6424 348.108C46.4507 347.486 46.2612 346.863 46.0738 346.24C45.9138 345.704 45.7538 345.16 45.6003 344.633C45.5993 344.628 45.5993 344.622 45.6003 344.616C45.5419 344.426 45.4879 344.232 45.4316 344.037C45.2825 343.523 45.1376 343.009 44.9992 342.495C44.8479 341.949 44.6987 341.416 44.5495 340.858C44.4955 340.66 44.4393 340.461 44.3895 340.262C44.2771 339.85 44.1733 339.433 44.0566 339.018C43.9831 338.744 43.9117 338.47 43.8404 338.193C43.6977 337.654 43.5614 337.114 43.4274 336.578C43.2933 336.043 43.155 335.498 43.0231 334.956C42.8912 334.414 42.7701 333.903 42.6447 333.371L42.5734 333.08C42.574 333.073 42.574 333.065 42.5734 333.058C41.7359 329.492 40.9842 325.91 40.3183 322.312L40.0848 321.034C29.2398 260.66 42.3074 196.705 78.105 153.642C78.105 153.642 199.798 374.26 455.172 291.738C467.911 340.932 456.949 400.895 396.581 441.825Z" fill="#BDEBFA"/>
<path d="M216.18 157.357L232.224 156.946L231.911 155.877L215.808 156.827L216.18 157.357Z" fill="black"/>
<path d="M66.8276 347.32V393.965C66.019 392.593 65.2262 391.215 64.4493 389.83C63.9044 388.857 63.3675 387.879 62.8385 386.897C62.5748 386.405 62.311 385.915 62.0515 385.42C61.2718 383.943 60.5085 382.455 59.7619 380.956C59.5125 380.457 59.2661 379.953 59.0225 379.445C58.7789 378.937 58.536 378.433 58.2938 377.933C58.0539 377.43 57.816 376.925 57.5804 376.421L56.8928 374.944C56.8753 374.913 56.8608 374.879 56.8496 374.845C56.1851 373.398 55.5365 371.943 54.9037 370.478C54.6615 369.915 54.4194 369.349 54.1816 368.781C54.0367 368.44 53.894 368.096 53.7492 367.755C53.6043 367.414 53.4616 367.069 53.3167 366.725C53.1719 366.382 53.0508 366.077 52.9189 365.749L52.8497 365.578C52.6234 365.016 52.3986 364.45 52.1752 363.881C52.1168 363.734 52.0584 363.59 52.0044 363.449C51.8919 363.166 51.7882 362.879 51.6714 362.585C51.5222 362.203 51.3752 361.821 51.239 361.441C51.1244 361.141 51.0098 360.84 50.8974 360.542C50.6985 360.009 50.4996 359.463 50.305 358.938C50.1104 358.413 49.9266 357.893 49.7385 357.372C49.6088 357.009 49.4798 356.65 49.3515 356.292H48.4672V347.315L66.8276 347.32Z" fill="#271008"/>
<path d="M66.8276 370.489V393.959C66.019 392.587 65.2262 391.209 64.4493 389.824C63.9044 388.85 63.3675 387.873 62.8385 386.891C62.5748 386.398 62.311 385.908 62.0515 385.414C61.2718 383.937 60.5086 382.449 59.7619 380.95C59.5126 380.45 59.2661 379.947 59.0225 379.438C58.7789 378.93 58.536 378.426 58.2939 377.927C58.0539 377.424 57.816 376.918 57.5804 376.415L56.8928 374.938C56.8753 374.906 56.8608 374.873 56.8496 374.839C56.1851 373.392 55.5365 371.936 54.9037 370.472L66.8276 370.489Z" fill="#7A402A"/>
<path d="M140.907 347.32V464.647L140.174 464.267C139.251 463.787 138.33 463.297 137.419 462.8L136.758 462.438C136.697 462.405 136.637 462.373 136.576 462.336C136.159 462.109 135.742 461.878 135.329 461.645C134.825 461.362 134.323 461.079 133.815 460.792C132.95 460.301 132.097 459.802 131.255 459.296C131.007 459.149 130.76 459.002 130.512 458.851L130.479 458.831C130.057 458.578 129.638 458.323 129.223 458.067C128.877 457.855 128.533 457.639 128.192 457.419L127.859 457.203L127.738 457.127L127.106 456.73C126.288 456.212 125.474 455.686 124.665 455.154C124.341 454.946 124.017 454.73 123.695 454.506L123.571 454.424C123.329 454.262 123.085 454.1 122.845 453.936C122.743 453.871 122.644 453.802 122.542 453.733V347.32H140.907Z" fill="#271008"/>
<path d="M140.907 358.854V464.647L140.174 464.267C139.251 463.787 138.33 463.297 137.419 462.801L136.758 462.438C136.697 462.405 136.637 462.373 136.576 462.336C136.159 462.11 135.742 461.878 135.329 461.645C134.825 461.362 134.323 461.079 133.815 460.792C132.95 460.301 132.097 459.802 131.255 459.296C131.007 459.149 130.76 459.002 130.512 458.851L130.479 458.831C130.057 458.578 129.638 458.323 129.223 458.067C128.877 457.855 128.533 457.639 128.192 457.419L127.859 457.203L127.738 457.127V358.854H140.907Z" fill="#7A402A"/>
<path d="M396.584 346.145H48.4715V356.295H396.584V346.145Z" fill="#271008"/>
<path d="M396.581 347.32V441.825C392.486 444.602 388.162 447.289 383.609 449.884C382.544 450.489 381.463 451.089 380.366 451.685C379.657 452.074 378.942 452.459 378.221 452.841V347.32H396.581Z" fill="#6B4C38"/>
<path d="M396.581 360.357V441.825C392.486 444.602 388.162 447.289 383.609 449.884V360.357H396.581Z" fill="#84614E"/>
<path d="M396.584 346.145H127.751V356.295H396.584V346.145Z" fill="#7A402A"/>
<path fill-rule="evenodd" clip-rule="evenodd" d="M112.032 333.542H269.786C274.294 333.542 277.524 329.858 276.971 325.355L264.398 223.296C263.841 218.793 259.7 215.111 255.192 215.111H97.4405C92.9325 215.111 89.6981 218.782 90.2516 223.296L102.828 325.355C103.384 329.858 107.524 333.542 112.032 333.542Z" fill="#003D47"/>
<path fill-rule="evenodd" clip-rule="evenodd" d="M269.786 333.54H116.685C112.179 333.54 108.037 329.858 107.483 325.355L104.644 302.369L94.9151 223.296C94.3616 218.795 97.5961 215.111 102.102 215.111H255.201C257.311 215.138 259.347 215.891 260.967 217.243C262.841 218.747 264.07 220.91 264.401 223.289L276.973 325.349C277.527 329.858 274.292 333.54 269.786 333.54Z" fill="#128396"/>
<path d="M277.892 330.413H113.768C112.039 330.413 110.638 331.813 110.638 333.54V333.542C110.638 335.269 112.039 336.669 113.768 336.669H277.892C279.621 336.669 281.023 335.269 281.023 333.542V333.54C281.023 331.813 279.621 330.413 277.892 330.413Z" fill="#00000F"/>
<path fill-rule="evenodd" clip-rule="evenodd" d="M314.133 346.054H116.901C115.239 346.051 113.647 345.39 112.472 344.216C111.296 343.042 110.635 341.451 110.631 339.792C110.634 338.131 111.296 336.54 112.471 335.366C113.646 334.192 115.239 333.532 116.901 333.529H314.133C315.795 333.532 317.388 334.192 318.563 335.366C319.738 336.54 320.4 338.131 320.403 339.792C320.399 341.451 319.738 343.042 318.563 344.216C317.387 345.39 315.795 346.051 314.133 346.054Z" fill="#003D47"/>
<path fill-rule="evenodd" clip-rule="evenodd" d="M314.133 346.054H116.901C115.838 346.052 114.792 345.781 113.863 345.264C112.934 344.748 112.151 344.004 111.589 343.102C112.153 342.203 112.936 341.46 113.865 340.945C114.794 340.43 115.839 340.159 116.901 340.157H314.133C315.195 340.158 316.24 340.429 317.169 340.944C318.098 341.459 318.88 342.202 319.443 343.102C318.881 344.003 318.099 344.747 317.17 345.264C316.241 345.78 315.196 346.052 314.133 346.054Z" fill="#01292B"/>
<path fill-rule="evenodd" clip-rule="evenodd" d="M166.361 346.054H118.925C114.37 346.054 110.638 343.247 110.638 339.792C110.638 336.349 114.37 333.529 118.925 333.529H166.361C170.921 333.529 174.65 336.336 174.65 339.792C174.65 343.238 170.921 346.054 166.361 346.054Z" fill="#12889B"/>
<path opacity="0.57" fill-rule="evenodd" clip-rule="evenodd" d="M269.373 323.742H114.891L102.844 223.952H257.324L269.373 323.742Z" fill="#DCF4FE"/>
<path opacity="0.19" fill-rule="evenodd" clip-rule="evenodd" d="M269.786 333.54H116.685C112.179 333.54 108.037 329.858 107.483 325.355L104.644 302.369L111.831 298.456L248.632 223.952L260.956 217.243C262.831 218.747 264.059 220.91 264.39 223.289L276.962 325.349C277.527 329.858 274.292 333.54 269.786 333.54Z" fill="#DCF4FE"/>
<path d="M181.545 188.141L211.207 190.987C211.963 191.54 212.597 192.244 213.067 193.055C213.537 193.865 213.833 194.764 213.938 195.695C214.344 198.934 180.642 197.714 180.497 194.077C180.352 190.441 181.545 188.141 181.545 188.141Z" fill="#77120A"/>
<path d="M229.872 144.874C228.201 135.025 222.737 133.945 222.737 133.945L222.435 149.422L202.273 160.004L186.922 179.541L178.728 179.138C178.728 179.138 181.156 177.017 176.756 171.761C174.065 168.547 170.352 157.568 171.52 146.926C172.261 140.167 174.979 133.537 181.156 129.125C197.091 117.759 212.113 124.124 212.113 124.124C232.452 121.983 229.872 144.874 229.872 144.874Z" fill="#423A68"/>
<path d="M202.275 159.991L186.925 179.528L178.73 179.125C178.73 179.125 181.158 177.004 176.759 171.748C174.067 168.534 170.354 157.555 171.522 146.913C185.117 160.173 200.122 149.41 200.122 149.41C200.122 149.41 201.506 151.45 202.275 159.991Z" fill="#24213E"/>
<path d="M227.595 169.122C223.952 176.397 218.608 182.606 211.527 183.616C211.527 183.616 209.185 194.079 210.096 194.989C211.006 195.898 218.794 197.109 218.794 197.109C218.794 197.109 217.479 212.267 206.958 212.267C196.438 212.267 172.867 207.719 174.385 202.366C175.902 197.012 186.827 188.421 186.925 179.528C187.022 170.636 185.608 166.697 185.608 166.697C184.486 166.12 183.538 165.255 182.863 164.19C182.189 163.125 181.811 161.899 181.77 160.639C181.586 156.653 186.527 151.85 191.134 156.739C191.725 157.376 192.248 158.073 192.695 158.819C192.695 158.819 193.605 160.436 194.719 158.214C195.662 156.322 200.34 153.12 200.556 147.416C200.578 146.887 200.56 146.357 200.502 145.831C200.506 145.798 200.506 145.765 200.502 145.732C200.502 145.658 200.487 145.585 200.474 145.516C200.474 145.477 200.474 145.434 200.457 145.393C200.444 145.293 200.429 145.194 200.412 145.093C200.394 144.991 200.383 144.924 200.362 144.836C200.34 144.747 200.325 144.639 200.303 144.54C200.282 144.44 200.247 144.291 200.217 144.166C200.217 144.166 204.757 143.756 205.962 151.725C206.104 152.702 206.191 153.686 206.223 154.672C206.223 154.672 209.97 151.297 208.649 144.54C208.362 143.129 207.922 141.753 207.337 140.437C207.337 140.437 212.526 138.821 213.739 147.31C213.856 148.178 213.928 149.051 213.955 149.926C213.955 149.926 216.675 142.531 214.005 137.642C213.759 137.197 213.47 136.778 213.14 136.392C213.14 136.392 218.216 137.04 219.377 144.071C219.545 145.107 219.623 146.155 219.613 147.205C219.613 147.205 223.684 140.307 220.61 134.33C220.004 133.161 219.188 132.114 218.201 131.241C218.417 131.278 225.663 132.63 226.873 144.134C226.925 144.63 226.968 145.147 226.997 145.68C227.697 158.814 231.236 161.846 227.595 169.122Z" fill="#F6A276"/>
<path d="M191.519 160.868C191.203 160.275 190.802 159.731 190.33 159.253C189.86 158.763 189.323 158.344 188.734 158.007C188.138 157.667 187.482 157.447 186.801 157.359C186.127 157.272 185.441 157.351 184.804 157.588C185.452 157.506 186.109 157.53 186.749 157.659C187.063 157.725 187.37 157.818 187.668 157.935C187.967 158.05 188.256 158.188 188.533 158.348C189.096 158.67 189.626 159.047 190.114 159.475C190.612 159.908 191.082 160.373 191.519 160.868Z" fill="#DC6350"/>
<path d="M185.606 159.842C185.822 159.626 186.038 159.43 186.254 159.24C186.468 159.056 186.693 158.887 186.929 158.732C187.162 158.581 187.409 158.453 187.668 158.352C187.942 158.25 188.222 158.167 188.507 158.104C188.209 158.014 187.894 157.999 187.588 158.058C187.28 158.116 186.986 158.234 186.724 158.406C186.462 158.575 186.231 158.787 186.04 159.032C185.842 159.27 185.694 159.546 185.606 159.842Z" fill="#DC6350"/>
<path d="M211.527 195.623C211.527 195.623 213.332 201.566 208.779 202.02C204.226 202.473 182.425 205.084 183.083 189.609L178.326 196.038C178.326 196.038 172.359 205.659 188.293 209.751C204.228 213.843 214.61 219.45 216.247 209.751C217.883 200.053 211.527 195.623 211.527 195.623Z" fill="#DC6350"/>
<path d="M211.527 183.616C211.527 183.616 203.216 183.975 196.842 178.002C196.842 178.002 195.932 178.002 196.842 180.224C197.752 182.446 204.325 189.097 210.547 188.501L211.527 183.616Z" fill="#DC6350"/>
<path opacity="0.59" d="M226.863 144.125C225.304 138.711 222.579 135.8 220.592 134.321C219.987 133.152 219.17 132.105 218.184 131.233C218.417 131.269 225.652 132.621 226.863 144.125Z" fill="#DC6350"/>
<path opacity="0.59" d="M217.479 147.801C218.244 143.443 215.953 140.149 213.992 137.651C213.746 137.206 213.457 136.787 213.127 136.401C213.127 136.401 218.203 137.048 219.364 144.08C218.856 145.377 218.225 146.623 217.479 147.801Z" fill="#DC6350"/>
<path opacity="0.59" d="M213.715 147.306C213.473 148.546 213.111 149.758 212.634 150.928C212.48 148.634 210.532 146.293 208.636 144.538C208.349 143.126 207.909 141.751 207.324 140.435C207.324 140.435 212.5 138.828 213.715 147.306Z" fill="#DC6350"/>
<path opacity="0.59" d="M204.634 155.376C204.712 155.125 204.751 154.862 204.749 154.599C204.749 153.826 204.455 152.949 203.983 152.042C203.839 151.763 203.674 151.48 203.497 151.195C203.019 150.483 202.23 149.632 201.361 149.99C199.942 150.578 197.854 158.883 195.022 159.689C192.189 160.494 191.13 156.735 191.13 156.735C191.721 157.372 192.244 158.069 192.691 158.814C192.691 158.814 193.601 160.432 194.715 158.21C195.657 156.318 200.336 153.115 200.552 147.412C200.573 146.883 200.555 146.353 200.498 145.827C200.498 145.794 200.498 145.76 200.485 145.728C200.485 145.654 200.47 145.581 200.457 145.512C200.457 145.473 200.457 145.429 200.44 145.388C200.427 145.289 200.412 145.19 200.394 145.088C200.377 144.987 200.366 144.92 200.345 144.831C200.323 144.743 200.308 144.635 200.286 144.535C200.265 144.436 200.23 144.287 200.2 144.162C200.2 144.162 204.74 143.752 205.944 151.72C205.646 152.984 205.207 154.211 204.634 155.376Z" fill="#DC6350"/>
<path d="M231.844 277.742C231.44 301.587 229.215 314.722 229.215 314.722C229.215 314.722 212.982 319.472 197.13 319.639C189.407 319.717 181.779 318.708 176.157 315.536C159.01 305.835 176.157 194.587 176.157 194.587C176.157 194.587 203.471 214.493 218.796 197.114C218.796 197.114 220.37 203.756 222.426 213.455C226.37 232.1 232.11 262.051 231.844 277.742Z" fill="#F2B342"/>
<path d="M231.844 277.742C231.44 301.587 229.215 314.722 229.215 314.722C229.215 314.722 212.982 319.473 197.13 319.639C191.843 317.816 186.847 315.981 182.676 314.711C163.057 308.737 178.622 229.746 184.274 240.304C189.926 250.862 207.101 241.911 212.463 237.79C217.825 233.67 214.467 208.637 214.467 208.637C214.467 208.637 217.62 209.341 222.424 213.459C226.37 232.1 232.11 262.051 231.844 277.742Z" fill="#E08B03"/>
<path d="M234.289 323.742H173.967C175.265 321.073 177.269 318.851 179.42 317.062C181.4 315.445 183.554 314.052 185.841 312.91C187.042 312.291 188.281 311.749 189.549 311.286C189.549 311.286 203.711 311.692 220.809 308.046C221.585 307.879 222.373 307.772 223.165 307.727C226.056 307.576 228.225 308.452 229.842 310.035C232.791 312.916 233.937 318.118 234.289 323.742Z" fill="#24213E"/>
<path d="M187.141 231.202L205.441 255.967L206.807 254.618L188.581 230.137C188.509 230.041 188.42 229.96 188.317 229.9C188.214 229.839 188.1 229.8 187.981 229.784C187.863 229.768 187.742 229.776 187.627 229.807C187.511 229.839 187.403 229.893 187.309 229.966C187.126 230.11 187.006 230.319 186.975 230.55C186.943 230.781 187.003 231.014 187.141 231.202Z" fill="#24213E"/>
<path d="M206.2 251.268L205.88 253.374L205.497 255.913L202.405 276.275H185.26L185.277 277.042C185.277 277.157 185.277 277.284 185.277 277.424V277.718C185.294 278.394 185.316 279.29 185.338 280.374V280.886V280.957V281.154L185.348 281.648V281.886C185.377 283.281 185.411 284.909 185.446 286.691C185.532 291.092 185.627 296.549 185.701 302.369C185.748 305.803 185.787 309.364 185.813 312.91C185.831 314.89 185.841 316.864 185.848 318.81C185.848 320.481 185.848 322.133 185.848 323.742H147.069L150.504 290.198L151.585 279.761C151.585 279.761 128.667 281.074 128.667 265.508C128.667 255.46 132.702 238.404 137.608 223.946C142.025 210.924 147.147 200.009 150.671 198.215C157.529 194.719 175.36 192.257 178.086 191.894L178.438 191.849C178.629 191.652 178.838 191.474 179.061 191.315C179.647 190.907 180.453 190.62 180.564 192.021C180.583 192.359 180.574 192.698 180.538 193.034C180.54 193.069 180.54 193.105 180.538 193.14C180.518 193.339 180.512 193.641 180.516 194.038V194.062C180.527 194.842 180.583 195.978 180.676 197.401C180.834 199.85 181.109 203.139 181.424 206.903C181.45 207.237 181.48 207.576 181.509 207.918C181.93 212.805 182.438 218.4 182.927 223.935C183.359 228.833 183.779 233.685 184.112 237.957C184.177 238.754 184.235 239.533 184.293 240.287C184.67 245.377 184.894 249.387 184.825 251.251L206.2 251.268Z" fill="white"/>
<path d="M166.443 225.209C166.443 225.209 159.008 253.399 159.767 253.248C160.526 253.097 184.804 251.279 184.804 251.279L181.759 188.603C181.749 188.471 181.699 188.345 181.616 188.242C181.532 188.14 181.419 188.065 181.291 188.029C181.164 187.992 181.028 187.996 180.903 188.038C180.777 188.081 180.668 188.161 180.59 188.268C177.28 193.047 167.492 207.272 167.429 208.537C167.353 210.049 175.699 215.511 175.861 217.027C176.023 218.543 171.708 231.122 172.268 232.791C172.828 234.46 183.902 250.251 182.149 250.251C181.284 250.251 162.119 253.322 162.041 251.281C161.899 246.865 169.939 222.32 166.443 225.209Z" fill="#FBD4CD"/>
<path d="M180.75 188.549L168.525 208.417C168.525 208.417 176.449 213.973 177.822 216.094C177.822 216.094 174.635 232.009 173.574 232.463C173.574 232.463 183.891 247.772 184.801 251.251C184.804 251.268 181.919 195.33 180.75 188.549Z" fill="white"/>
<path d="M159.778 253.238C159.778 253.238 152.798 254.451 144.755 258.997C144.755 258.997 147.01 254.03 160.212 250.238L159.778 253.238Z" fill="#FBD4CD"/>
<path d="M151.572 279.761L185.26 276.275L185.385 281.884L150.504 290.198L151.572 279.761Z" fill="#FBD4CD"/>
<path d="M249.666 271.488C249.646 272.927 249.621 274.367 249.592 275.807C249.578 276.489 249.561 277.171 249.543 277.852C249.497 279.723 249.443 281.581 249.383 283.423C249.342 284.62 240.799 282.061 240.752 283.244C240.633 286.306 241.844 295.936 242.308 299.978C243.446 309.895 243.653 315.488 243.872 323.751H223.71C223.63 321.315 223.548 318.784 223.462 316.192C223.366 313.432 223.271 310.603 223.174 307.742C223.113 305.963 223.051 304.17 222.988 302.378C222.424 286.229 221.81 269.957 221.323 260.574C221.215 258.505 221.053 256.267 220.841 253.909C220.394 248.908 219.738 243.36 218.975 237.713C218.848 236.77 218.719 235.823 218.586 234.873C218.076 231.219 217.529 227.546 216.975 223.974C216.372 220.087 215.758 216.31 215.172 212.805C214.931 211.365 214.696 209.98 214.467 208.65C214.035 206.089 213.615 203.73 213.246 201.651C212.915 199.796 212.617 198.163 212.368 196.798C212.336 196.615 212.301 196.435 212.268 196.261C212.236 196.086 212.214 195.965 212.188 195.829C211.773 193.578 211.527 192.291 211.527 192.291C211.527 192.291 211.869 192.378 212.483 192.542L212.768 192.62L213.864 192.926L214.513 193.11C221.47 195.116 238.512 200.621 242.674 207.421C244.788 210.876 246.349 216.692 247.441 223.982C247.945 227.332 248.356 230.994 248.682 234.882C248.76 235.816 248.832 236.763 248.898 237.721C249.636 248.044 249.828 259.796 249.666 271.488Z" fill="white"/>
<path d="M212.463 192.384L221.948 254.339L231.853 229.489C231.853 229.489 225.366 223.846 225.167 222.255L229.615 210.377C229.615 210.377 220.562 197.388 215.622 193.533L212.463 192.384Z" fill="#FBD4CD"/>
<path d="M211.207 190.987L220.841 253.903L230.428 229.848C230.428 229.848 223.449 224.034 223.245 222.445L228.506 209.941C228.506 209.941 211.207 187.493 211.207 190.987Z" fill="white"/>
<path d="M238.977 228.686V247.327H241.707C241.707 247.327 242.769 224.896 238.977 228.686Z" fill="#FBD4CD"/>
<path d="M177.593 300.518C178.02 301.096 178.578 301.565 179.22 301.887C179.863 302.209 180.573 302.374 181.292 302.369H232.084C232.907 302.368 233.716 302.148 234.425 301.73C235.134 301.312 235.719 300.713 236.118 299.994L268.569 241.686C268.96 240.985 269.161 240.193 269.151 239.39C269.142 238.588 268.923 237.801 268.515 237.109C268.108 236.417 267.526 235.843 266.828 235.444C266.131 235.046 265.341 234.836 264.537 234.836H213.745C212.922 234.837 212.113 235.057 211.404 235.475C210.695 235.893 210.11 236.492 209.711 237.212L177.258 295.519C176.822 296.295 176.621 297.181 176.68 298.068C176.74 298.956 177.057 299.808 177.593 300.518Z" fill="#3C385B"/>
<path d="M177.593 300.518C178.02 301.096 178.578 301.565 179.22 301.887C179.863 302.209 180.573 302.374 181.292 302.369H232.084C232.907 302.368 233.716 302.148 234.425 301.73C235.134 301.312 235.719 300.713 236.118 299.994L268.569 241.686C268.911 241.08 269.11 240.404 269.15 239.709C269.19 239.014 269.069 238.319 268.798 237.678H218.277C216.804 237.678 215.358 238.066 214.084 238.805C212.811 239.544 211.756 240.607 211.027 241.885L177.595 300.501L177.593 300.518Z" fill="#24213E"/>
<path d="M243.526 271.259C242.735 271.825 241.999 272.463 241.325 273.164C240.43 274.146 237.524 274.371 237.39 277.094C237.256 279.817 236.497 282.452 237.39 284.004C238.283 285.557 238.255 291.731 240.44 292.211L244.548 284.22L243.526 271.259Z" fill="#101023"/>
<path d="M254.909 274.565C254.909 274.565 248.122 269.598 244.903 270.574C241.684 271.55 242.308 274.505 242.308 274.505C242.308 274.505 239.089 273.969 238.285 276.016C237.48 278.064 240.252 280.335 240.252 280.335C240.252 280.335 238.09 281.275 238.138 282.881C238.185 284.488 242.665 286.633 242.665 286.633C242.665 286.633 240.257 287.807 241.059 289.809C241.861 291.811 247.852 290.74 246.957 287.971C246.957 287.971 251.517 286.989 250.712 283.508C250.712 283.508 254.412 283.987 254.02 278.863C254.02 278.88 258.585 277.629 254.909 274.565Z" fill="#F6A276"/>
<path d="M242.334 274.457C243.391 274.632 244.432 274.895 245.446 275.241C246.439 275.574 247.407 275.938 248.351 276.334C249.298 276.731 250.23 277.141 251.162 277.565L252.561 278.213C252.794 278.316 253.032 278.411 253.274 278.528C253.396 278.578 253.517 278.619 253.642 278.668C253.767 278.718 253.893 278.77 254.023 278.83V278.938C252.964 278.911 251.916 278.728 250.911 278.396C249.904 278.093 248.912 277.739 247.941 277.336C246.969 276.925 246.013 276.489 245.072 276.025C244.6 275.794 244.131 275.558 243.664 275.314C243.197 275.07 242.741 274.818 242.285 274.556L242.334 274.457Z" fill="#DC6350"/>
<path d="M240.274 280.303C241.216 280.347 242.152 280.483 243.067 280.709C243.956 280.925 244.821 281.171 245.662 281.454C246.503 281.737 247.34 282.056 248.168 282.387C248.996 282.717 249.807 283.082 250.706 283.467V283.575C249.784 283.566 248.865 283.448 247.971 283.223C247.071 283.022 246.189 282.761 245.318 282.473C244.447 282.186 243.588 281.853 242.739 281.508C242.306 281.335 241.891 281.158 241.472 280.977C241.052 280.795 240.635 280.599 240.222 280.398L240.274 280.303Z" fill="#DC6350"/>
<path d="M242.689 286.602C243.099 286.443 243.535 286.358 243.975 286.354C244.342 286.35 244.706 286.404 245.056 286.512C245.409 286.62 245.743 286.782 246.047 286.991C246.413 287.242 246.726 287.564 246.968 287.937L246.946 288.043L246.388 287.95C246.205 287.911 246.021 287.874 245.837 287.829C245.469 287.745 245.104 287.648 244.741 287.544C244.378 287.44 244.025 287.302 243.675 287.166C243.498 287.097 243.322 287.028 243.149 286.95C242.977 286.872 242.81 286.786 242.641 286.695L242.689 286.602Z" fill="#DC6350"/>
<path d="M186.791 204.588C186.791 204.588 197.134 209.52 210.286 205.799" stroke="#F48500" stroke-width="5" stroke-miterlimit="10" stroke-linecap="round"/>
<path d="M481.279 180.809C481.279 180.809 478.648 178.585 475.344 182.021C472.04 185.456 469.543 198.39 473.794 201.623C478.044 204.855 489.577 183.772 487.348 181.887C485.119 180.001 481.279 180.809 481.279 180.809Z" fill="#1C1D31"/>
<path d="M458.873 534.141H461.357C460.97 489.76 458.359 412.775 445.198 397.563L437.414 402.962C446.787 413.794 458.216 458.158 458.873 534.141Z" fill="#A39790"/>
<path d="M519.684 534.141H522.358C518.121 490.414 508.685 414.565 493.077 399.576L485.097 404.901C496.197 415.57 512.43 459.276 519.684 534.141Z" fill="#A39790"/>
<path d="M367.573 534.141H364.898C369.136 490.414 378.571 414.565 394.179 399.576L402.162 404.901C391.055 415.57 374.827 459.276 367.573 534.141Z" fill="#EAD1CA"/>
<path d="M503.952 412.762H383.419V422.376H503.952V412.762Z" fill="#A39790"/>
<path d="M442.173 412.762H383.419V422.376H442.173V412.762Z" fill="#EAD1CA"/>
<path d="M433.045 534.141H430.344C430.777 489.76 433.601 412.775 447.898 397.563L456.346 402.962C446.171 413.794 433.758 458.158 433.045 534.141Z" fill="#C1B4AE"/>
<path d="M383.587 410.08H450.456L449.693 420.474L383.587 419.694V410.08Z" fill="#A39790"/>
<path d="M455.587 387.981C459.182 361.067 450.398 231.29 463.273 223.477C468.462 220.32 538.481 220.121 541.839 219.452C545.196 218.782 554.552 219.942 556.61 228.172C560.64 244.269 518.611 408.514 505.853 416.563C498.225 416.563 471.521 413.341 440.428 417.476C449.779 409.389 455.427 399.146 455.587 387.981Z" fill="#F9CDB7"/>
<path opacity="0.4" d="M455.587 387.981C459.182 361.067 450.398 231.29 463.273 223.477C468.462 220.32 538.481 220.121 541.839 219.452C545.196 218.782 554.552 219.942 556.61 228.172C560.64 244.269 518.611 408.514 505.853 416.563C498.225 416.563 471.521 413.341 440.428 417.476C449.779 409.389 455.427 399.146 455.587 387.981Z" fill="url(#paint0_linear_2_10)"/>
<g opacity="0.7">
<path d="M470.512 398.017L471.593 397.995C469.554 298.257 475.035 224.013 484.623 221.458L484.345 220.419C472.414 223.598 468.81 314.709 470.512 398.017Z" fill="#CC937A"/>
</g>
<g opacity="0.7">
<path d="M490.634 400.93L491.715 400.988C499.916 298.56 512.994 222.842 522.817 220.95L522.646 219.871C510.419 222.22 497.481 315.374 490.634 400.93Z" fill="#CC937A"/>
</g>
<path d="M474.23 393.983C433.367 386.444 367.197 379.397 381.791 418.126H448.958L474.23 393.983Z" fill="#F9CDB7"/>
<path opacity="0.4" d="M474.23 393.983C433.367 386.444 367.197 379.397 381.791 418.126H448.958L474.23 393.983Z" fill="url(#paint1_linear_2_10)"/>
<path d="M437.254 400.019C450.134 385.422 482.546 395.084 502.724 400.353C517.755 390.968 529.98 221.778 541.683 219.452C545.075 218.78 554.528 219.942 556.601 228.172C560.672 244.269 518.607 409.261 505.717 417.31C497.743 417.31 450.424 418.295 436.63 418.295C433.17 415.068 432.029 405.936 437.254 400.019Z" fill="#CC937A"/>
<path d="M505.723 417.31C501.948 417.31 489.313 417.494 475.595 417.686C476.529 413.958 477.618 410.179 478.866 406.376C480.113 402.573 481.46 398.924 482.913 395.384C490.024 396.95 496.891 398.84 502.724 400.351C507.812 397.177 512.577 375.689 517.107 348.572C522.425 345.253 527.688 343.631 532.589 344.037C522.233 381.276 511.273 413.844 505.723 417.31Z" fill="#C48772"/>
<path opacity="0.7" d="M395.831 397.818C399.487 391.91 406.242 389.275 411.891 388.316C412.996 388.392 414.159 388.457 415.366 388.504C408.845 389.351 400.465 391.894 396.744 398.371C393.762 403.554 394.277 410.093 398.772 418.077L397.835 418.604C393.135 410.263 392.458 403.267 395.831 397.818Z" fill="#CC937A"/>
<path opacity="0.7" d="M417.787 398.334C421.584 392.197 429.436 389.955 435.3 389.288C436.653 389.4 438.083 389.487 439.59 389.547C433.123 390.139 422.628 392.536 418.691 398.898C415.712 403.711 416.464 410.168 420.927 418.087L419.988 418.614C415.335 410.328 414.587 403.504 417.787 398.334Z" fill="#CC937A"/>
<path d="M437.35 311.186C437.35 311.186 433.101 324.623 429.257 327.167C425.757 329.486 414.875 286.931 410.587 277.472C410.168 276.543 409.811 275.934 409.532 275.716C406.395 273.291 392.03 274.705 391.118 273.392C390.206 272.079 400.832 270.665 400.832 270.153C400.832 269.641 390.108 267.322 387.579 266.314C385.049 265.305 387.477 263.074 387.477 263.074C382.924 263.176 382.924 261.154 382.924 261.154C386.21 257.673 392.24 259.379 392.437 259.427C391.12 258.414 389.509 255.693 391.935 255.54C394.361 255.386 411.459 262.569 411.459 262.569C411.459 262.569 409.945 253.777 411.459 251.555C412.972 249.333 414.596 253.067 414.847 255.54C415.098 258.012 419.35 264.692 420.057 270.954C420.188 271.805 420.392 272.642 420.669 273.457C423.778 283.417 437.35 311.186 437.35 311.186Z" fill="#F8A478"/>
<path opacity="0.25" d="M437.35 311.186C437.35 311.186 433.101 324.623 429.257 327.167C425.757 329.486 414.875 286.931 410.587 277.472C413.673 277.04 417.986 275.973 420.663 273.468C423.778 283.417 437.35 311.186 437.35 311.186Z" fill="#DC6350"/>
<path d="M344.281 382.218C350.959 400.101 355.208 479.828 355.208 479.828L340.64 484.981C340.64 484.981 336.099 471.974 330.309 455.383C321.012 428.697 308.52 392.756 306.65 386.77C303.623 377.069 310.898 361.912 318.788 357.454C325.097 353.889 382.72 342.791 405.569 338.487C411.299 337.407 414.84 336.76 414.84 336.76C414.84 336.76 445.341 343.124 446.554 360.1C447.767 377.076 344.281 382.218 344.281 382.218Z" fill="#494867"/>
<path d="M344.281 382.218C349.022 394.918 352.54 438.797 354.179 463.17C354.849 473.123 355.208 479.824 355.208 479.824L340.64 484.977C340.64 484.977 338.463 478.751 335.206 469.428C333.756 465.271 332.093 460.501 330.309 455.391C342.305 439.698 334.85 401.366 334.569 379.808C334.268 355.558 372.807 353.131 387.375 350.477C401.794 347.847 405.494 338.686 405.569 338.498C411.299 337.418 414.84 336.77 414.84 336.77C414.84 336.77 445.341 343.134 446.554 360.111C447.766 377.087 344.281 382.218 344.281 382.218Z" fill="#2F2E4E"/>
<path d="M491.992 385.25C478.853 401.921 383.734 391.918 383.734 391.918C383.849 392.056 383.966 392.201 384.08 392.35C390.802 400.947 396.29 421.251 400.188 440.1C404.441 460.676 406.797 479.522 406.797 479.522L392.233 483.463C392.233 483.463 388.69 476.911 383.529 467.266C370.688 443.261 347.833 400.105 344.586 391.016C340.032 378.274 343.072 368.28 353.385 362.218C361.082 357.683 405.083 350.989 426.943 347.862C434.392 346.799 439.267 346.154 439.267 346.154C439.267 346.154 505.126 368.576 491.992 385.25Z" fill="#494867"/>
<path opacity="0.54" d="M491.992 385.25C478.853 401.921 383.734 391.918 383.734 391.918C379.486 384.986 374.325 378.279 374.325 378.279C374.325 378.279 453.838 387.675 443.066 374.64C432.295 361.605 426.944 347.862 426.944 347.862C434.392 346.799 439.267 346.154 439.267 346.154C439.267 346.154 505.126 368.576 491.992 385.25Z" fill="#2F2E4E"/>
<path d="M374.325 378.279C374.325 378.279 381.51 381.41 384.746 385.755C387.983 390.1 388.804 392.402 388.804 392.402L383.734 391.918L374.325 378.279Z" fill="#2F2E4E"/>
<path opacity="0.54" d="M406.797 479.52L392.233 483.461C392.233 483.461 388.69 476.909 383.529 467.264C396.549 462.451 400.177 440.102 400.177 440.102C404.441 460.673 406.797 479.52 406.797 479.52Z" fill="#2F2E4E"/>
<path d="M336.796 475.283C336.796 475.283 331.838 474.125 333.661 479.91C334.112 481.347 340.337 503.223 321.218 508.576C321.218 508.576 316.816 509.924 320.003 513.139C323.19 516.355 338.813 518.106 342.529 509.423C346.246 500.739 352.324 487.877 348.985 483.854C345.647 479.831 336.796 475.283 336.796 475.283Z" fill="#271008"/>
<path d="M355.511 526.61C355.511 526.61 348.787 527.636 340.002 528.461C333.481 529.074 325.825 529.578 318.943 529.47C309.272 529.321 301.13 527.958 299.822 524.015C296.33 513.47 304.226 516.08 314.844 513.133C317.655 512.353 320.288 511.608 322.695 510.757C329.555 508.321 334.601 504.989 336.845 497.381C339.872 487.106 334.115 474.125 334.115 474.125C334.115 474.125 340.101 471.94 343.827 471.944C347.552 471.948 349.744 488.572 347.772 496.046C346.529 500.759 349.935 511.675 352.609 519.104C354.181 523.455 355.511 526.61 355.511 526.61Z" fill="#633525"/>
<path opacity="0.59" d="M352.609 519.097C351.863 520.233 350.97 521.266 349.954 522.168C346.985 524.767 343.629 526.89 340.008 528.461C333.488 529.074 325.832 529.578 318.95 529.47C317.878 528.821 316.935 527.982 316.167 526.993C316.167 526.993 326.426 526.302 325.897 519.836C325.367 513.37 322.697 510.751 322.697 510.751C329.557 508.315 334.603 504.983 336.847 497.375C338.964 490.209 340.125 482.783 340.633 478.943C341.038 475.898 343.533 473.495 346.607 473.363C346.709 473.363 346.81 473.363 346.914 473.363C350.637 473.363 349.746 488.568 347.779 496.038C346.529 500.752 349.926 511.669 352.609 519.097Z" fill="#2B0F04"/>
<path d="M347.014 474.134C345.606 474.41 344.342 475.173 343.442 476.288C342.543 477.404 342.065 478.8 342.095 480.232C342.248 488.184 342.754 504.153 335.131 507.529C325.546 511.772 325.587 510.241 327.257 516.059C328.926 521.877 327.836 529.612 327.836 529.612C327.836 529.612 359.314 528.748 364.159 525.129C366.206 523.602 362.237 514.783 360.771 503.918C358.758 488.998 358.546 471.115 358.546 471.115C354.775 472.38 350.922 473.389 347.014 474.134Z" fill="#7A402A"/>
<path d="M331.546 515.229C332.377 515.229 333.051 514.557 333.051 513.726C333.051 512.896 332.377 512.223 331.546 512.223C330.715 512.223 330.041 512.896 330.041 513.726C330.041 514.557 330.715 515.229 331.546 515.229Z" fill="white"/>
<path d="M332.59 513.722C332.59 513.516 332.529 513.314 332.414 513.143C332.3 512.971 332.137 512.838 331.946 512.759C331.755 512.68 331.545 512.659 331.342 512.699C331.14 512.739 330.954 512.839 330.808 512.985C330.662 513.131 330.562 513.316 330.522 513.519C330.482 513.721 330.502 513.931 330.581 514.121C330.66 514.312 330.794 514.475 330.966 514.59C331.138 514.704 331.34 514.765 331.546 514.765C331.823 514.765 332.089 514.655 332.285 514.46C332.48 514.264 332.59 513.999 332.59 513.722Z" fill="black"/>
<path d="M336.711 513.083C337.542 513.083 338.216 512.41 338.216 511.58C338.216 510.75 337.542 510.077 336.711 510.077C335.88 510.077 335.206 510.75 335.206 511.58C335.206 512.41 335.88 513.083 336.711 513.083Z" fill="white"/>
<path d="M337.756 511.58C337.756 511.373 337.695 511.171 337.58 510.999C337.465 510.826 337.302 510.692 337.111 510.613C336.919 510.533 336.709 510.512 336.505 510.553C336.302 510.593 336.116 510.693 335.969 510.839C335.823 510.985 335.723 511.172 335.683 511.374C335.642 511.577 335.663 511.788 335.743 511.979C335.822 512.17 335.957 512.333 336.129 512.448C336.301 512.562 336.504 512.623 336.711 512.623C336.988 512.623 337.254 512.513 337.45 512.318C337.646 512.122 337.756 511.857 337.756 511.58Z" fill="black"/>
<path d="M340.683 508.637C341.514 508.637 342.188 507.964 342.188 507.134C342.188 506.303 341.514 505.631 340.683 505.631C339.852 505.631 339.178 506.303 339.178 507.134C339.178 507.964 339.852 508.637 340.683 508.637Z" fill="white"/>
<path d="M341.73 507.133C341.73 506.927 341.668 506.725 341.553 506.553C341.438 506.381 341.275 506.247 341.084 506.168C340.892 506.089 340.682 506.068 340.479 506.108C340.276 506.149 340.089 506.248 339.943 506.394C339.797 506.541 339.697 506.727 339.657 506.93C339.616 507.132 339.637 507.343 339.716 507.533C339.795 507.724 339.93 507.888 340.102 508.003C340.274 508.117 340.476 508.179 340.683 508.179C340.82 508.179 340.957 508.152 341.084 508.099C341.21 508.047 341.326 507.97 341.423 507.873C341.52 507.775 341.597 507.66 341.65 507.533C341.702 507.407 341.73 507.271 341.73 507.133Z" fill="black"/>
<path d="M343.232 502.424C344.063 502.424 344.737 501.751 344.737 500.921C344.737 500.09 344.063 499.418 343.232 499.418C342.401 499.418 341.727 500.09 341.727 500.921C341.727 501.751 342.401 502.424 343.232 502.424Z" fill="white"/>
<path d="M344.276 500.921C344.276 500.714 344.215 500.513 344.1 500.341C343.986 500.17 343.823 500.036 343.632 499.957C343.441 499.878 343.231 499.857 343.028 499.898C342.826 499.938 342.64 500.037 342.494 500.183C342.348 500.329 342.248 500.515 342.208 500.717C342.168 500.919 342.188 501.129 342.267 501.32C342.346 501.51 342.48 501.673 342.652 501.788C342.824 501.902 343.026 501.964 343.232 501.964C343.509 501.964 343.775 501.854 343.971 501.658C344.166 501.462 344.276 501.197 344.276 500.921Z" fill="black"/>
<path d="M345.07 496.558C345.901 496.558 346.575 495.885 346.575 495.055C346.575 494.225 345.901 493.552 345.07 493.552C344.239 493.552 343.565 494.225 343.565 495.055C343.565 495.885 344.239 496.558 345.07 496.558Z" fill="white"/>
<path d="M346.114 495.055C346.114 494.849 346.053 494.647 345.938 494.476C345.823 494.304 345.66 494.171 345.47 494.092C345.279 494.013 345.069 493.992 344.866 494.032C344.664 494.072 344.478 494.172 344.331 494.318C344.185 494.464 344.086 494.649 344.046 494.852C344.005 495.054 344.026 495.264 344.105 495.454C344.184 495.645 344.318 495.808 344.49 495.923C344.661 496.037 344.863 496.098 345.07 496.098C345.347 496.098 345.612 495.988 345.808 495.793C346.004 495.597 346.114 495.332 346.114 495.055Z" fill="black"/>
<path d="M345.868 490.011C346.699 490.011 347.372 489.338 347.372 488.508C347.372 487.677 346.699 487.005 345.868 487.005C345.037 487.005 344.363 487.677 344.363 488.508C344.363 489.338 345.037 490.011 345.868 490.011Z" fill="white"/>
<path d="M346.912 488.508C346.912 488.301 346.851 488.098 346.737 487.926C346.622 487.754 346.458 487.619 346.267 487.54C346.076 487.461 345.865 487.44 345.662 487.48C345.459 487.52 345.272 487.62 345.126 487.766C344.979 487.913 344.879 488.099 344.839 488.302C344.799 488.505 344.82 488.715 344.899 488.906C344.979 489.097 345.113 489.261 345.286 489.375C345.458 489.49 345.661 489.551 345.868 489.551C346.145 489.551 346.41 489.441 346.606 489.245C346.802 489.049 346.912 488.784 346.912 488.508Z" fill="black"/>
<path d="M346.114 483.247C346.945 483.247 347.619 482.574 347.619 481.744C347.619 480.914 346.945 480.241 346.114 480.241C345.283 480.241 344.609 480.914 344.609 481.744C344.609 482.574 345.283 483.247 346.114 483.247Z" fill="white"/>
<path d="M347.161 481.744C347.161 481.537 347.1 481.335 346.985 481.163C346.871 480.99 346.707 480.856 346.516 480.777C346.325 480.697 346.114 480.676 345.911 480.716C345.708 480.756 345.522 480.856 345.375 481.002C345.228 481.148 345.129 481.334 345.088 481.537C345.047 481.74 345.068 481.95 345.147 482.141C345.226 482.332 345.36 482.496 345.533 482.611C345.705 482.726 345.907 482.787 346.114 482.787C346.391 482.787 346.657 482.677 346.853 482.482C347.05 482.286 347.16 482.021 347.161 481.744Z" fill="black"/>
<path d="M340.744 498.359C340.761 498.34 340.771 498.314 340.772 498.288C340.805 498.194 340.865 498.113 340.945 498.053C341.022 497.979 341.095 497.899 341.161 497.815C341.236 497.726 341.291 497.621 341.321 497.508C341.388 497.159 340.785 496.848 340.547 496.645C340.203 496.355 337.621 494.731 335.6 492.36C335.457 492.194 335.25 491.468 335.168 491.479C334.787 491.537 334.11 491.937 334.205 492.298C334.214 492.329 334.225 492.359 334.238 492.388C334.411 492.779 334.778 493.12 335.072 493.427C335.591 493.967 336.153 494.476 336.703 494.98C337.068 495.323 340.542 498.528 340.744 498.359Z" fill="#C16748"/>
<path d="M339.576 502.322L339.621 502.303C339.69 502.264 339.751 502.214 339.803 502.156C339.948 502.002 340.225 501.745 340.177 501.529C340.123 501.279 339.678 501.173 339.459 501.037C339.098 500.821 338.748 500.553 338.393 500.318C337.719 499.871 337.051 499.415 336.398 498.949C335.894 498.588 335.392 498.221 334.921 497.832C334.688 497.64 334.359 497.454 334.234 497.2C334.108 496.945 334.234 496.586 334.294 496.336C334.355 496.085 334.659 495.755 334.45 495.504C334.24 495.254 333.723 495.26 333.453 495.388C333.101 495.561 332.825 495.856 332.674 496.218C332.524 496.58 332.51 496.984 332.636 497.355C332.744 497.752 333.166 498.117 333.501 498.418C334.07 498.922 334.667 499.395 335.289 499.834C335.998 500.348 336.731 500.845 337.47 501.331C337.846 501.588 339.014 502.521 339.576 502.322Z" fill="#C16748"/>
<path d="M335.397 507.362C335.683 507.277 335.946 507.129 336.169 506.93C336.344 506.756 336.307 506.512 336.296 506.283C336.184 504.168 334.389 501.264 332.113 500.931C331.894 500.876 331.664 500.903 331.464 501.007C331.226 501.167 331.181 501.493 331.209 501.774C331.237 502.054 332.893 502.326 333.042 502.482C333.56 502.999 333.983 503.603 334.292 504.266C334.646 505.056 334.941 505.965 334.791 506.857C334.724 507.274 334.915 507.529 335.306 507.39L335.397 507.362Z" fill="#C16748"/>
<path d="M329.086 510.252C329.322 510.189 329.543 510.078 329.734 509.926C329.879 509.794 329.851 509.604 329.84 509.431C329.747 507.805 328.242 505.574 326.333 505.317C326.15 505.276 325.959 505.296 325.789 505.376C325.701 505.444 325.634 505.535 325.595 505.639C325.557 505.744 325.549 505.857 325.572 505.965C325.594 506.162 325.769 507.013 326.113 506.764C326.13 506.594 326.422 506.492 326.606 506.52C326.79 506.548 326.952 506.736 327.077 506.855C327.413 507.19 327.715 507.557 327.979 507.952C328.374 508.513 328.694 509.187 328.575 509.867C328.519 510.185 328.677 510.381 329.008 510.276L329.086 510.252Z" fill="#C16748"/>
<path d="M330.93 513.975C331.101 513.977 331.265 513.912 331.388 513.794C331.442 513.742 331.484 513.679 331.511 513.61C331.538 513.541 331.55 513.466 331.545 513.392C331.541 513.318 331.521 513.246 331.486 513.18C331.451 513.114 331.402 513.057 331.343 513.012C330.627 512.431 324.26 507.345 321.508 507.533C321.296 507.538 321.087 507.584 320.894 507.669C320.7 507.754 320.525 507.877 320.379 508.03C320.328 508.083 320.29 508.147 320.266 508.217C320.242 508.286 320.233 508.36 320.24 508.434C320.247 508.507 320.27 508.578 320.307 508.642C320.344 508.705 320.394 508.76 320.455 508.803C320.772 509.004 321.017 508.675 321.356 508.615C322.044 508.49 322.755 508.848 323.348 509.112C324.169 509.489 324.963 509.922 325.726 510.407C327.391 511.445 328.989 512.586 330.51 513.824C330.628 513.922 330.777 513.976 330.93 513.975Z" fill="#CC937A"/>
<path d="M336.363 511.846C336.505 511.86 336.647 511.827 336.768 511.753C336.834 511.712 336.892 511.659 336.937 511.595C336.982 511.532 337.013 511.46 337.029 511.384C337.045 511.308 337.046 511.229 337.03 511.153C337.014 511.077 336.983 511.004 336.938 510.941C336.35 510.088 335.401 509.384 334.495 508.87C332.225 507.574 329.522 507.395 327.008 507.967C326.511 508.079 326.022 508.22 325.54 508.38C325.157 508.509 324.526 508.645 324.223 508.911C324.175 508.946 324.142 508.999 324.13 509.058C324.13 509.17 324.323 509.338 324.372 509.453C324.44 509.6 324.562 509.715 324.713 509.774C324.863 509.834 325.031 509.834 325.181 509.775C332.515 506.894 335.775 511.39 335.911 511.582C335.964 511.656 336.031 511.717 336.109 511.763C336.187 511.808 336.273 511.836 336.363 511.846Z" fill="#CC937A"/>
<path d="M329.114 504.533C329.252 504.607 329.413 504.624 329.563 504.581C330.169 504.402 330.764 504.191 331.347 503.948C332.236 503.596 333.001 503.3 333.706 503.372C337.598 503.804 339.721 507.282 339.814 507.442C339.877 507.575 339.985 507.681 340.119 507.741C340.252 507.802 340.403 507.814 340.545 507.775C340.618 507.755 340.687 507.72 340.746 507.672C340.805 507.624 340.854 507.564 340.889 507.497C340.924 507.429 340.945 507.355 340.95 507.279C340.955 507.203 340.944 507.127 340.919 507.056C340.774 506.624 338.246 502.737 333.797 502.221C332.791 502.106 331.851 502.48 330.859 502.868C330.314 503.096 329.757 503.294 329.192 503.462C329.118 503.482 329.049 503.516 328.99 503.564C328.93 503.611 328.881 503.67 328.845 503.737C328.81 503.804 328.788 503.878 328.782 503.953C328.776 504.029 328.786 504.105 328.811 504.177C328.861 504.331 328.97 504.459 329.114 504.533Z" fill="#CC937A"/>
<path d="M332.175 500.027C332.27 500.048 332.369 500.037 332.456 499.996C333.867 499.441 335.396 499.253 336.899 499.45C339.111 499.722 342.056 500.916 343.022 501.309C343.312 501.426 343.375 501.452 343.431 501.467C343.556 501.485 343.683 501.456 343.787 501.386C343.892 501.316 343.968 501.21 343.999 501.088C344.031 500.967 344.016 500.837 343.958 500.726C343.901 500.614 343.804 500.527 343.686 500.482L343.377 500.357C342.385 499.955 339.366 498.731 337.049 498.444C335.384 498.221 333.69 498.436 332.134 499.068C332.017 499.128 331.925 499.228 331.875 499.35C331.825 499.472 331.821 499.608 331.864 499.733C331.887 499.804 331.927 499.868 331.982 499.919C332.036 499.971 332.103 500.008 332.175 500.027Z" fill="#CC937A"/>
<path d="M334.041 494.956C334.094 494.969 334.148 494.972 334.202 494.964C334.255 494.955 334.306 494.937 334.352 494.908C334.387 494.891 335.485 494.327 338.138 494.831C338.625 494.921 339.128 495.019 339.632 495.118C343.673 495.904 344.919 496.083 345.39 495.751C345.501 495.668 345.58 495.55 345.615 495.416C345.651 495.283 345.64 495.141 345.584 495.014C345.562 494.961 345.528 494.912 345.485 494.873C345.442 494.834 345.391 494.804 345.336 494.787C345.28 494.769 345.221 494.764 345.164 494.771C345.106 494.778 345.05 494.798 345.001 494.828C344.506 494.969 341.822 494.446 339.857 494.064C339.353 493.967 338.85 493.867 338.361 493.777C335.373 493.211 334.13 493.885 333.998 493.965C333.882 494.04 333.795 494.152 333.751 494.283C333.707 494.414 333.708 494.556 333.756 494.686C333.779 494.75 333.816 494.808 333.866 494.855C333.916 494.902 333.976 494.937 334.041 494.956Z" fill="#CC937A"/>
<path d="M334.642 490.894C334.718 490.891 334.791 490.872 334.858 490.838C334.891 490.823 337.948 489.276 340.112 489.199C342.395 489.117 346.051 488.89 346.088 488.888C346.221 488.877 346.344 488.814 346.43 488.714C346.517 488.613 346.561 488.483 346.553 488.351C346.545 488.218 346.485 488.094 346.387 488.005C346.288 487.916 346.158 487.869 346.025 487.875C345.989 487.875 342.35 488.104 340.075 488.184C337.697 488.268 334.534 489.866 334.4 489.933C334.299 489.986 334.219 490.07 334.172 490.174C334.125 490.277 334.114 490.393 334.141 490.503C334.167 490.614 334.23 490.712 334.319 490.783C334.408 490.853 334.518 490.893 334.631 490.894H334.642Z" fill="#CC937A"/>
<path d="M342.134 493.559C342.188 493.491 342.226 493.412 342.246 493.328C342.335 493.038 342.423 492.747 342.514 492.464C342.522 492.437 342.528 492.41 342.529 492.382C342.529 492.265 342.175 492.028 342.082 491.939C341.915 491.783 341.747 491.635 341.574 491.488C341.196 491.161 340.802 490.852 340.391 490.561C339.764 490.116 339.01 489.57 338.212 489.453C337.508 489.35 336.823 489.146 336.177 488.849C335.745 488.65 335.15 488.369 334.934 487.942C334.923 487.921 334.915 487.898 334.912 487.875C334.912 487.843 334.918 487.812 334.932 487.784C335.005 487.568 334.932 487.471 334.716 487.419C334.56 487.381 334.395 487.405 334.257 487.485C334.118 487.566 334.016 487.697 333.972 487.851C333.931 488.024 333.929 488.203 333.966 488.377C334.004 488.55 334.079 488.713 334.188 488.853C334.904 489.864 337.085 490.473 338.03 490.609C338.808 490.723 339.576 491.41 340.158 491.87C340.534 492.168 340.901 492.479 341.254 492.805C341.531 493.06 341.781 493.392 342.106 493.591L342.134 493.559Z" fill="#C16748"/>
<path d="M299.13 521.356C299.13 521.356 306.001 527.543 322.937 527.23C339.872 526.917 363.659 517.512 363.659 517.512L364.741 521.544C364.741 521.544 330.227 534.981 321.73 532.253C313.233 529.526 298.261 524.574 298.261 524.574L299.13 521.356Z" fill="black"/>
<path d="M296.332 527.805C296.332 527.805 297.018 525.094 297.383 524.388C297.748 523.682 298.998 523.879 298.998 523.879C298.998 523.879 312.064 529.023 321.869 529.277C328.188 529.446 344.478 526.446 355.054 523.049C358.356 522.004 361.603 520.795 364.784 519.426C365.956 519.473 366.235 520.259 366.235 520.259L367.649 526.857C367.079 527.361 366.463 527.812 365.811 528.204C365.655 527.772 365.378 527.183 365.048 527.224L364.812 528.709L364.738 528.74C363.969 529.044 362.864 529.461 361.495 529.86C361.389 529.377 361.102 528.584 360.367 528.675L360.192 530.208C359.123 530.472 358.04 530.676 356.948 530.821L356.202 530.916C356.088 530.521 355.753 529.653 355.197 529.621C355.197 529.621 355.169 530.418 355.163 531.048C352.642 531.338 351.089 531.417 351.089 531.417C350.402 529.532 349.36 528.61 349.36 528.61L339.213 531.18V532.75C339.213 532.75 337.658 533.132 335.702 533.558C335.516 533.057 335.17 532.353 334.701 532.37V533.771C333.317 534.063 331.84 534.346 330.616 534.519C330.578 534.262 330.451 534.027 330.257 533.855C330.063 533.682 329.814 533.583 329.555 533.575C329.555 533.575 329.494 534.166 329.436 534.655C327.922 534.812 326.288 534.903 324.813 534.953C324.751 534.607 324.651 534.141 324.651 534.141L323.655 533.905L323.367 534.985C322.377 535.004 321.531 535.011 320.948 535.011C320.208 534.953 319.474 534.836 318.753 534.661V533.428L317.999 533.059L317.298 534.335C316.018 534.035 314.531 533.657 313.006 533.255L312.935 531.886C312.69 531.768 312.438 531.663 312.18 531.573C312.124 531.573 311.724 532.355 311.48 532.841C308.937 532.141 306.449 531.407 304.777 530.852C300.412 529.413 296.332 527.805 296.332 527.805Z" fill="#270E07"/>
<path d="M387.89 474.937C387.89 474.937 382.857 474.168 385.125 479.796C385.687 481.191 393.598 502.516 374.963 509.343C374.963 509.343 370.68 511.027 374.109 513.986C377.538 516.944 393.239 517.469 396.277 508.529C399.314 499.588 404.361 486.285 400.72 482.534C397.079 478.783 387.89 474.937 387.89 474.937Z" fill="#271008"/>
<path d="M410.549 524.66C410.549 524.66 403.926 526.204 395.232 527.712C388.781 528.83 381.179 529.927 374.316 530.355C364.663 530.96 356.44 530.24 354.83 526.405C350.525 516.162 358.6 518.151 368.957 514.387C371.7 513.39 374.264 512.444 376.597 511.403C383.248 508.438 388.017 504.726 389.663 496.966C391.888 486.484 385.122 473.991 385.122 473.991C385.122 473.991 390.919 471.346 394.636 471.061C398.352 470.776 401.829 487.175 400.447 494.785C399.582 499.579 403.814 510.198 407.068 517.396C408.979 521.617 410.549 524.66 410.549 524.66Z" fill="#633525"/>
<path opacity="0.59" d="M407.072 517.393C406.416 518.584 405.606 519.683 404.663 520.663C401.903 523.484 398.722 525.861 395.232 527.709C388.781 528.828 381.179 529.925 374.316 530.353C373.197 529.79 372.191 529.026 371.35 528.098C371.35 528.098 381.525 526.612 380.496 520.207C379.466 513.802 376.604 511.401 376.604 511.401C383.254 508.436 388.024 504.723 389.669 496.964C391.219 489.654 391.799 482.161 392.006 478.293C392.171 475.224 394.471 472.635 397.526 472.266C397.626 472.253 397.727 472.242 397.831 472.235C401.543 471.953 401.84 487.173 400.458 494.783C399.58 499.579 403.818 510.198 407.072 517.393Z" fill="#2B0F04"/>
<path d="M397.978 473.004C396.597 473.389 395.396 474.247 394.586 475.429C393.776 476.611 393.409 478.04 393.55 479.466C394.324 487.383 396.073 503.264 388.735 507.222C379.512 512.189 379.438 510.677 381.551 516.34C383.663 522.002 383.185 529.806 383.185 529.806C383.185 529.806 414.499 526.505 419.056 522.512C420.978 520.829 416.334 512.344 414.025 501.627C410.853 486.907 409.249 469.096 409.249 469.096C405.585 470.652 401.819 471.958 397.978 473.004Z" fill="#7A402A"/>
<path d="M385.654 515.182C386.485 515.182 387.159 514.509 387.159 513.679C387.159 512.849 386.485 512.176 385.654 512.176C384.823 512.176 384.149 512.849 384.149 513.679C384.149 514.509 384.823 515.182 385.654 515.182Z" fill="white"/>
<path d="M386.694 513.597C386.678 513.391 386.601 513.195 386.473 513.033C386.345 512.872 386.172 512.751 385.975 512.688C385.779 512.624 385.568 512.62 385.369 512.676C385.171 512.732 384.993 512.846 384.859 513.003C384.725 513.16 384.641 513.353 384.616 513.557C384.592 513.762 384.629 513.969 384.723 514.153C384.816 514.337 384.962 514.489 385.142 514.59C385.323 514.691 385.529 514.736 385.734 514.72C385.871 514.709 386.005 514.672 386.127 514.61C386.249 514.547 386.358 514.462 386.447 514.357C386.537 514.253 386.604 514.132 386.647 514.002C386.689 513.871 386.705 513.734 386.694 513.597Z" fill="black"/>
<path d="M390.636 512.64C391.467 512.64 392.141 511.967 392.141 511.137C392.141 510.307 391.467 509.634 390.636 509.634C389.805 509.634 389.131 510.307 389.131 511.137C389.131 511.967 389.805 512.64 390.636 512.64Z" fill="white"/>
<path d="M391.676 511.057C391.66 510.852 391.583 510.655 391.455 510.493C391.327 510.331 391.154 510.211 390.958 510.147C390.762 510.083 390.551 510.078 390.352 510.134C390.153 510.19 389.975 510.303 389.841 510.46C389.707 510.617 389.622 510.81 389.598 511.015C389.573 511.22 389.61 511.427 389.704 511.611C389.797 511.795 389.943 511.947 390.124 512.048C390.304 512.149 390.51 512.194 390.716 512.178C390.853 512.168 390.986 512.131 391.108 512.069C391.231 512.007 391.34 511.921 391.429 511.817C391.518 511.713 391.586 511.592 391.628 511.462C391.67 511.331 391.687 511.194 391.676 511.057Z" fill="black"/>
<path d="M394.248 507.9C395.08 507.9 395.753 507.227 395.753 506.397C395.753 505.567 395.08 504.894 394.248 504.894C393.417 504.894 392.744 505.567 392.744 506.397C392.744 507.227 393.417 507.9 394.248 507.9Z" fill="white"/>
<path d="M395.291 506.315C395.274 506.109 395.197 505.913 395.069 505.752C394.941 505.59 394.768 505.469 394.572 505.406C394.375 505.342 394.165 505.338 393.966 505.394C393.767 505.45 393.59 505.564 393.456 505.721C393.322 505.878 393.237 506.071 393.213 506.275C393.188 506.48 393.225 506.687 393.319 506.871C393.413 507.055 393.559 507.207 393.739 507.308C393.919 507.409 394.125 507.454 394.331 507.438C394.468 507.427 394.601 507.39 394.723 507.328C394.846 507.265 394.955 507.18 395.044 507.075C395.133 506.971 395.201 506.85 395.243 506.72C395.285 506.589 395.302 506.452 395.291 506.315Z" fill="black"/>
<path d="M396.307 501.506C397.138 501.506 397.812 500.833 397.812 500.003C397.812 499.173 397.138 498.5 396.307 498.5C395.476 498.5 394.802 499.173 394.802 500.003C394.802 500.833 395.476 501.506 396.307 501.506Z" fill="white"/>
<path d="M397.347 499.923C397.331 499.717 397.254 499.521 397.126 499.359C396.999 499.197 396.826 499.076 396.629 499.012C396.433 498.948 396.222 498.944 396.023 499C395.824 499.055 395.646 499.169 395.512 499.326C395.378 499.482 395.293 499.675 395.269 499.88C395.244 500.085 395.281 500.293 395.375 500.477C395.468 500.66 395.615 500.812 395.795 500.913C395.975 501.014 396.181 501.06 396.387 501.044C396.663 501.022 396.919 500.892 397.099 500.682C397.279 500.472 397.368 500.199 397.347 499.923Z" fill="black"/>
<path d="M397.68 495.515C398.511 495.515 399.185 494.842 399.185 494.012C399.185 493.182 398.511 492.509 397.68 492.509C396.849 492.509 396.175 493.182 396.175 494.012C396.175 494.842 396.849 495.515 397.68 495.515Z" fill="white"/>
<path d="M398.722 493.93C398.705 493.725 398.628 493.529 398.5 493.367C398.372 493.205 398.199 493.085 398.003 493.021C397.807 492.957 397.596 492.953 397.397 493.009C397.198 493.065 397.021 493.179 396.887 493.336C396.753 493.493 396.668 493.686 396.644 493.89C396.62 494.095 396.657 494.303 396.75 494.486C396.844 494.67 396.99 494.822 397.17 494.923C397.35 495.024 397.556 495.069 397.762 495.053C398.038 495.031 398.294 494.9 398.474 494.69C398.654 494.479 398.743 494.206 398.722 493.93Z" fill="black"/>
<path d="M397.965 488.927C398.796 488.927 399.47 488.254 399.47 487.423C399.47 486.593 398.796 485.92 397.965 485.92C397.134 485.92 396.46 486.593 396.46 487.423C396.46 488.254 397.134 488.927 397.965 488.927Z" fill="white"/>
<path d="M399.007 487.341C398.993 487.136 398.917 486.939 398.791 486.776C398.664 486.613 398.492 486.491 398.296 486.426C398.1 486.361 397.889 486.355 397.69 486.409C397.491 486.464 397.312 486.576 397.177 486.731C397.042 486.887 396.956 487.08 396.93 487.284C396.904 487.489 396.939 487.696 397.031 487.881C397.123 488.066 397.268 488.219 397.448 488.321C397.627 488.423 397.833 488.47 398.039 488.456C398.315 488.436 398.572 488.307 398.753 488.099C398.935 487.89 399.026 487.617 399.007 487.341Z" fill="black"/>
<path d="M397.684 482.163C398.515 482.163 399.189 481.49 399.189 480.66C399.189 479.83 398.515 479.157 397.684 479.157C396.853 479.157 396.179 479.83 396.179 480.66C396.179 481.49 396.853 482.163 397.684 482.163Z" fill="white"/>
<path d="M398.726 480.58C398.71 480.374 398.633 480.178 398.506 480.016C398.378 479.854 398.205 479.733 398.009 479.669C397.812 479.605 397.601 479.601 397.402 479.657C397.204 479.713 397.026 479.826 396.892 479.983C396.757 480.14 396.673 480.333 396.648 480.537C396.624 480.742 396.661 480.95 396.754 481.134C396.848 481.318 396.994 481.47 397.174 481.571C397.354 481.671 397.56 481.717 397.766 481.701C398.042 481.679 398.298 481.548 398.478 481.338C398.658 481.128 398.747 480.856 398.726 480.58Z" fill="black"/>
<path d="M393.622 497.645C393.638 497.623 393.645 497.596 393.643 497.569C393.669 497.474 393.723 497.388 393.797 497.323C393.868 497.243 393.933 497.158 393.991 497.068C394.059 496.973 394.104 496.865 394.125 496.75C394.166 496.396 393.539 496.135 393.286 495.954C392.921 495.692 390.223 494.273 388.022 492.066C387.864 491.909 387.602 491.203 387.527 491.22C387.153 491.306 386.508 491.76 386.632 492.112C386.643 492.142 386.657 492.17 386.673 492.198C386.874 492.576 387.267 492.887 387.585 493.17C388.145 493.667 388.735 494.133 389.33 494.591C389.732 494.902 393.438 497.828 393.622 497.645Z" fill="#C16748"/>
<path d="M392.77 501.685L392.815 501.661C392.88 501.618 392.936 501.564 392.982 501.501C393.116 501.337 393.373 501.07 393.308 500.854C393.235 500.61 392.78 500.538 392.553 500.422C392.177 500.227 391.805 499.99 391.433 499.787C390.726 499.394 390.026 498.992 389.338 498.578C388.807 498.258 388.279 497.93 387.78 497.58C387.531 497.407 387.187 497.247 387.044 497.003C386.902 496.759 386.986 496.392 387.044 496.139C387.103 495.887 387.364 495.533 387.135 495.299C386.906 495.066 386.391 495.114 386.132 495.26C385.794 495.46 385.541 495.776 385.419 496.149C385.297 496.521 385.314 496.925 385.468 497.286C385.609 497.673 386.059 498.005 386.409 498.277C387.016 498.736 387.647 499.162 388.301 499.551C389.049 500.009 389.814 500.445 390.595 500.875C390.988 501.089 392.218 501.927 392.77 501.685Z" fill="#C16748"/>
<path d="M388.995 507.028C389.273 506.924 389.524 506.76 389.732 506.548C389.894 506.363 389.838 506.116 389.81 505.9C389.533 503.799 387.518 501.044 385.222 500.89C384.998 500.851 384.767 500.895 384.573 501.016C384.357 501.193 384.331 501.521 384.381 501.799C384.431 502.078 386.11 502.221 386.262 502.363C386.819 502.838 387.288 503.406 387.648 504.043C388.063 504.806 388.42 505.689 388.348 506.581C388.314 507.002 388.521 507.229 388.902 507.073L388.995 507.028Z" fill="#C16748"/>
<path d="M382.93 510.405C383.161 510.325 383.372 510.198 383.551 510.032C383.687 509.889 383.641 509.701 383.618 509.531C383.401 507.915 381.724 505.808 379.802 505.702C379.615 505.674 379.425 505.709 379.261 505.801C379.18 505.876 379.121 505.973 379.091 506.08C379.062 506.187 379.063 506.299 379.095 506.406C379.131 506.6 379.371 507.436 379.696 507.162C379.696 506.989 379.983 506.866 380.167 506.879C380.357 506.93 380.53 507.033 380.664 507.177C381.026 507.484 381.357 507.827 381.65 508.2C382.083 508.729 382.459 509.375 382.394 510.062C382.361 510.386 382.534 510.567 382.854 510.435L382.93 510.405Z" fill="#C16748"/>
<path d="M385.066 513.975C385.233 513.961 385.388 513.884 385.499 513.759C385.548 513.703 385.585 513.638 385.607 513.567C385.629 513.496 385.635 513.421 385.625 513.347C385.615 513.273 385.589 513.203 385.549 513.14C385.509 513.077 385.455 513.024 385.393 512.984C384.634 512.461 377.89 507.887 375.159 508.289C374.737 508.333 374.348 508.542 374.078 508.87C374.032 508.927 373.999 508.994 373.981 509.065C373.963 509.137 373.96 509.211 373.973 509.284C373.986 509.356 374.014 509.425 374.056 509.486C374.097 509.547 374.152 509.598 374.215 509.636C374.55 509.809 374.766 509.466 375.099 509.377C375.776 509.2 376.513 509.5 377.123 509.718C377.975 510.035 378.805 510.408 379.607 510.835C381.348 511.739 383.029 512.753 384.642 513.869C384.767 513.952 384.917 513.99 385.066 513.975Z" fill="#CC937A"/>
<path d="M390.309 511.429C390.451 511.432 390.59 511.389 390.705 511.306C390.768 511.26 390.821 511.202 390.861 511.136C390.901 511.069 390.927 510.995 390.937 510.918C390.947 510.841 390.941 510.762 390.92 510.687C390.899 510.613 390.862 510.543 390.813 510.483C390.164 509.677 389.157 509.051 388.219 508.606C385.855 507.496 383.153 507.527 380.684 508.291C380.197 508.442 379.722 508.619 379.255 508.816C378.881 508.976 378.262 509.159 377.981 509.446C377.936 509.486 377.907 509.542 377.901 509.602C377.901 509.714 378.117 509.865 378.174 509.978C378.253 510.118 378.383 510.223 378.538 510.271C378.692 510.318 378.859 510.306 379.004 510.235C386.091 506.792 389.693 511.021 389.842 511.202C389.899 511.271 389.971 511.327 390.051 511.366C390.132 511.405 390.22 511.426 390.309 511.429Z" fill="#CC937A"/>
<path d="M382.511 504.704C382.655 504.765 382.817 504.77 382.965 504.717C383.554 504.49 384.132 504.233 384.694 503.946C385.559 503.525 386.29 503.162 386.999 503.188C390.91 503.326 393.299 506.62 393.407 506.771C393.481 506.898 393.596 506.995 393.735 507.046C393.873 507.096 394.024 507.096 394.162 507.045C394.233 507.019 394.299 506.978 394.354 506.926C394.409 506.874 394.453 506.811 394.482 506.741C394.512 506.671 394.527 506.596 394.526 506.52C394.525 506.444 394.509 506.369 394.478 506.3C394.298 505.885 391.475 502.197 387.001 502.033C385.987 501.998 385.081 502.443 384.123 502.914C383.598 503.183 383.058 503.424 382.506 503.635C382.435 503.66 382.369 503.7 382.313 503.752C382.258 503.804 382.213 503.867 382.183 503.936C382.152 504.006 382.137 504.081 382.136 504.157C382.136 504.233 382.152 504.308 382.182 504.378C382.245 504.525 382.363 504.642 382.511 504.704Z" fill="#CC937A"/>
<path d="M385.213 499.973C385.309 499.986 385.406 499.967 385.49 499.919C386.855 499.258 388.364 498.951 389.879 499.029C392.104 499.13 395.133 500.091 396.127 500.407C396.264 500.457 396.405 500.499 396.547 500.532C396.673 500.54 396.797 500.502 396.897 500.424C396.996 500.346 397.063 500.234 397.085 500.11C397.107 499.986 397.082 499.858 397.016 499.751C396.949 499.644 396.845 499.565 396.724 499.53L396.406 499.43C395.386 499.107 392.281 498.12 389.946 498.016C388.27 497.925 386.599 498.27 385.096 499.018C384.984 499.087 384.9 499.194 384.861 499.32C384.821 499.446 384.828 499.582 384.88 499.703C384.908 499.772 384.954 499.833 385.012 499.88C385.07 499.927 385.139 499.959 385.213 499.973Z" fill="#CC937A"/>
<path d="M386.673 494.772C386.78 494.79 386.891 494.764 386.98 494.701C387.012 494.679 388.061 494.034 390.748 494.327L392.262 494.498C396.352 494.969 397.608 495.049 398.052 494.682C398.156 494.59 398.226 494.467 398.25 494.331C398.275 494.195 398.253 494.054 398.188 493.932C398.161 493.88 398.124 493.835 398.078 493.799C398.032 493.763 397.979 493.738 397.922 493.724C397.865 493.711 397.806 493.71 397.749 493.722C397.692 493.733 397.638 493.757 397.591 493.792C397.109 493.971 394.393 493.66 392.402 493.431L390.889 493.261C387.862 492.928 386.677 493.693 386.552 493.788C386.442 493.872 386.364 493.991 386.331 494.125C386.298 494.259 386.311 494.4 386.368 494.526C386.396 494.588 386.438 494.643 386.491 494.686C386.544 494.729 386.606 494.758 386.673 494.772Z" fill="#CC937A"/>
<path d="M386.958 490.674C387.035 490.667 387.109 490.643 387.174 490.602C387.202 490.583 390.132 488.803 392.283 488.559C394.553 488.3 398.181 487.788 398.218 487.784C398.352 487.765 398.472 487.694 398.553 487.586C398.635 487.479 398.669 487.343 398.651 487.21C398.632 487.076 398.56 486.956 398.453 486.875C398.345 486.794 398.209 486.759 398.075 486.778C398.039 486.778 394.426 487.292 392.169 487.551C389.79 487.821 386.774 489.656 386.647 489.734C386.532 489.805 386.45 489.918 386.419 490.048C386.387 490.179 386.408 490.317 386.478 490.432C386.527 490.513 386.598 490.579 386.683 490.622C386.768 490.665 386.863 490.683 386.958 490.674Z" fill="#CC937A"/>
<path d="M394.638 492.749C394.685 492.677 394.717 492.596 394.731 492.511C394.798 492.213 394.863 491.917 394.93 491.622C394.934 491.594 394.934 491.565 394.93 491.537C394.914 491.423 394.549 491.213 394.447 491.131C394.272 490.989 394.091 490.855 393.909 490.721C393.505 490.427 393.087 490.149 392.657 489.89C391.998 489.494 391.2 489.009 390.398 488.955C389.689 488.91 388.99 488.765 388.322 488.523C387.87 488.356 387.261 488.123 387.012 487.713C386.999 487.694 386.989 487.673 386.984 487.65C386.981 487.619 386.985 487.587 386.997 487.557C387.053 487.341 386.977 487.244 386.748 487.21C386.589 487.184 386.427 487.222 386.295 487.314C386.163 487.406 386.072 487.546 386.041 487.704C386.014 487.88 386.027 488.059 386.078 488.229C386.129 488.399 386.218 488.555 386.337 488.687C387.129 489.639 389.351 490.078 390.303 490.14C391.09 490.192 391.909 490.818 392.523 491.231C392.924 491.499 393.312 491.781 393.688 492.077C393.969 492.344 394.273 492.584 394.599 492.794C394.614 492.781 394.627 492.766 394.638 492.749Z" fill="#C16748"/>
<path d="M353.932 523.809C353.932 523.809 361.266 529.439 378.126 527.813C394.986 526.187 417.967 514.966 417.967 514.966L419.352 518.901C419.352 518.901 385.992 534.983 377.309 532.925C368.626 530.867 353.31 527.094 353.31 527.094L353.932 523.809Z" fill="black"/>
<path d="M351.643 530.454C351.643 530.454 352.116 527.699 352.425 526.967C352.734 526.235 353.997 526.332 353.997 526.332C353.997 526.332 367.421 530.435 377.218 529.942C383.531 529.619 399.537 525.362 409.818 521.151C413.028 519.853 416.172 518.395 419.236 516.782C420.408 516.737 420.749 517.499 420.749 517.499L422.673 523.978C422.144 524.526 421.565 525.024 420.944 525.466C420.756 525.051 420.425 524.481 420.107 524.548L419.988 526.047L419.917 526.083C419.171 526.446 418.103 526.947 416.764 527.453C416.62 526.977 416.274 526.209 415.547 526.358L415.491 527.9C414.445 528.246 413.381 528.534 412.304 528.763L411.567 528.919C411.422 528.532 411.022 527.692 410.464 527.697C410.464 527.697 410.499 528.493 410.54 529.124C408.049 529.608 406.508 529.806 406.508 529.806C405.677 527.982 404.562 527.146 404.562 527.146L394.644 530.495L394.767 532.063C394.767 532.063 393.254 532.564 391.33 533.143C391.114 532.659 390.705 531.983 390.249 532.037L390.359 533.434C389.003 533.832 387.548 534.229 386.346 534.497C386.289 534.243 386.144 534.018 385.937 533.86C385.729 533.702 385.473 533.622 385.213 533.633C385.213 533.633 385.2 534.229 385.181 534.728C383.687 535.002 382.061 535.22 380.595 535.387C380.504 535.045 380.379 534.59 380.379 534.59L379.367 534.432L379.164 535.538C378.18 535.635 377.335 535.706 376.755 535.754C376.013 535.755 375.272 535.696 374.539 535.577L374.444 534.348L373.663 534.039L373.064 535.365C371.767 535.164 370.254 534.903 368.699 534.616L368.522 533.257C368.268 533.158 368.009 533.074 367.746 533.005C367.69 533.005 367.352 533.819 367.147 534.322C364.552 533.823 362.018 533.283 360.317 532.862C355.837 531.741 351.643 530.454 351.643 530.454Z" fill="#270E07"/>
<path opacity="0.56" d="M477.374 245.694L501.241 244.701C501.241 244.701 503.204 244.701 502.755 248.135C502.305 251.568 491.475 257.077 485.305 255.157C479.134 253.238 474.693 250.257 475.037 247.882C475.381 245.506 475.567 245.12 477.374 245.694Z" fill="#DA8326"/>
<path d="M501.228 245.306C501.155 249.756 501.384 252.883 501.384 252.883C500.776 257.028 464.866 253.492 472.351 251.065C474.325 250.417 475.886 248.582 477.108 246.217C480.526 239.615 481.35 228.941 481.35 228.941C481.35 228.941 477.406 228.433 472.65 223.89C467.893 219.346 469.009 209.842 470.323 206.397C471.082 204.484 471.661 202.505 472.053 200.485C472.252 193.673 475.11 189.516 478.269 186.992C480.784 185.019 483.76 183.718 486.917 183.211C486.917 183.211 491.222 187.147 495.741 190.795C498.584 193.097 501.516 195.28 503.507 196.295C508.668 198.921 511.247 211.349 505.583 222.162C502.162 228.695 501.341 238.531 501.228 245.306Z" fill="#F8A478"/>
<path opacity="0.54" d="M502.238 206.395C498.588 213.811 497.388 210.498 495.285 205.041C493.181 199.584 482.974 199.282 482.974 192.16C482.974 185.037 478.263 187 478.263 187C480.778 185.028 483.754 183.727 486.911 183.219C486.911 183.219 491.216 187.156 495.734 190.803C500.368 196.23 504.032 202.75 502.238 206.395Z" fill="#DC6350"/>
<path d="M501.386 252.883C500.779 257.028 464.869 253.492 472.354 251.065C474.328 250.417 475.889 248.582 477.11 246.217C476.609 250.007 482.059 250.914 489.497 250.711C496.934 250.508 501.226 245.312 501.226 245.312C501.155 249.756 501.386 252.883 501.386 252.883Z" fill="#DC6350"/>
<path d="M478.263 187.003C478.263 187.003 480.208 180.809 482.569 181.077C484.93 181.345 482.163 195.224 487.56 197.042C492.956 198.861 499.834 204.452 498.35 207.954C498.35 207.954 497.135 210.716 499.293 208.831C501.451 206.946 503.745 204.452 506.443 206.069C509.141 207.687 508.06 218.193 503.274 218.396C503.274 218.396 501.721 226.883 505.161 228.23C505.161 228.23 504.08 225.267 507.455 222.976C510.83 220.685 522.224 212.468 515.277 199.4C515.277 199.4 517.872 187.545 508.791 182.357C499.71 177.17 484.995 176.836 481.084 179.859C477.173 182.882 478.263 187.003 478.263 187.003Z" fill="#252849"/>
<path d="M481.354 228.939C486.421 229.401 491.527 229.163 496.528 228.23C496.528 228.23 498.08 228.014 496.528 229.165C494.976 230.316 480.356 235.953 480.356 235.953C480.356 235.953 481.22 230.858 481.354 228.939Z" fill="#DC6350"/>
<path d="M516.153 333.92C514.333 368.472 494.844 398.788 494.844 398.788L478.252 394.469C478.252 394.469 478.725 383.287 478.725 382.477C478.725 381.667 477.644 381.397 474.14 384.228C470.635 387.059 469.167 387.21 469.167 387.21C456.724 389.18 443.825 361.596 436.541 352.049C434.966 350.026 433.174 348.18 431.199 346.544C423.832 340.331 414.842 336.74 414.842 336.74C422.431 334.617 438.059 302.188 438.059 302.188L434.115 291.682C434.115 291.682 455.52 263.288 459.001 257.93C462.482 252.572 470.892 249.193 472.252 248.556C473.612 247.919 473.668 246.364 475.376 245.504C477.084 244.645 477.636 245.133 477.636 245.133L477.374 245.69C475.571 245.774 475.428 246.554 475.428 246.554C474.754 250.123 481.834 252.549 488.377 252.413C494.919 252.277 502.404 247.765 502.474 246.351C502.508 245.974 502.402 245.597 502.177 245.293C501.951 244.989 501.621 244.778 501.25 244.701L501.263 244.163C502.954 244.029 503.451 246.282 503.425 248.405C503.404 249.675 503.718 250.93 504.335 252.041C504.941 253.178 505.476 254.351 505.935 255.555C511.148 268.868 517.801 302.676 516.153 333.92Z" fill="#F4B242"/>
<path d="M508.365 319.168C506.852 319.775 504.824 321.794 504.419 324.524C504.015 327.253 507.49 359.333 486.355 357.361C468.626 355.709 450.199 319.967 444.703 308.457C443.669 306.297 443.094 304.984 443.066 304.922C443.384 305.187 466.657 324.584 469.191 318.712C469.427 318.115 469.616 317.5 469.755 316.872C472.297 306.494 475.863 267.147 478.118 275.923L473.564 311.893C473.564 311.893 475.214 311.893 478.191 312.793C479.897 313.317 481.563 313.961 483.177 314.722C486.522 316.283 493.555 316.583 499.198 316.538C503.788 316.503 507.455 316.238 507.455 316.238L507.857 294.109C507.857 294.109 508.398 294.109 508.787 302.9C509.176 311.692 509.883 318.561 508.365 319.168Z" fill="#E07F30"/>
<path d="M499.198 316.538C499.168 317.957 499.116 319.635 499.019 321.474C498.411 333.008 496.082 350.928 487.527 351.602C474.87 352.6 452.357 318.697 448.984 313.037C448.056 311.484 446.536 309.919 444.703 308.457C439.866 304.593 431.278 302.43 428.143 301.181C423.106 299.179 422.278 299.238 421.264 297.612C420.25 295.985 415.197 293.772 415.632 292.964C416.066 292.157 420.051 292.964 420.051 292.964C419.848 291.954 420.725 290.133 420.725 290.133L419.783 288.585C418.838 287.036 418.972 284.341 418.972 284.341C418.972 284.341 413.783 278.346 416.343 277.828C418.903 277.31 423.424 283.197 426.721 285.553C430.018 287.909 439.771 291.079 440.582 290.876C441.393 290.673 440.074 280.167 441.289 278.351C442.504 276.535 444.121 279.562 445.334 286.341C446.547 293.12 450.393 295.536 455.247 303.518C457.87 307.837 464.345 313.02 469.748 316.885C474.356 320.183 478.18 322.515 478.18 322.515V312.797C479.886 313.321 481.552 313.966 483.166 314.726C486.522 316.283 493.557 316.583 499.198 316.538Z" fill="#F8A478"/>
<path opacity="0.82" d="M499.198 316.538C499.168 317.957 499.116 319.634 499.019 321.474C499.019 321.474 489.142 319.976 484.995 318.667C480.848 317.358 478.191 315.536 478.191 315.536V312.797C479.897 313.321 481.563 313.966 483.177 314.726C486.522 316.283 493.557 316.583 499.198 316.538Z" fill="#DC6350"/>
<path opacity="0.82" d="M478.191 322.502C478.191 322.502 486.277 328.117 491.538 337.619C491.538 337.619 492.753 338.699 491.2 335.261C489.648 331.823 485.211 322.394 478.191 319.835V322.502Z" fill="#DC6350"/>
<path opacity="0.56" d="M516.153 333.92C514.333 368.472 494.844 398.788 494.844 398.788L478.252 394.469C478.252 394.469 478.725 383.287 478.725 382.477C478.725 381.667 477.644 381.397 474.139 384.228C470.635 387.059 469.167 387.21 469.167 387.21C456.724 389.18 443.825 361.596 436.541 352.049C434.965 350.026 433.174 348.18 431.198 346.544C431.198 346.544 465.07 357.96 485.093 357.18C505.116 356.4 500.729 331.285 500.729 330.834C500.729 330.382 501.185 328.711 501.185 328.711L502.822 325.377C504.456 322.044 508.315 317.497 508.789 312.789C509.262 308.081 505.92 255.561 505.92 255.561C511.148 268.868 517.801 302.676 516.153 333.92Z" fill="#DA8326"/>
<path d="M384.08 392.356C383.948 392.226 383.832 392.081 383.734 391.925C383.849 392.056 383.965 392.201 384.08 392.356Z" stroke="white" stroke-miterlimit="10"/>
<path d="M419.011 284.311C419.419 284.706 419.832 285.099 420.245 285.488L421.486 286.656C422.321 287.427 423.166 288.187 424.038 288.915C424.47 289.28 424.902 289.641 425.372 289.967C425.841 290.293 426.31 290.615 426.779 290.93C427.722 291.568 428.659 292.211 429.59 292.861L429.54 292.932C428.452 292.543 427.399 292.064 426.392 291.498C426.139 291.364 425.888 291.23 425.646 291.081C425.404 290.932 425.164 290.803 424.9 290.634C424.637 290.466 424.407 290.295 424.163 290.125C423.919 289.954 423.7 289.762 423.478 289.578C422.598 288.833 421.774 288.025 421.013 287.159C420.233 286.301 419.541 285.367 418.946 284.372L419.011 284.311Z" fill="#DC6350"/>
<path d="M420.753 290.101C421.275 290.533 421.789 290.965 422.299 291.396L423.834 292.707L425.348 294.04C425.857 294.483 426.361 294.931 426.861 295.383L426.805 295.45C426.135 295.238 425.495 294.939 424.903 294.562C424.328 294.205 423.783 293.803 423.272 293.359C422.76 292.919 422.284 292.437 421.85 291.919C421.392 291.386 421.006 290.795 420.702 290.161L420.753 290.101Z" fill="#DC6350"/>
<path d="M420.092 292.934L421.54 294.245C422.027 294.677 422.516 295.109 423.013 295.528C423.51 295.947 424.001 296.374 424.515 296.769C424.775 296.966 425.032 297.165 425.305 297.339L425.504 297.478L425.72 297.599C425.857 297.683 426.002 297.755 426.152 297.815L426.128 297.899C425.945 297.917 425.76 297.907 425.579 297.871C425.402 297.84 425.228 297.796 425.058 297.739C424.731 297.628 424.412 297.491 424.107 297.329C423.518 297.01 422.966 296.628 422.459 296.191C421.955 295.761 421.494 295.284 421.082 294.765C420.65 294.233 420.299 293.64 420.04 293.005L420.092 292.934Z" fill="#DC6350"/>
<path d="M387.481 263.046C388.573 262.852 389.683 262.78 390.791 262.83C391.89 262.861 392.984 262.977 394.065 263.176C395.156 263.37 396.225 263.668 397.26 264.063L397.649 264.217C397.782 264.264 397.91 264.32 398.034 264.385C398.287 264.515 398.538 264.631 398.785 264.767C399.031 264.903 399.269 265.067 399.5 265.227C399.726 265.401 399.942 265.586 400.149 265.782L400.106 265.858L399.381 265.499L398.627 265.206C398.117 265.031 397.604 264.858 397.081 264.722C396.039 264.439 394.979 264.212 393.913 264.027C392.848 263.841 391.779 263.655 390.705 263.513C390.169 263.442 389.632 263.375 389.094 263.312C388.556 263.247 388.013 263.184 387.479 263.135L387.481 263.046Z" fill="#DC6350"/>
<path d="M392.437 259.409C393.255 259.192 394.103 259.105 394.949 259.153C395.785 259.177 396.616 259.298 397.425 259.513C398.251 259.724 399.042 260.052 399.775 260.487C400.149 260.713 400.498 260.978 400.815 261.28C401.138 261.585 401.395 261.952 401.572 262.359L401.507 262.418C401.226 262.132 400.909 261.884 400.564 261.679C400.221 261.469 399.865 261.283 399.496 261.122C398.753 260.806 397.986 260.55 397.202 260.355C396.424 260.139 395.632 259.975 394.824 259.837C394.426 259.768 394.026 259.707 393.624 259.651C393.222 259.595 392.822 259.541 392.419 259.502L392.437 259.409Z" fill="#DC6350"/>
<path d="M499.777 211.796C500.094 211.204 500.495 210.66 500.967 210.181C501.437 209.692 501.975 209.272 502.564 208.935C503.159 208.594 503.815 208.374 504.495 208.287C505.17 208.2 505.855 208.279 506.493 208.516C505.845 208.433 505.187 208.457 504.547 208.587C504.233 208.653 503.925 208.745 503.626 208.864C503.328 208.979 503.038 209.117 502.761 209.276C502.199 209.598 501.67 209.976 501.183 210.403C500.684 210.836 500.215 211.301 499.777 211.796Z" fill="#DC6350"/>
<path d="M505.693 210.77C505.477 210.554 505.26 210.358 505.044 210.168C504.831 209.984 504.606 209.814 504.37 209.66C504.136 209.509 503.887 209.381 503.628 209.278C503.356 209.176 503.076 209.094 502.791 209.032C503.089 208.941 503.405 208.926 503.71 208.987C504.019 209.042 504.313 209.16 504.575 209.332C504.835 209.503 505.066 209.715 505.258 209.961C505.456 210.199 505.604 210.474 505.693 210.77Z" fill="#DC6350"/>
<path d="M224.564 152.901C224.626 152.661 224.766 152.448 224.961 152.295C225.156 152.142 225.397 152.058 225.645 152.055C226.175 152.077 226.772 152.552 226.854 154.512C226.981 157.536 224.811 156.605 224.515 154.888C224.383 154.231 224.4 153.552 224.564 152.901Z" fill="black"/>
<path d="M211.056 153.539C211.126 153.255 211.29 153.003 211.519 152.822C211.749 152.641 212.032 152.541 212.325 152.539C212.947 152.569 213.65 153.133 213.754 155.454C213.914 159.026 211.36 157.922 211.006 155.886C210.849 155.109 210.866 154.308 211.056 153.539Z" fill="black"/>
<path d="M220.134 154.502C220.134 154.502 224.063 162.334 223.302 163.479C222.54 164.623 219.38 164.537 219.38 164.537C219.38 164.537 222.093 164.263 222.043 162.028C221.993 159.793 220.134 154.502 220.134 154.502Z" fill="#DC6350"/>
<path d="M228.653 147.935C228.021 147.798 227.438 147.662 226.863 147.554C226.307 147.442 225.744 147.37 225.178 147.339C224.626 147.308 224.073 147.342 223.529 147.44C222.939 147.553 222.36 147.717 221.799 147.93C222.14 147.36 222.648 146.908 223.254 146.635C223.869 146.35 224.545 146.221 225.221 146.261C225.883 146.294 226.531 146.46 227.126 146.749C227.721 147.02 228.243 147.426 228.653 147.935Z" fill="#231F20"/>
<path d="M213.994 147.818C213.304 147.748 212.609 147.742 211.918 147.799C211.262 147.855 210.611 147.964 209.972 148.125C209.659 148.224 209.337 148.297 209.028 148.418C208.872 148.474 208.71 148.518 208.556 148.585C208.403 148.652 208.245 148.71 208.087 148.77C207.929 148.831 207.771 148.9 207.616 148.969C207.46 149.038 207.298 149.107 207.134 149.172C206.816 149.317 206.485 149.472 206.141 149.604C206.243 149.451 206.357 149.306 206.468 149.172C206.578 149.038 206.701 148.885 206.829 148.753C206.956 148.621 207.099 148.505 207.24 148.386C207.373 148.26 207.518 148.146 207.672 148.045C207.825 147.941 207.981 147.829 208.141 147.742C208.302 147.64 208.468 147.547 208.641 147.466C208.981 147.306 209.335 147.176 209.698 147.077C210.433 146.888 211.197 146.845 211.949 146.95C212.699 147.039 213.409 147.34 213.994 147.818Z" fill="#231F20"/>
<path d="M211.099 170.081C211.099 170.081 216.095 173.488 223.423 171.225C223.416 171.221 218.303 175.222 211.099 170.081Z" fill="#DC6350"/>
<path d="M226.079 153.913C226.318 153.873 226.474 153.613 226.427 153.334C226.38 153.054 226.148 152.859 225.909 152.899C225.67 152.939 225.514 153.198 225.561 153.478C225.608 153.758 225.84 153.953 226.079 153.913Z" fill="white"/>
<path d="M212.955 154.446C213.144 154.227 213.13 153.905 212.923 153.728C212.717 153.551 212.397 153.585 212.208 153.805C212.019 154.025 212.033 154.346 212.239 154.523C212.445 154.7 212.766 154.666 212.955 154.446Z" fill="white"/>
<path opacity="0.28" d="M212.586 163.462C215.17 163.462 217.265 161.155 217.265 158.309C217.265 155.463 215.17 153.156 212.586 153.156C210.002 153.156 207.908 155.463 207.908 158.309C207.908 161.155 210.002 163.462 212.586 163.462Z" fill="white"/>
<path opacity="0.28" d="M227.546 163.174C230.13 163.174 232.224 160.867 232.224 158.022C232.224 155.176 230.13 152.869 227.546 152.869C224.962 152.869 222.867 155.176 222.867 158.022C222.867 160.867 224.962 163.174 227.546 163.174Z" fill="white"/>
<path d="M212.586 163.462C215.17 163.462 217.265 161.155 217.265 158.309C217.265 155.463 215.17 153.156 212.586 153.156C210.002 153.156 207.908 155.463 207.908 158.309C207.908 161.155 210.002 163.462 212.586 163.462Z" stroke="black" stroke-width="2" stroke-miterlimit="10"/>
<path d="M227.546 163.174C230.13 163.174 232.224 160.867 232.224 158.022C232.224 155.176 230.13 152.869 227.546 152.869C224.962 152.869 222.867 155.176 222.867 158.022C222.867 160.867 224.962 163.174 227.546 163.174Z" stroke="black" stroke-width="2" stroke-miterlimit="10"/>
<path d="M217.265 158.309C217.265 158.309 221.418 154.703 222.867 158.022" stroke="black" stroke-width="5" stroke-miterlimit="10" stroke-linecap="round"/>
<path d="M192.373 158.309L207.916 158.022L208.104 156.832L192.001 157.78L192.373 158.309Z" fill="black"/>
<path d="M475.636 201.076C475.515 200.508 475.065 200.098 474.555 200.169C474.014 200.245 473.389 200.865 473.238 203.193C473.009 206.788 475.255 205.488 475.616 203.422C475.773 202.648 475.78 201.852 475.636 201.076Z" fill="black"/>
<path d="M488.582 203.942C488.52 203.365 488.117 202.91 487.607 202.927C487.06 202.944 486.373 203.493 485.975 205.801C485.365 209.352 487.737 208.298 488.314 206.281C488.552 205.525 488.643 204.732 488.582 203.942Z" fill="black"/>
<path d="M479.089 202.35C479.089 202.35 475.372 210.287 476.161 211.41C476.95 212.533 480.111 212.362 480.111 212.362C480.111 212.362 477.391 212.161 477.383 209.924C477.374 207.687 479.089 202.35 479.089 202.35Z" fill="#DC6350"/>
<path d="M470.931 197.351C471.101 196.724 471.414 196.144 471.846 195.658C472.274 195.154 472.8 194.741 473.392 194.444C473.993 194.137 474.662 193.983 475.337 193.995C476.002 194.003 476.649 194.212 477.192 194.596C476.595 194.627 476.001 194.709 475.417 194.84C474.88 194.97 474.36 195.162 473.867 195.412C473.361 195.664 472.874 195.953 472.41 196.276C471.932 196.604 471.454 196.962 470.931 197.351Z" fill="#231F20"/>
<path d="M486.811 197.52C487.509 197.236 488.273 197.154 489.015 197.284C489.764 197.401 490.483 197.663 491.131 198.055C491.449 198.256 491.75 198.483 492.031 198.733C492.172 198.855 492.306 198.985 492.433 199.122C492.556 199.262 492.677 199.403 492.794 199.554C492.913 199.695 493.02 199.846 493.114 200.005C493.213 200.161 493.306 200.318 493.399 200.476C493.492 200.634 493.555 200.811 493.616 200.981C493.676 201.152 493.747 201.322 493.799 201.5C493.494 201.284 493.237 201.037 492.973 200.806C492.835 200.696 492.701 200.59 492.571 200.474C492.441 200.357 492.316 200.245 492.178 200.145C492.039 200.046 491.91 199.93 491.782 199.83C491.655 199.731 491.51 199.636 491.378 199.537C491.116 199.331 490.831 199.169 490.558 198.984C489.995 198.647 489.405 198.359 488.794 198.12C488.153 197.859 487.489 197.658 486.811 197.52Z" fill="#231F20"/>
<path d="M481.986 217.117C481.986 217.117 477.409 218.933 472.747 216.571C472.747 216.571 476.738 220.568 481.986 217.117Z" fill="#DC6350"/>
<path d="M474.744 201.614C474.783 201.333 474.621 201.078 474.381 201.044C474.141 201.01 473.914 201.211 473.875 201.492C473.835 201.773 473.998 202.028 474.238 202.062C474.478 202.096 474.704 201.895 474.744 201.614Z" fill="white"/>
<path d="M487.575 204.602C487.644 204.326 487.509 204.055 487.274 203.997C487.039 203.938 486.793 204.113 486.723 204.389C486.654 204.664 486.789 204.935 487.024 204.994C487.259 205.053 487.506 204.877 487.575 204.602Z" fill="white"/>
<defs>
<linearGradient id="paint0_linear_2_10" x1="554.9" y1="332.389" x2="408.526" y2="299.228" gradientUnits="userSpaceOnUse">
<stop stop-color="#FFF2C3"/>
<stop offset="1" stop-color="#A53600"/>
</linearGradient>
<linearGradient id="paint1_linear_2_10" x1="463.822" y1="403.098" x2="369.318" y2="403.098" gradientUnits="userSpaceOnUse">
<stop stop-color="#FFF2C3"/>
<stop offset="1" stop-color="#A53600"/>
</linearGradient>
</defs>
</svg>
